<svg width="695" height="465" viewBox="0 0 695 465" fill="none" xmlns="http://www.w3.org/2000/svg">
<g clip-path="url(#clip0)">
<path d="M107.976 290.463C112.407 287.651 117.487 285.921 122.567 285.38C124.945 285.164 127.539 285.164 129.484 286.678C129.917 287.002 130.241 287.435 130.241 287.976C130.133 288.3 129.809 288.624 129.592 288.841C123.648 293.274 114.677 293.923 107.976 290.463Z" fill="#2BA24C"/>
<path d="M108.084 290.355C108.624 286.245 108.841 282.028 107.868 277.919C106.895 273.809 104.733 270.024 101.275 267.645C99.9777 270.673 100.518 274.242 101.491 277.378C102.896 282.244 105.166 287.002 108.084 291.22" fill="#2BA24C"/>
<path d="M100.734 303.656C105.274 304.196 109.165 306.576 112.515 309.603C115.866 312.631 118.244 316.741 119.217 321.174C114.785 320.85 111.11 317.822 108.408 314.362C105.598 310.793 103.761 306.9 100.734 303.656Z" fill="#2BA24C"/>
<path d="M99.1131 305.71C102.68 296.843 101.383 286.029 95.7625 278.351C93.1685 287.435 94.1412 297.708 99.1131 305.71Z" fill="#2BA24C"/>
<path d="M89.2773 317.389C93.3845 317.173 97.4917 318.146 101.058 320.093C104.625 322.148 107.543 325.175 109.381 328.852C109.597 329.393 109.813 329.934 109.489 330.474C109.165 330.907 108.624 330.907 108.192 330.907C104.193 330.691 100.734 328.312 97.816 325.608C94.8977 322.796 92.4118 319.66 89.2773 317.389Z" fill="#2BA24C"/>
<path d="M89.6014 316.741C91.655 310.036 91.8712 302.683 89.9257 295.87C89.1691 293.166 87.9802 290.355 85.4942 289.057C85.2781 288.949 85.0619 288.841 84.8457 288.949C84.6296 289.057 84.5215 289.273 84.4134 289.49C83.5487 291.328 83.2245 293.383 83.3326 295.437C83.4406 297.492 83.873 299.438 84.3053 301.493C85.0619 305.17 85.4942 309.171 87.5478 312.307C87.9802 313.064 88.4125 313.929 88.8448 314.686C89.2772 315.551 89.2772 315.767 89.6014 316.416" fill="#2BA24C"/>
<path d="M62.7967 319.552C61.4997 314.902 60.0946 310.36 59.7703 305.494C59.4461 300.736 60.0946 295.762 62.5805 291.652C67.2281 300.628 67.6604 311.117 63.0128 319.985" fill="#2BA24C"/>
<path d="M47.2325 311.658C41.8283 301.817 30.8037 293.923 19.563 292.842C23.8863 303.656 35.6675 311.874 47.2325 311.658Z" fill="#2BA24C"/>
<path d="M50.5834 313.605C42.4772 314.794 35.6679 319.985 28.102 323.121C26.4807 323.77 24.7514 324.31 23.0221 324.094C21.2927 323.878 19.5634 322.688 19.2391 320.958C18.9149 319.552 19.5634 318.038 20.5361 316.957C21.5089 315.876 22.914 315.227 24.211 314.686C32.4254 311.226 41.2882 311.226 49.9349 313.28" fill="#2BA24C"/>
<path d="M55.2311 319.228C53.3937 319.769 52.7452 320.742 51.3401 321.931C46.4763 326.149 40.5317 329.177 34.2628 330.691C33.6143 330.799 32.7496 330.907 32.4254 330.366C32.1011 329.826 32.5335 329.177 32.8577 328.744C35.4517 325.5 39.2347 323.229 43.1257 321.715C47.0167 320.201 50.4754 318.471 55.123 318.903" fill="#2BA24C"/>
<path d="M60.5269 285.056C53.9338 291.22 44.7467 294.356 35.7758 293.491C35.3434 293.491 34.9111 293.382 34.6949 293.058C34.0464 292.409 34.803 291.328 35.5596 290.787C42.8012 285.164 51.6641 282.785 60.5269 285.056Z" fill="#2BA24C"/>
<path d="M54.2582 282.785C45.6115 276.296 33.7222 274.35 23.3462 277.702C27.2372 281.487 32.6414 283.65 38.0456 284.191C43.5579 284.731 48.9621 284.082 54.2582 282.785Z" fill="#2BA24C"/>
<path d="M56.7441 266.996C57.5007 259.751 56.9603 254.02 57.5007 246.666C57.5007 246.126 57.7169 245.369 58.2573 245.152C59.0139 244.828 59.6624 245.801 59.8786 246.558C62.0402 253.263 60.8513 261.049 56.7441 266.78" fill="#2BA24C"/>
<path d="M57.2846 268.004C52.3127 264.976 48.6379 260.975 45.2873 256.325C42.9095 253.08 40.8559 249.187 41.3963 245.186C44.7469 245.078 47.8813 246.917 50.043 249.512C52.2047 251.999 53.5017 255.243 54.4744 258.379C55.5553 261.515 56.2038 264.868 57.2846 268.004Z" fill="#2BA24C"/>
<path d="M45.5032 264.509C34.6948 260.508 24.643 254.56 15.8882 246.991C19.455 245.585 23.4541 246.45 27.0208 247.856C35.1271 251.1 41.7202 256.615 45.7193 264.401" fill="#2BA24C"/>
<path d="M53.9338 271.863C48.4215 272.512 42.9092 272.836 37.505 271.971C32.2089 271.106 27.129 268.943 22.1571 266.888C21.7248 266.672 21.2924 266.456 21.0763 266.131C20.8601 265.699 21.0763 265.158 21.4005 264.834C21.7248 264.509 22.2652 264.401 22.6975 264.185C28.1017 262.671 33.9382 263.428 39.2344 265.158C44.7466 266.888 49.07 269.051 53.9338 271.863Z" fill="#2BA24C"/>
<path d="M75.9828 255.317C74.6858 252.29 73.7131 249.045 72.5241 245.909C71.3352 242.773 69.8221 239.745 67.6604 237.258C65.3906 234.771 62.3643 232.933 59.0137 232.716C61.0673 242.233 67.4442 250.667 75.8747 255.426" fill="#2BA24C"/>
<path d="M79.4414 259.319C81.6031 256.291 84.1971 252.181 87.1154 250.019C90.0336 247.748 93.9246 246.45 97.5995 247.315C93.9246 253.912 87.0073 258.453 79.4414 259.319Z" fill="#2BA24C"/>
<path d="M78.793 255.534C80.1981 251.857 81.7113 248.18 82.2517 244.287C82.7921 240.394 82.4679 236.285 80.5224 232.933C76.6314 240.178 75.4424 247.964 78.5769 255.642" fill="#2BA24C"/>
<path d="M75.9827 232.933C73.8211 225.687 67.2279 220.388 60.0944 218.009C59.2297 217.685 58.257 217.469 57.2842 217.577C56.3115 217.685 55.4468 218.334 55.2306 219.307C55.0145 220.496 55.9872 221.686 56.96 222.443C62.4723 227.201 68.9573 230.77 75.9827 232.933Z" fill="#2BA24C"/>
<path d="M75.8747 227.093C75.5505 222.443 75.3343 217.685 73.8212 213.359C72.308 208.926 69.3897 204.816 65.1744 202.87C64.4179 207.52 66.4715 212.278 69.0655 216.279C71.5514 220.28 74.5777 224.173 76.0909 228.607" fill="#2BA24C"/>
<path d="M75.9829 230.229C77.8203 224.93 77.9284 218.334 81.0628 213.684C83.2245 210.44 86.7913 208.277 88.6287 204.924C89.9257 208.06 89.4934 211.737 88.1964 214.873C86.8994 218.009 84.7377 220.713 82.3598 223.2C80.1982 225.795 78.1446 227.634 75.9829 230.229Z" fill="#2BA24C"/>
<path d="M75.9828 384.977C76.0909 384.977 76.1989 349.939 76.307 306.684C76.307 263.428 76.1989 228.391 76.0909 228.391C75.9828 228.391 75.8747 263.428 75.7666 306.684C75.7666 349.939 75.8747 384.977 75.9828 384.977Z" fill="#263238"/>
<path d="M45.395 279.973C45.395 279.973 45.8274 280.189 46.692 280.514C47.6648 280.838 48.8537 281.271 50.3669 281.703C53.3932 282.785 57.6085 284.299 62.148 286.137C66.6875 288.084 70.9028 289.598 73.3887 291.76C74.5777 292.842 75.3342 293.923 75.6585 294.788C75.9827 295.653 76.0908 296.086 76.0908 296.086C76.0908 296.086 76.0908 295.978 76.0908 295.762C76.0908 295.545 75.9827 295.221 75.8747 294.788C75.5504 293.923 74.9019 292.734 73.713 291.652C72.5241 290.571 70.7947 289.489 68.8492 288.624C66.9037 287.759 64.742 286.786 62.4723 285.813C57.9327 283.974 53.7175 282.46 50.583 281.487C49.0699 281.055 47.7729 280.622 46.9082 280.406C45.8274 280.081 45.395 279.973 45.395 279.973Z" fill="#263238"/>
<path d="M35.3433 255.317C35.3433 255.317 35.4513 255.426 35.6675 255.75C35.9918 256.074 36.316 256.399 36.7484 256.831C37.8292 257.805 39.2343 259.102 40.9636 260.616C44.6385 263.86 49.5022 268.186 54.9064 273.052C60.3106 277.919 65.0663 282.569 68.3088 286.029C69.9301 287.759 71.2271 289.273 72.0918 290.246C72.5241 290.679 72.8483 291.112 73.0645 291.436C73.2807 291.652 73.3888 291.868 73.4968 291.868C73.4968 291.868 73.3888 291.652 73.1726 291.436C72.9564 291.112 72.6322 290.787 72.1998 290.246C71.3352 289.165 70.1463 287.759 68.525 285.921C65.2825 282.352 60.6349 277.702 55.1226 272.836C49.6103 267.97 44.6385 263.644 41.0717 260.508C39.3424 258.994 37.8292 257.696 36.7484 256.831C36.316 256.399 35.8837 256.074 35.5594 255.858C35.4513 255.426 35.3433 255.317 35.3433 255.317Z" fill="#263238"/>
<path d="M60.8513 278.027C60.9594 277.919 59.8785 275.323 58.6896 271.971C57.5007 268.619 56.9603 265.807 56.8522 265.807C56.7441 265.807 57.0684 268.727 58.1492 272.079C58.6896 273.809 59.3381 275.215 59.8785 276.296C60.419 277.378 60.7432 278.027 60.8513 278.027Z" fill="#263238"/>
<path d="M75.9829 265.915C76.091 265.915 77.0638 262.563 78.1446 258.237C79.2255 254.02 79.982 250.559 79.874 250.451C79.7659 250.451 78.7931 253.803 77.7123 258.129C76.6314 262.347 75.8748 265.807 75.9829 265.915Z" fill="#263238"/>
<path d="M75.875 265.915C75.9831 265.915 76.6316 263.644 78.2528 261.373C79.8741 258.994 81.9277 257.805 81.8196 257.697C81.8196 257.697 81.2792 257.805 80.4145 258.454C79.6579 258.994 78.6852 259.967 77.8205 261.157C76.1992 263.428 75.7669 265.807 75.875 265.915Z" fill="#263238"/>
<path d="M76.4155 340.531C76.5236 340.531 76.5236 339.666 76.9559 338.152C77.3883 336.638 78.0368 334.584 79.3338 332.096C81.7116 327.122 86.1431 320.85 91.7634 314.578C94.5736 311.442 97.2757 308.414 99.5455 305.602C101.815 302.791 103.761 299.979 105.058 297.6C106.463 295.221 107.328 293.166 107.868 291.652C108.084 290.895 108.3 290.355 108.408 289.922C108.516 289.489 108.516 289.273 108.516 289.273C108.516 289.273 108.192 290.03 107.652 291.544C107.111 292.95 106.139 295.005 104.733 297.384C103.328 299.763 101.383 302.466 99.1131 305.278C96.8434 308.089 94.1413 311.117 91.3311 314.253C85.7107 320.525 81.2793 326.906 79.0095 331.988C77.8206 334.475 77.1721 336.638 76.8479 338.152C76.6317 338.909 76.5236 339.45 76.5236 339.882C76.4155 340.315 76.4155 340.531 76.4155 340.531Z" fill="#263238"/>
<path d="M39.3423 307.873C39.3423 307.873 39.5585 307.981 39.8827 308.089C40.315 308.306 40.7474 308.522 41.2878 308.738C41.9363 309.063 42.6929 309.387 43.5576 309.82C44.4222 310.252 45.395 310.685 46.4758 311.334C47.0162 311.658 47.5567 311.982 48.0971 312.307C48.6375 312.631 49.286 313.064 49.8264 313.388C51.0153 314.145 52.3123 315.01 53.6093 315.984C56.2034 317.93 58.9055 320.309 61.4995 322.905C64.0935 325.608 66.2551 328.42 68.2007 331.015C69.0653 332.313 69.93 333.61 70.6866 334.908C71.0108 335.557 71.4432 336.098 71.7674 336.746C72.0917 337.287 72.4159 337.936 72.6321 338.477C73.2806 339.558 73.6048 340.531 74.0372 341.505C74.4695 342.37 74.7938 343.127 75.0099 343.775C75.2261 344.316 75.4423 344.857 75.6584 345.289C75.7665 345.614 75.8746 345.83 75.8746 345.83C75.8746 345.83 75.8746 345.614 75.7665 345.289C75.6584 344.857 75.4423 344.424 75.2261 343.775C75.0099 343.127 74.6857 342.37 74.3614 341.396C73.9291 340.531 73.6048 339.45 72.9563 338.368C72.6321 337.828 72.4159 337.287 72.0917 336.638C71.7674 335.989 71.4432 335.449 71.0108 334.8C70.3623 333.502 69.4977 332.205 68.5249 330.907C66.6875 328.203 64.4177 325.392 61.8237 322.688C59.2297 319.985 56.4195 317.714 53.8255 315.659C52.5285 314.686 51.2315 313.821 49.9345 313.064C49.286 312.739 48.7456 312.307 48.0971 311.982C47.5567 311.658 46.9082 311.334 46.3677 311.009C45.2869 310.36 44.3141 309.928 43.3414 309.495C42.4767 309.063 41.7201 308.738 41.0716 308.522C40.4231 308.306 39.9908 308.089 39.5584 307.981C39.5584 307.873 39.3423 307.873 39.3423 307.873Z" fill="#263238"/>
<path d="M61.2837 322.472C61.2837 322.472 61.0675 321.607 60.0948 320.634C59.122 319.66 57.2846 318.795 55.231 318.795C53.1774 318.687 51.34 319.336 50.1511 319.769C48.9622 320.201 48.2056 320.634 48.2056 320.742C48.2056 320.85 48.9622 320.526 50.2592 320.093C51.5562 319.66 53.2855 319.228 55.231 319.228C57.1765 319.336 58.9059 320.093 59.8786 320.85C60.7433 321.823 61.1756 322.58 61.2837 322.472Z" fill="#263238"/>
<path d="M64.5261 325.932C64.6342 325.824 63.4452 324.094 63.121 321.499C62.7967 318.903 63.5533 316.849 63.4452 316.849C63.3372 316.849 63.121 317.281 62.9048 318.146C62.6887 319.012 62.4725 320.201 62.6887 321.607C62.7967 322.905 63.3372 324.094 63.6614 324.851C64.0937 325.5 64.418 325.932 64.5261 325.932Z" fill="#263238"/>
<path d="M100.194 371.351C99.4369 384.76 95.4378 398.386 89.169 412.12H62.148C56.2034 398.494 52.4205 384.869 51.772 371.351H100.194Z" fill="black"/>
<path d="M176.285 405.74H560.415C569.061 405.74 576.195 398.71 576.195 389.951V146.529C576.195 137.878 569.169 130.741 560.415 130.741H176.285C167.638 130.741 160.504 137.77 160.504 146.529V389.951C160.612 398.71 167.638 405.74 176.285 405.74Z" fill="black"/>
<path d="M161.369 412.12H573.169C583.761 412.12 592.408 403.469 592.408 392.871V388.005H142.13V392.871C142.13 403.469 150.777 412.12 161.369 412.12Z" fill="black"/>
<path d="M172.864 373.891L564.992 373.891L564.992 141.715L172.864 141.715L172.864 373.891Z" fill="#E0E0E0"/>
<path d="M183.743 373.19H553.389C555.335 373.19 556.956 371.567 556.956 369.621V153.126C556.956 151.179 555.335 149.557 553.389 149.557H183.743C181.797 149.557 180.176 151.179 180.176 153.126V369.621C180.176 371.567 181.797 373.19 183.743 373.19Z" fill="#EBEBEB"/>
<path d="M180.608 373.514H557.388L556.956 166.319H180.608V373.514Z" fill="#FAFAFA"/>
<path d="M164.179 385.409C164.179 385.517 256.375 385.626 370.187 385.626C483.999 385.626 576.195 385.517 576.195 385.409C576.195 385.301 483.999 385.193 370.187 385.193C256.375 385.193 164.179 385.301 164.179 385.409Z" fill="#263238"/>
<path d="M436.335 247.207L282.964 245.801L278.532 350.048L437.199 348.966L436.335 247.207Z" fill="#F0B501"/>
<path d="M436.334 247.207L363.918 188.271C360.892 185.784 356.46 185.784 353.434 188.271L283.071 245.693" fill="#E8505B"/>
<path d="M436.334 247.207L363.918 188.271C360.892 185.784 356.46 185.784 353.434 188.271L283.071 245.693" fill="black"/>
<path d="M437.199 348.966C437.415 348.75 425.094 335.341 409.854 319.012C394.506 302.574 381.968 289.489 381.86 289.706C381.644 289.922 393.858 303.331 409.206 319.66C424.553 335.99 437.091 349.074 437.199 348.966Z" fill="#263238"/>
<path d="M278.532 350.048C278.748 350.264 290.745 337.071 305.337 320.742C319.928 304.413 331.601 291.003 331.385 290.787C331.169 290.571 319.171 303.764 304.58 320.093C289.989 336.53 278.316 349.94 278.532 350.048Z" fill="#263238"/>
<path d="M282.963 245.801L359.811 307.549L436.334 247.207" fill="black"/>
<path d="M428.552 252.938L428.876 205.032L294.636 203.194L293.015 253.587L359.811 306.684L428.552 252.938Z" fill="#FAFAFA"/>
<path d="M428.552 252.938C428.552 252.938 428.12 253.263 427.255 253.912C426.391 254.56 425.202 255.534 423.581 256.723C420.338 259.21 415.69 262.887 409.638 267.537C397.64 276.837 380.455 290.246 359.595 306.576H359.919C340.68 291.22 317.875 273.052 293.123 253.371L293.231 253.587C293.556 243.963 293.88 233.906 294.204 223.633C294.42 216.712 294.637 209.899 294.853 203.194L294.529 203.519C348.57 204.276 396.343 204.816 428.769 205.249L428.552 205.033C428.444 220.064 428.444 232.067 428.444 240.286C428.444 244.395 428.444 247.531 428.444 249.694C428.444 250.776 428.444 251.533 428.444 252.073C428.552 252.614 428.552 252.938 428.552 252.938C428.552 252.938 428.552 252.722 428.552 252.181C428.552 251.641 428.552 250.776 428.552 249.802C428.552 247.64 428.661 244.503 428.661 240.394C428.769 232.176 428.877 220.172 428.985 205.141V204.924H428.769C396.343 204.492 348.678 203.735 294.529 202.978H294.204V203.302C293.988 210.007 293.772 216.82 293.556 223.741C293.232 234.014 292.907 244.071 292.583 253.695V253.803L292.691 253.912C317.442 273.593 340.248 291.76 359.487 307.008L359.595 307.116L359.703 307.008C380.563 290.679 397.64 277.162 409.638 267.753C415.582 263.103 420.23 259.427 423.472 256.831C425.094 255.534 426.283 254.669 427.039 254.02C428.12 253.263 428.552 252.938 428.552 252.938Z" fill="#263238"/>
<path d="M315.821 227.309C315.821 227.417 336.357 227.742 361.648 227.958C386.94 228.174 407.476 228.174 407.476 228.066C407.476 227.958 386.94 227.634 361.648 227.417C336.357 227.201 315.821 227.201 315.821 227.309Z" fill="#263238"/>
<path d="M315.821 240.827C315.821 240.935 336.357 241.259 361.648 241.475C386.94 241.692 407.476 241.692 407.476 241.584C407.476 241.475 386.94 241.151 361.648 240.935C336.357 240.719 315.821 240.719 315.821 240.827Z" fill="#263238"/>
<path d="M315.821 256.399C315.821 256.507 336.357 256.831 361.648 257.048C386.94 257.264 407.476 257.264 407.476 257.156C407.476 257.048 386.94 256.723 361.648 256.507C336.357 256.291 315.821 256.291 315.821 256.399Z" fill="#263238"/>
<path d="M315.713 272.079C315.713 272.187 335.276 272.512 359.487 272.728C383.698 272.944 403.261 272.944 403.261 272.836C403.261 272.728 383.698 272.403 359.487 272.187C335.384 271.971 315.713 271.863 315.713 272.079Z" fill="#263238"/>
<path d="M332.898 285.813C332.898 285.813 333.114 285.813 333.438 285.921C333.871 285.921 334.411 285.921 334.952 286.029C336.357 286.029 338.302 286.137 340.572 286.137C345.436 286.245 352.029 286.353 359.27 286.462C366.62 286.57 373.213 286.678 377.969 286.678C380.347 286.678 382.184 286.678 383.589 286.678C384.238 286.678 384.67 286.678 385.102 286.678C385.427 286.678 385.643 286.678 385.643 286.678C385.643 286.678 385.427 286.678 385.102 286.57C384.67 286.57 384.13 286.57 383.589 286.462C382.184 286.462 380.239 286.353 377.969 286.353C373.105 286.245 366.512 286.137 359.27 286.029C351.921 285.921 345.328 285.813 340.572 285.813C338.194 285.813 336.357 285.813 334.952 285.813C334.303 285.813 333.871 285.813 333.438 285.813C333.114 285.705 332.898 285.705 332.898 285.813Z" fill="#263238"/>
<path d="M350.191 299.006C350.191 299.114 354.515 299.33 359.919 299.33C365.323 299.33 369.647 299.222 369.647 299.114C369.647 299.006 365.323 298.789 359.919 298.789C354.515 298.681 350.191 298.79 350.191 299.006Z" fill="#263238"/>
<path d="M0 411.146C0 411.255 161.585 411.471 361 411.471C560.415 411.471 722 411.363 722 411.146C722 411.038 560.415 410.822 361 410.822C161.585 410.822 0 411.038 0 411.146Z" fill="#263238"/>
<path d="M301.878 198.652C301.77 198.652 301.662 199.301 301.77 199.95C301.878 200.707 301.987 201.248 302.095 201.248C302.203 201.248 302.311 200.599 302.203 199.95C302.203 199.193 302.095 198.652 301.878 198.652Z" fill="#263238" stroke="black" stroke-width="0.5" stroke-miterlimit="10"/>
<path d="M300.689 188.487C300.581 188.487 300.581 189.677 300.797 191.083C301.013 192.488 301.23 193.57 301.338 193.57C301.446 193.57 301.446 192.38 301.23 190.974C301.013 189.569 300.797 188.379 300.689 188.487Z" fill="#263238" stroke="black" stroke-width="0.5" stroke-miterlimit="10"/>
<path d="M298.852 178.322C298.744 178.322 298.852 179.512 299.068 180.917C299.392 182.323 299.717 183.405 299.825 183.405C299.933 183.405 299.825 182.215 299.609 180.809C299.284 179.403 298.96 178.322 298.852 178.322Z" fill="#263238" stroke="black" stroke-width="0.5" stroke-miterlimit="10"/>
<path d="M296.258 168.373C296.15 168.373 296.366 169.563 296.69 170.969C297.015 172.374 297.447 173.456 297.555 173.348C297.663 173.239 297.447 172.158 297.123 170.752C296.798 169.346 296.366 168.265 296.258 168.373Z" fill="#263238" stroke="black" stroke-width="0.5" stroke-miterlimit="10"/>
<path d="M293.015 158.641C292.907 158.749 293.123 159.83 293.664 161.128C294.096 162.426 294.637 163.507 294.745 163.399C294.853 163.399 294.637 162.209 294.096 160.912C293.664 159.614 293.123 158.641 293.015 158.641Z" fill="#263238" stroke="black" stroke-width="0.5" stroke-miterlimit="10"/>
<path d="M289.017 149.341C288.908 149.449 289.233 150.53 289.881 151.72C290.422 153.017 291.07 153.991 291.178 153.883C291.286 153.774 290.962 152.693 290.314 151.503C289.665 150.314 289.125 149.341 289.017 149.341Z" fill="#263238" stroke="black" stroke-width="0.5" stroke-miterlimit="10"/>
<path d="M284.153 140.581C284.045 140.69 284.477 141.663 285.234 142.852C285.882 144.042 286.531 145.015 286.639 144.907C286.747 144.799 286.314 143.826 285.558 142.528C284.909 141.338 284.261 140.473 284.153 140.581Z" fill="#263238" stroke="black" stroke-width="0.5" stroke-miterlimit="10"/>
<path d="M278.424 132.363C278.316 132.471 278.856 133.444 279.721 134.526C280.586 135.607 281.234 136.472 281.342 136.364C281.45 136.256 280.91 135.283 280.045 134.201C279.289 133.12 278.532 132.363 278.424 132.363Z" fill="#263238" stroke="black" stroke-width="0.5" stroke-miterlimit="10"/>
<path d="M271.831 125.117C271.723 125.226 272.371 126.091 273.344 127.064C274.317 128.037 275.074 128.794 275.182 128.686C275.29 128.578 274.641 127.713 273.668 126.74C272.804 125.658 271.939 125.009 271.831 125.117Z" fill="#263238" stroke="black" stroke-width="0.5" stroke-miterlimit="10"/>
<path d="M264.589 118.737C264.481 118.845 265.238 119.602 266.319 120.467C267.399 121.333 268.264 121.873 268.372 121.765C268.48 121.657 267.724 120.9 266.643 120.035C265.562 119.17 264.589 118.629 264.589 118.737Z" fill="#263238" stroke="black" stroke-width="0.5" stroke-miterlimit="10"/>
<path d="M256.591 113.438C256.483 113.546 257.348 114.195 258.537 114.952C259.618 115.601 260.59 116.034 260.698 115.926C260.806 115.817 259.942 115.169 258.753 114.412C257.564 113.763 256.591 113.33 256.591 113.438Z" fill="#263238" stroke="black" stroke-width="0.5" stroke-miterlimit="10"/>
<path d="M247.945 109.545C247.945 109.654 248.809 110.194 249.998 110.735C251.187 111.167 252.268 111.492 252.268 111.384C252.268 111.276 251.403 110.735 250.215 110.194C249.026 109.762 247.945 109.437 247.945 109.545Z" fill="#263238" stroke="black" stroke-width="0.5" stroke-miterlimit="10"/>
<path d="M238.865 107.274C238.865 107.383 239.838 107.707 241.135 107.923C242.432 108.248 243.405 108.356 243.405 108.139C243.405 108.031 242.432 107.599 241.135 107.383C239.946 107.166 238.973 107.058 238.865 107.274Z" fill="#263238" stroke="black" stroke-width="0.5" stroke-miterlimit="10"/>
<path d="M229.678 106.734C229.678 106.842 230.759 107.058 231.948 107.058C233.245 107.058 234.218 106.95 234.326 106.842C234.326 106.734 233.245 106.517 232.056 106.517C230.651 106.409 229.678 106.517 229.678 106.734Z" fill="#263238" stroke="black" stroke-width="0.5" stroke-miterlimit="10"/>
<path d="M220.383 107.923C220.383 108.031 221.464 108.031 222.761 107.815C224.058 107.599 225.031 107.274 225.031 107.166C225.031 107.058 223.95 107.058 222.653 107.274C221.356 107.383 220.383 107.707 220.383 107.923Z" fill="#263238" stroke="black" stroke-width="0.5" stroke-miterlimit="10"/>
<path d="M211.52 110.843C211.52 110.951 212.601 110.735 213.79 110.302C214.979 109.87 215.951 109.329 215.951 109.221C215.951 109.113 214.87 109.329 213.682 109.762C212.385 110.194 211.412 110.735 211.52 110.843Z" fill="#263238" stroke="black" stroke-width="0.5" stroke-miterlimit="10"/>
<path d="M203.198 115.493C203.306 115.601 204.279 115.169 205.359 114.412C206.44 113.655 207.305 113.006 207.305 112.898C207.197 112.79 206.332 113.222 205.143 113.979C204.062 114.736 203.198 115.385 203.198 115.493Z" fill="#263238" stroke="black" stroke-width="0.5" stroke-miterlimit="10"/>
<path d="M195.956 121.981C196.064 122.09 196.929 121.441 197.902 120.467C198.874 119.494 199.523 118.629 199.523 118.521C199.415 118.413 198.55 119.062 197.577 120.035C196.605 121.008 195.848 121.873 195.956 121.981Z" fill="#263238" stroke="black" stroke-width="0.5" stroke-miterlimit="10"/>
<path d="M191.417 127.821C191.525 127.929 191.957 127.496 192.281 126.956C192.714 126.415 192.93 125.874 192.822 125.766C192.714 125.658 192.281 126.091 191.957 126.631C191.525 127.172 191.309 127.713 191.417 127.821Z" fill="#263238" stroke="black" stroke-width="0.5" stroke-miterlimit="10"/>
<path d="M157.046 156.586C157.046 156.694 157.911 156.37 158.883 155.937C159.856 155.505 160.613 155.072 160.505 154.964C160.505 154.856 159.64 155.18 158.667 155.613C157.694 156.045 157.046 156.478 157.046 156.586Z" fill="#263238" stroke="black" stroke-width="0.5" stroke-miterlimit="10"/>
<path d="M149.696 159.073C149.696 159.181 150.561 158.965 151.642 158.749C152.723 158.424 153.479 158.1 153.479 157.992C153.479 157.884 152.615 158.1 151.534 158.316C150.561 158.641 149.696 158.965 149.696 159.073Z" fill="#263238" stroke="black" stroke-width="0.5" stroke-miterlimit="10"/>
<path d="M142.13 160.371C142.13 160.479 142.995 160.479 144.076 160.371C145.157 160.263 146.021 160.046 146.021 159.938C146.021 159.83 145.157 159.83 144.076 159.938C142.995 160.046 142.13 160.263 142.13 160.371Z" fill="#263238" stroke="black" stroke-width="0.5" stroke-miterlimit="10"/>
<path d="M134.348 160.046C134.348 160.155 135.213 160.263 136.294 160.371C137.374 160.479 138.239 160.479 138.239 160.263C138.239 160.155 137.374 160.046 136.294 159.938C135.213 159.938 134.348 159.938 134.348 160.046Z" fill="#263238" stroke="black" stroke-width="0.5" stroke-miterlimit="10"/>
<path d="M126.782 158.641C126.782 158.749 127.539 159.073 128.62 159.289C129.7 159.506 130.565 159.614 130.565 159.506C130.565 159.398 129.7 159.181 128.728 158.965C127.647 158.641 126.782 158.533 126.782 158.641Z" fill="#263238" stroke="black" stroke-width="0.5" stroke-miterlimit="10"/>
<path d="M119.541 155.829C119.541 155.937 120.19 156.37 121.162 156.802C122.135 157.235 123 157.559 123 157.451C123 157.343 122.243 156.91 121.378 156.478C120.514 156.045 119.649 155.721 119.541 155.829Z" fill="#263238" stroke="black" stroke-width="0.5" stroke-miterlimit="10"/>
<path d="M113.164 151.612C113.056 151.72 113.705 152.369 114.569 153.017C115.434 153.666 116.19 154.099 116.299 153.991C116.407 153.883 115.65 153.342 114.893 152.693C113.921 152.044 113.272 151.503 113.164 151.612Z" fill="#263238" stroke="black" stroke-width="0.5" stroke-miterlimit="10"/>
<path d="M107.868 145.988C107.76 146.096 108.192 146.853 108.949 147.61C109.597 148.476 110.354 149.016 110.354 148.908C110.462 148.8 109.922 148.151 109.273 147.394C108.625 146.529 107.976 145.88 107.868 145.988Z" fill="#263238" stroke="black" stroke-width="0.5" stroke-miterlimit="10"/>
<path d="M104.301 139.284C104.193 139.284 104.409 140.149 104.841 141.122C105.274 142.095 105.814 142.852 105.922 142.744C106.03 142.744 105.706 141.879 105.274 140.906C104.733 140.041 104.409 139.175 104.301 139.284Z" fill="#263238" stroke="black" stroke-width="0.5" stroke-miterlimit="10"/>
<path d="M102.896 131.822C102.788 131.822 102.68 132.687 102.788 133.769C102.896 134.85 103.112 135.715 103.22 135.607C103.328 135.607 103.22 134.742 103.112 133.66C103.112 132.579 103.004 131.714 102.896 131.822Z" fill="#263238" stroke="black" stroke-width="0.5" stroke-miterlimit="10"/>
<path d="M103.977 124.252C103.868 124.252 103.544 125.009 103.328 126.091C103.112 127.172 103.112 128.037 103.22 128.037C103.328 128.037 103.544 127.172 103.76 126.199C103.868 125.117 104.085 124.252 103.977 124.252Z" fill="#263238" stroke="black" stroke-width="0.5" stroke-miterlimit="10"/>
<path d="M107.328 117.331C107.219 117.223 106.679 117.872 106.139 118.845C105.598 119.819 105.274 120.576 105.382 120.684C105.49 120.684 105.922 120.035 106.463 119.062C107.003 118.196 107.436 117.439 107.328 117.331Z" fill="#263238" stroke="black" stroke-width="0.5" stroke-miterlimit="10"/>
<path d="M112.732 111.924C112.624 111.816 111.867 112.249 111.111 113.006C110.246 113.655 109.705 114.412 109.814 114.52C109.922 114.628 110.57 114.087 111.327 113.33C112.083 112.573 112.732 112.033 112.732 111.924Z" fill="#263238" stroke="black" stroke-width="0.5" stroke-miterlimit="10"/>
<path d="M119.757 108.788C119.757 108.68 118.892 108.788 117.811 109.113C116.731 109.437 115.974 109.87 116.082 109.978C116.082 110.086 116.947 109.762 117.919 109.437C118.892 109.113 119.757 108.896 119.757 108.788Z" fill="#263238" stroke="black" stroke-width="0.5" stroke-miterlimit="10"/>
<path d="M127.431 108.896C127.431 108.788 126.674 108.464 125.593 108.356C124.513 108.248 123.648 108.356 123.648 108.464C123.648 108.572 124.513 108.68 125.593 108.788C126.566 108.896 127.323 109.005 127.431 108.896Z" fill="#263238" stroke="black" stroke-width="0.5" stroke-miterlimit="10"/>
<path d="M134.024 112.573C134.132 112.465 133.592 111.816 132.727 111.167C131.862 110.519 130.998 110.194 130.998 110.302C130.998 110.41 131.646 110.843 132.511 111.492C133.375 112.141 134.024 112.681 134.024 112.573Z" fill="#263238" stroke="black" stroke-width="0.5" stroke-miterlimit="10"/>
<path d="M137.158 119.494C137.266 119.494 137.266 118.629 137.05 117.548C136.834 116.466 136.294 115.709 136.186 115.817C136.077 115.817 136.402 116.683 136.618 117.656C136.834 118.629 137.05 119.494 137.158 119.494Z" fill="#263238" stroke="black" stroke-width="0.5" stroke-miterlimit="10"/>
<path d="M135.645 126.848C135.753 126.848 136.186 126.199 136.618 125.117C136.942 124.144 137.05 123.171 136.942 123.171C136.834 123.171 136.618 123.928 136.186 124.901C135.861 126.091 135.537 126.848 135.645 126.848Z" fill="#263238" stroke="black" stroke-width="0.5" stroke-miterlimit="10"/>
<path d="M130.566 132.579C130.674 132.687 131.43 132.255 132.187 131.498C133.051 130.741 133.484 130.092 133.376 129.984C133.268 129.876 132.619 130.524 131.863 131.173C131.214 131.93 130.457 132.471 130.566 132.579Z" fill="#263238" stroke="black" stroke-width="0.5" stroke-miterlimit="10"/>
<path d="M123.54 135.715C123.54 135.823 124.405 135.715 125.486 135.391C126.458 135.066 127.215 134.634 127.215 134.526C127.215 134.417 126.35 134.742 125.377 135.066C124.297 135.283 123.54 135.607 123.54 135.715Z" fill="#263238" stroke="black" stroke-width="0.5" stroke-miterlimit="10"/>
<path d="M115.866 136.472C115.866 136.58 116.731 136.688 117.812 136.688C118.893 136.688 119.757 136.472 119.757 136.364C119.757 136.256 118.893 136.256 117.812 136.256C116.731 136.256 115.866 136.364 115.866 136.472Z" fill="#263238" stroke="black" stroke-width="0.5" stroke-miterlimit="10"/>
<path d="M108.3 135.066C108.3 135.174 109.057 135.499 110.138 135.823C111.219 136.039 112.083 136.148 112.083 136.04C112.083 135.931 111.219 135.715 110.246 135.391C109.165 135.174 108.3 134.958 108.3 135.066Z" fill="#263238" stroke="black" stroke-width="0.5" stroke-miterlimit="10"/>
<path d="M101.274 131.822C101.166 131.93 101.923 132.363 102.896 132.903C103.868 133.444 104.625 133.768 104.733 133.66C104.733 133.552 104.085 133.12 103.112 132.579C102.139 132.038 101.274 131.714 101.274 131.822Z" fill="#263238" stroke="black" stroke-width="0.5" stroke-miterlimit="10"/>
<path d="M95.0059 127.28C94.8978 127.388 95.5463 127.929 96.411 128.686C97.2757 129.335 97.9242 129.876 98.0323 129.767C98.1404 129.659 97.4919 129.119 96.6272 128.362C95.8706 127.713 95.114 127.172 95.0059 127.28Z" fill="#263238" stroke="black" stroke-width="0.5" stroke-miterlimit="10"/>
<path d="M89.8176 121.657C89.7095 121.765 90.2499 122.414 90.8984 123.279C91.5469 124.036 92.1954 124.685 92.3035 124.577C92.4116 124.468 91.8711 123.82 91.2226 122.955C90.4661 122.198 89.9256 121.657 89.8176 121.657Z" fill="#263238" stroke="black" stroke-width="0.5" stroke-miterlimit="10"/>
<path d="M85.4942 115.277C85.3861 115.277 85.8185 116.142 86.3589 117.007C86.8993 117.872 87.4397 118.629 87.5478 118.521C87.6559 118.413 87.2236 117.656 86.6831 116.791C86.1427 115.926 85.6023 115.277 85.4942 115.277Z" fill="#263238" stroke="black" stroke-width="0.5" stroke-miterlimit="10"/>
<path d="M82.3601 108.356C82.252 108.356 82.4681 109.221 82.9005 110.194C83.3328 111.167 83.6571 111.924 83.7651 111.924C83.8732 111.924 83.6571 111.059 83.2247 110.086C82.9005 109.005 82.4681 108.248 82.3601 108.356Z" fill="#263238" stroke="black" stroke-width="0.5" stroke-miterlimit="10"/>
<path d="M80.1982 101.002C80.0902 101.002 80.1982 101.867 80.5225 102.949C80.7387 103.922 81.0629 104.787 81.171 104.787C81.2791 104.787 81.171 103.922 80.8467 102.841C80.6306 101.759 80.3063 100.894 80.1982 101.002Z" fill="#263238" stroke="black" stroke-width="0.5" stroke-miterlimit="10"/>
<path d="M78.9011 93.4325C78.793 93.4325 78.793 94.2976 79.0092 95.379C79.2253 96.4604 79.4415 97.2174 79.5496 97.2174C79.6577 97.2174 79.6577 96.3523 79.4415 95.2709C79.2253 94.2976 79.0092 93.4325 78.9011 93.4325Z" fill="#263238" stroke="black" stroke-width="0.5" stroke-miterlimit="10"/>
<path d="M78.1447 85.8628C78.0366 85.8628 78.0366 86.7279 78.0366 87.8093C78.1447 88.8907 78.2528 89.7558 78.3609 89.7558C78.469 89.7558 78.4689 88.8907 78.4689 87.8093C78.4689 86.6197 78.2528 85.7546 78.1447 85.8628Z" fill="#263238" stroke="black" stroke-width="0.5" stroke-miterlimit="10"/>
<path d="M77.9286 78.1848C77.8205 78.1848 77.7124 79.0499 77.7124 80.1313C77.7124 81.2127 77.8205 82.0779 77.9286 82.0779C78.0366 82.0779 78.1447 81.2127 78.1447 80.1313C78.1447 79.0499 78.0366 78.1848 77.9286 78.1848Z" fill="#263238" stroke="black" stroke-width="0.5" stroke-miterlimit="10"/>
<path d="M77.9286 70.507C77.8205 70.507 77.7124 71.3721 77.7124 72.4535C77.7124 73.5349 77.8205 74.4 77.9286 74.4C78.0366 74.4 78.1447 73.5349 78.1447 72.4535C78.1447 71.3721 78.0366 70.507 77.9286 70.507Z" fill="#263238" stroke="black" stroke-width="0.5" stroke-miterlimit="10"/>
<path d="M78.0365 65.7488C77.9284 65.7488 77.8203 65.9651 77.8203 66.1813C77.8203 66.3976 77.9284 66.6139 78.0365 66.6139C78.1446 66.6139 78.2526 66.3976 78.2526 66.1813C78.2526 65.9651 78.2526 65.7488 78.0365 65.7488Z" fill="#263238" stroke="black" stroke-width="0.5" stroke-miterlimit="10"/>
<path d="M57.3647 -0.0366936L51.9834 49.5265L125.484 57.515L130.865 7.95179L57.3647 -0.0366936Z" fill="#E43E2B"/>
<path d="M51.9893 49.6366L57.3934 0.108643L130.89 8.11097L125.486 57.6389L51.9893 49.6366ZM57.3934 0.108643L51.9893 49.6366L125.378 57.6389L130.782 8.11097L57.3934 0.108643Z" fill="#263238"/>
<path d="M57.0684 0.648773C57.0684 0.648773 57.2845 0.865052 57.7169 1.40575C58.1492 1.94645 58.7977 2.59528 59.5543 3.4604C61.2836 5.19063 63.5534 7.78598 66.4717 10.8139C72.4163 16.9778 80.5226 25.5209 89.4935 34.929L89.7097 35.1453L89.9258 35.0371C90.142 34.929 90.2501 34.8209 90.4663 34.7127C101.599 27.6837 111.543 21.1953 118.892 16.5453C122.459 14.2744 125.377 12.3278 127.431 10.922C128.404 10.2732 129.16 9.73249 129.701 9.40807C130.241 9.08366 130.457 8.86738 130.457 8.86738C130.457 8.86738 130.133 8.97552 129.593 9.29994C128.944 9.62435 128.188 10.1651 127.215 10.7057C125.053 12.0034 122.135 13.8418 118.568 16.1127C111.326 20.5464 101.167 26.8185 90.142 33.8476C89.9258 33.9557 89.7097 34.0639 89.6016 34.172H90.0339C80.9549 24.872 72.8486 16.4371 66.904 10.2732C63.9857 7.24528 61.6079 4.86621 59.8785 3.13598C59.122 2.37901 58.4734 1.73017 57.933 1.18947C57.3926 0.756913 57.0684 0.540634 57.0684 0.648773Z" fill="#263238"/>
<path d="M125.161 58.179C125.269 58.0709 120.513 50.7174 114.461 41.6336C108.408 32.6581 103.328 25.4127 103.22 25.5208C103.112 25.629 107.868 32.9825 113.92 42.0662C119.973 51.0418 125.053 58.179 125.161 58.179Z" fill="#263238"/>
<path d="M78.9013 22.1685C78.7932 22.0604 72.5243 28.2243 65.0665 35.9022C57.6087 43.5801 51.556 49.9604 51.7722 50.0685C51.8803 50.1767 58.0411 44.0127 65.6069 36.3348C73.0647 28.6569 79.0093 22.3848 78.9013 22.1685Z" fill="#263238"/>
<path d="M361.648 186.216C361.54 186.108 361.108 186.432 360.892 186.973C360.567 187.406 360.459 187.838 360.567 187.946C360.675 188.055 361.108 187.73 361.324 187.189C361.648 186.757 361.756 186.324 361.648 186.216Z" fill="#263238" stroke="black" stroke-width="0.5" stroke-miterlimit="10"/>
<path d="M365.864 179.403C365.756 179.295 365.107 180.052 364.567 181.025C364.026 181.999 363.594 182.756 363.81 182.864C363.918 182.972 364.567 182.215 365.107 181.242C365.648 180.377 365.972 179.512 365.864 179.403Z" fill="#263238" stroke="black" stroke-width="0.5" stroke-miterlimit="10"/>
<path d="M369.863 172.591C369.755 172.482 369.214 173.239 368.566 174.213C368.025 175.186 367.701 175.943 367.809 176.051C367.917 176.159 368.458 175.402 369.106 174.429C369.647 173.456 369.971 172.699 369.863 172.591Z" fill="#263238" stroke="black" stroke-width="0.5" stroke-miterlimit="10"/>
<path d="M373.538 165.562C373.43 165.453 372.889 166.21 372.349 167.184C371.808 168.157 371.592 169.022 371.7 169.022C371.808 169.022 372.349 168.373 372.889 167.4C373.43 166.535 373.754 165.67 373.538 165.562Z" fill="#263238" stroke="black" stroke-width="0.5" stroke-miterlimit="10"/>
<path d="M376.888 158.424C376.78 158.316 376.24 159.181 375.807 160.155C375.375 161.128 375.159 161.993 375.267 162.101C375.375 162.209 375.915 161.344 376.348 160.371C376.78 159.289 376.996 158.424 376.888 158.424Z" fill="#263238" stroke="black" stroke-width="0.5" stroke-miterlimit="10"/>
<path d="M379.59 150.963C379.482 150.963 379.05 151.72 378.726 152.693C378.401 153.774 378.185 154.64 378.401 154.64C378.51 154.64 378.942 153.883 379.266 152.909C379.59 151.936 379.807 151.071 379.59 150.963Z" fill="#263238" stroke="black" stroke-width="0.5" stroke-miterlimit="10"/>
<path d="M381.644 143.285C381.536 143.285 381.212 144.042 380.887 145.123C380.671 146.205 380.563 147.07 380.671 147.178C380.779 147.178 381.104 146.421 381.428 145.339C381.644 144.258 381.752 143.393 381.644 143.285Z" fill="#263238" stroke="black" stroke-width="0.5" stroke-miterlimit="10"/>
<path d="M382.617 135.391C382.509 135.391 382.292 136.256 382.184 137.337C382.076 138.419 382.076 139.392 382.292 139.392C382.4 139.392 382.617 138.527 382.725 137.445C382.833 136.364 382.833 135.499 382.617 135.391Z" fill="#263238" stroke="black" stroke-width="0.5" stroke-miterlimit="10"/>
<path d="M382.617 127.388C382.508 127.388 382.4 128.253 382.4 129.443C382.4 130.524 382.617 131.498 382.725 131.498C382.833 131.498 382.941 130.632 382.941 129.443C382.941 128.253 382.833 127.388 382.617 127.388Z" fill="#263238" stroke="black" stroke-width="0.5" stroke-miterlimit="10"/>
<path d="M381.32 119.17C381.211 119.17 381.211 120.143 381.428 121.224C381.644 122.306 381.968 123.279 382.076 123.279C382.184 123.279 382.184 122.414 381.968 121.224C381.752 120.035 381.428 119.062 381.32 119.17Z" fill="#263238" stroke="black" stroke-width="0.5" stroke-miterlimit="10"/>
<path d="M378.725 110.951C378.617 110.951 378.833 111.924 379.158 113.006C379.59 114.087 380.022 115.06 380.131 115.06C380.239 115.06 380.022 114.087 379.698 113.006C379.266 111.816 378.833 110.843 378.725 110.951Z" fill="#263238" stroke="black" stroke-width="0.5" stroke-miterlimit="10"/>
<path d="M374.727 102.841C374.618 102.841 374.943 103.814 375.591 104.895C376.132 105.977 376.78 106.842 376.888 106.842C376.996 106.842 376.672 105.868 376.024 104.787C375.483 103.706 374.943 102.841 374.727 102.841Z" fill="#263238" stroke="black" stroke-width="0.5" stroke-miterlimit="10"/>
<path d="M369.43 95.0546C369.322 95.0546 369.863 96.0278 370.619 97.0011C371.376 98.0825 372.132 98.8394 372.24 98.8394C372.349 98.8394 371.808 97.8662 371.052 96.8929C370.295 95.8115 369.538 95.0546 369.43 95.0546Z" fill="#263238" stroke="black" stroke-width="0.5" stroke-miterlimit="10"/>
<path d="M362.729 87.9174C362.621 88.0255 363.378 88.7825 364.242 89.7558C365.215 90.729 366.08 91.486 366.188 91.3779C366.296 91.2697 365.647 90.5128 364.675 89.5395C363.702 88.5662 362.837 87.8093 362.729 87.9174Z" fill="#263238" stroke="black" stroke-width="0.5" stroke-miterlimit="10"/>
<path d="M354.731 81.6453C354.623 81.7534 355.487 82.5104 356.676 83.2674C357.865 84.1325 358.838 84.6732 358.946 84.565C359.054 84.4569 358.189 83.6999 357.001 82.9429C355.812 82.186 354.731 81.5371 354.731 81.6453Z" fill="#263238" stroke="black" stroke-width="0.5" stroke-miterlimit="10"/>
<path d="M347.814 77.7523C347.706 77.8604 348.246 78.1848 348.894 78.5092C349.543 78.8336 350.083 79.0499 350.192 78.9418C350.3 78.8336 349.759 78.5092 349.111 78.1848C348.462 77.8604 347.922 77.6441 347.814 77.7523Z" fill="#263238" stroke="black" stroke-width="0.5" stroke-miterlimit="10"/>
<path d="M271.785 37.6694L266.804 91.6198L346.773 99.0096L351.754 45.0593L271.785 37.6694Z" fill="#4285F4"/>
<path d="M271.723 37.7406L351.813 45.0941L346.841 99.0557L266.751 91.7022L271.723 37.7406ZM351.705 45.0941L271.723 37.7406L266.751 91.5941L346.733 98.9476L351.705 45.0941Z" fill="#263238"/>
<path d="M271.398 38.2814C271.398 38.2814 271.615 38.6058 272.047 39.0383C272.587 39.579 273.236 40.336 274.101 41.2011C275.938 43.1476 278.532 45.743 281.774 49.0953C288.368 55.6918 297.23 64.7756 307.174 74.8325L307.39 75.0488L307.607 74.8325C307.823 74.7244 308.039 74.6163 308.255 74.4C320.144 66.5058 330.953 59.3686 338.843 54.1779C342.734 51.5825 345.868 49.5279 348.03 48.0139C349.111 47.257 349.867 46.7163 350.516 46.2837C351.056 45.8511 351.38 45.6349 351.38 45.6349C351.38 45.6349 351.056 45.743 350.408 46.1756C349.759 46.6081 348.895 47.1488 347.814 47.7976C345.544 49.3116 342.41 51.2581 338.41 53.8535C330.52 59.0442 319.712 66.0732 307.715 73.9674C307.498 74.0756 307.282 74.2918 307.066 74.4H307.498C297.555 64.4511 288.476 55.3674 281.883 48.7709C278.64 45.5267 275.938 42.9314 274.101 41.093C273.236 40.2279 272.479 39.579 271.939 39.0383C271.723 38.4976 271.398 38.2814 271.398 38.2814Z" fill="#263238"/>
<path d="M346.409 99.7046C346.625 99.5965 341.221 91.5941 334.52 81.9697C327.818 72.2372 322.198 64.5592 321.982 64.6674C321.766 64.7755 327.17 72.7779 333.871 82.4023C340.68 92.0267 346.301 99.8127 346.409 99.7046Z" fill="#263238"/>
<path d="M295.501 61.4233C295.393 61.3151 288.692 68.1279 280.694 76.5628C272.696 85.1058 266.319 92.1349 266.427 92.243C266.535 92.3512 273.236 85.5384 281.234 77.1035C289.232 68.5605 295.609 61.5314 295.501 61.4233Z" fill="#263238"/>
<path d="M420.77 202.545C420.662 202.545 420.554 203.194 420.554 203.951C420.662 204.708 420.77 205.249 420.987 205.249C421.095 205.249 421.203 204.6 421.203 203.843C421.095 203.086 420.987 202.545 420.77 202.545Z" fill="#263238" stroke="black" stroke-width="0.5" stroke-miterlimit="10"/>
<path d="M420.554 191.515C420.446 191.515 420.23 192.705 420.23 194.219C420.23 195.732 420.338 196.922 420.554 196.922C420.662 196.922 420.879 195.732 420.879 194.219C420.77 192.705 420.662 191.515 420.554 191.515Z" fill="#263238" stroke="black" stroke-width="0.5" stroke-miterlimit="10"/>
<path d="M421.311 180.485C421.203 180.485 420.879 181.674 420.771 183.188C420.662 184.702 420.662 185.892 420.771 186C420.879 186 421.203 184.81 421.311 183.296C421.419 181.782 421.419 180.593 421.311 180.485Z" fill="#263238" stroke="black" stroke-width="0.5" stroke-miterlimit="10"/>
<path d="M423.148 169.671C423.04 169.671 422.608 170.86 422.392 172.266C422.067 173.78 421.959 174.97 422.175 174.97C422.284 174.97 422.716 173.78 422.932 172.374C423.148 170.969 423.256 169.671 423.148 169.671Z" fill="#263238" stroke="black" stroke-width="0.5" stroke-miterlimit="10"/>
<path d="M426.066 159.073C425.958 159.073 425.418 160.155 424.986 161.669C424.553 163.074 424.229 164.372 424.445 164.372C424.553 164.372 425.094 163.291 425.526 161.777C425.958 160.371 426.283 159.181 426.066 159.073Z" fill="#263238" stroke="black" stroke-width="0.5" stroke-miterlimit="10"/>
<path d="M430.282 148.908C430.174 148.8 429.525 149.881 428.877 151.287C428.228 152.693 427.904 153.883 428.012 153.883C428.12 153.991 428.769 152.909 429.417 151.503C430.066 150.206 430.39 149.016 430.282 148.908Z" fill="#263238" stroke="black" stroke-width="0.5" stroke-miterlimit="10"/>
<path d="M435.794 139.392C435.686 139.284 434.93 140.257 434.065 141.555C433.308 142.852 432.768 144.042 432.876 144.042C432.984 144.15 433.741 143.177 434.497 141.771C435.362 140.581 435.902 139.5 435.794 139.392Z" fill="#263238" stroke="black" stroke-width="0.5" stroke-miterlimit="10"/>
<path d="M442.495 130.741C442.387 130.632 441.523 131.498 440.55 132.687C439.577 133.877 438.929 134.85 439.037 134.958C439.145 135.066 440.009 134.201 440.982 133.012C441.955 131.822 442.603 130.849 442.495 130.741Z" fill="#263238" stroke="black" stroke-width="0.5" stroke-miterlimit="10"/>
<path d="M450.385 123.063C450.277 122.955 449.305 123.712 448.116 124.685C447.035 125.658 446.17 126.631 446.278 126.739C446.386 126.848 447.359 126.091 448.548 125.117C449.629 124.144 450.493 123.171 450.385 123.063Z" fill="#263238" stroke="black" stroke-width="0.5" stroke-miterlimit="10"/>
<path d="M459.356 116.574C459.248 116.466 458.168 117.007 456.871 117.872C455.574 118.737 454.601 119.494 454.709 119.602C454.817 119.71 455.898 119.17 457.195 118.305C458.384 117.548 459.356 116.791 459.356 116.574Z" fill="#263238" stroke="black" stroke-width="0.5" stroke-miterlimit="10"/>
<path d="M469.084 111.6C468.976 111.492 467.895 111.816 466.49 112.465C465.085 113.114 464.004 113.763 464.112 113.871C464.22 113.979 465.301 113.655 466.706 113.006C468.111 112.357 469.192 111.816 469.084 111.6Z" fill="#263238" stroke="black" stroke-width="0.5" stroke-miterlimit="10"/>
<path d="M479.568 108.356C479.568 108.248 478.271 108.356 476.866 108.788C475.353 109.221 474.272 109.653 474.272 109.762C474.272 109.87 475.569 109.762 476.974 109.329C478.487 108.896 479.568 108.464 479.568 108.356Z" fill="#263238" stroke="black" stroke-width="0.5" stroke-miterlimit="10"/>
<path d="M490.484 106.95C490.484 106.842 489.187 106.734 487.674 106.842C486.161 106.95 484.972 107.274 484.972 107.382C484.972 107.491 486.269 107.491 487.782 107.382C489.296 107.274 490.484 107.058 490.484 106.95Z" fill="#263238" stroke="black" stroke-width="0.5" stroke-miterlimit="10"/>
<path d="M501.401 107.707C501.401 107.599 500.212 107.274 498.699 107.058C497.186 106.842 495.997 106.842 495.889 107.058C495.889 107.166 497.078 107.491 498.591 107.707C500.212 107.815 501.401 107.815 501.401 107.707Z" fill="#263238" stroke="black" stroke-width="0.5" stroke-miterlimit="10"/>
<path d="M511.993 110.519C512.101 110.41 510.912 109.87 509.507 109.437C508.102 109.005 506.805 108.68 506.805 108.896C506.805 109.005 507.886 109.545 509.291 109.978C510.804 110.41 511.993 110.627 511.993 110.519Z" fill="#263238" stroke="black" stroke-width="0.5" stroke-miterlimit="10"/>
<path d="M521.937 115.277C522.045 115.169 520.964 114.412 519.667 113.763C518.37 113.006 517.181 112.573 517.073 112.681C516.965 112.789 518.046 113.546 519.343 114.195C520.748 114.952 521.829 115.385 521.937 115.277Z" fill="#263238" stroke="black" stroke-width="0.5" stroke-miterlimit="10"/>
<path d="M530.692 121.873C530.8 121.765 529.935 120.9 528.746 119.927C527.557 118.953 526.584 118.305 526.476 118.413C526.368 118.521 527.233 119.386 528.422 120.359C529.611 121.333 530.584 121.981 530.692 121.873Z" fill="#263238" stroke="black" stroke-width="0.5" stroke-miterlimit="10"/>
<path d="M537.934 130.2C538.042 130.092 537.501 129.01 536.529 127.821C535.556 126.631 534.691 125.766 534.583 125.874C534.475 125.982 535.232 126.956 536.096 128.145C536.961 129.335 537.826 130.308 537.934 130.2Z" fill="#263238" stroke="black" stroke-width="0.5" stroke-miterlimit="10"/>
<path d="M541.933 137.337C542.041 137.229 541.933 136.688 541.608 136.039C541.284 135.391 540.852 134.85 540.744 134.958C540.636 135.066 540.744 135.607 541.068 136.256C541.392 136.905 541.825 137.337 541.933 137.337Z" fill="#263238" stroke="black" stroke-width="0.5" stroke-miterlimit="10"/>
<path d="M576.303 142.528C576.303 142.42 575.763 142.203 575.006 142.095C574.25 141.987 573.709 142.095 573.601 142.203C573.601 142.311 574.142 142.528 574.898 142.636C575.655 142.744 576.303 142.636 576.303 142.528Z" fill="#263238" stroke="black" stroke-width="0.5" stroke-miterlimit="10"/>
<path d="M587.003 141.338C587.003 141.23 585.815 141.446 584.301 141.771C582.896 142.095 581.708 142.311 581.708 142.528C581.708 142.636 583.004 142.636 584.41 142.42C585.923 141.987 587.003 141.446 587.003 141.338Z" fill="#263238" stroke="black" stroke-width="0.5" stroke-miterlimit="10"/>
<path d="M596.623 136.472C596.515 136.364 595.434 136.905 594.245 137.662C592.948 138.419 591.976 139.067 591.976 139.175C592.084 139.284 593.165 138.851 594.462 138.094C595.867 137.445 596.731 136.688 596.623 136.472Z" fill="#263238" stroke="black" stroke-width="0.5" stroke-miterlimit="10"/>
<path d="M604.729 129.335C604.621 129.227 603.756 130.092 602.676 131.065C601.595 132.146 600.838 133.011 600.946 133.12C601.054 133.228 602.027 132.471 603.108 131.498C604.081 130.416 604.837 129.443 604.729 129.335Z" fill="#263238" stroke="black" stroke-width="0.5" stroke-miterlimit="10"/>
<path d="M611.106 120.575C610.998 120.467 610.241 121.441 609.377 122.738C608.512 124.036 607.972 125.117 608.08 125.117C608.188 125.225 608.944 124.252 609.809 122.955C610.674 121.657 611.214 120.575 611.106 120.575Z" fill="#263238" stroke="black" stroke-width="0.5" stroke-miterlimit="10"/>
<path d="M615.754 110.735C615.646 110.735 614.997 111.708 614.457 113.114C613.917 114.52 613.484 115.601 613.7 115.709C613.808 115.817 614.457 114.736 614.997 113.33C615.538 112.033 615.862 110.843 615.754 110.735Z" fill="#263238" stroke="black" stroke-width="0.5" stroke-miterlimit="10"/>
<path d="M618.888 100.353C618.78 100.353 618.348 101.435 617.916 102.949C617.483 104.355 617.375 105.544 617.483 105.652C617.591 105.652 618.024 104.571 618.456 103.057C618.78 101.651 618.997 100.462 618.888 100.353Z" fill="#263238" stroke="black" stroke-width="0.5" stroke-miterlimit="10"/>
<path d="M620.726 89.7557C620.617 89.7557 620.293 90.9453 620.077 92.3511C619.861 93.865 619.753 95.0546 619.969 95.0546C620.077 95.0546 620.401 93.865 620.617 92.4592C620.834 90.9453 620.834 89.7557 620.726 89.7557Z" fill="#263238" stroke="black" stroke-width="0.5" stroke-miterlimit="10"/>
<path d="M621.807 78.9418C621.699 78.9418 621.374 80.1313 621.266 81.6453C621.158 83.1592 621.158 84.3487 621.374 84.3487C621.483 84.3487 621.699 83.1592 621.915 81.6453C621.915 80.1313 621.915 78.9418 621.807 78.9418Z" fill="#263238" stroke="black" stroke-width="0.5" stroke-miterlimit="10"/>
<path d="M622.239 70.8313C622.131 70.8313 621.915 71.372 621.915 72.129C621.915 72.8859 622.023 73.5348 622.131 73.5348C622.239 73.5348 622.455 72.9941 622.455 72.2371C622.455 71.4801 622.347 70.8313 622.239 70.8313Z" fill="#263238" stroke="black" stroke-width="0.5" stroke-miterlimit="10"/>
<path d="M588 1.10268L585.146 61.7023L674.972 65.9384L677.827 5.33882L588 1.10268Z" fill="#2BA24C"/>
<path d="M585.166 61.7476L587.976 1.18945L677.902 5.40689L675.092 65.965L585.166 61.7476ZM588.084 1.18945L585.274 61.7476L675.092 65.965L677.902 5.40689L588.084 1.18945Z" fill="#263238"/>
<path d="M587.76 1.83826C587.76 1.83826 587.976 2.16268 588.516 2.70337C589.165 3.24407 589.921 4.00105 590.894 4.9743C593.056 7.02895 596.082 9.84058 599.865 13.4092C607.539 20.5464 618.023 30.1708 629.588 40.9848L629.804 41.201L630.129 40.9848C630.345 40.8766 630.561 40.6603 630.777 40.5522C643.747 31.1441 655.42 22.601 663.959 16.329C668.174 13.1929 671.525 10.7057 674.011 8.86733C675.091 8.00221 676.064 7.35337 676.713 6.81267C677.361 6.38012 677.686 6.0557 677.577 6.0557C677.577 6.0557 677.253 6.27198 676.605 6.70454C675.956 7.13709 674.983 7.78593 673.795 8.65105C671.309 10.3813 667.85 12.8685 663.635 15.8964C654.988 22.0603 643.315 30.6034 630.237 39.9034C630.021 40.1196 629.804 40.2278 629.588 40.3359H630.129C618.456 29.6301 607.863 20.0057 600.189 12.9766C596.406 9.51616 593.272 6.81267 591.11 4.75802C590.03 3.89291 589.273 3.13593 588.624 2.59523C588.084 2.05454 587.76 1.83826 587.76 1.83826Z" fill="#263238"/>
<path d="M674.767 66.722C674.983 66.6139 668.606 57.9627 660.5 47.4732C652.502 36.9837 645.801 28.5488 645.584 28.6569C645.368 28.7651 651.745 37.4162 659.852 47.9058C667.85 58.3953 674.551 66.8302 674.767 66.722Z" fill="#263238"/>
<path d="M615.754 26.4941C615.537 26.386 608.512 34.2802 599.973 44.229C591.435 54.1779 584.625 62.2883 584.841 62.5046C585.058 62.6127 592.083 54.7186 600.622 44.7697C609.16 34.8209 615.97 26.7104 615.754 26.4941Z" fill="#263238"/>
<path d="M512.75 273.377C512.533 272.187 513.398 270.998 514.587 270.673L516.965 270.889L525.611 267.862C527.233 267.429 528.854 268.619 528.854 270.241C528.854 272.728 529.935 279.432 531.88 277.378L531.988 277.27C534.799 274.134 538.149 272.62 539.338 272.728C540.527 272.944 540.851 274.458 539.987 275.323C539.879 275.431 539.662 275.648 539.446 275.648C539.338 275.648 539.23 275.756 539.122 275.756C538.041 276.405 536.744 277.702 535.879 278.676C535.015 279.649 534.258 280.73 533.718 281.92C533.177 283.217 532.637 284.407 532.313 285.38L532.205 293.274L535.663 330.366C535.663 330.366 558.469 306.359 557.929 306.143L556.632 343.451L542.797 354.914C536.96 359.78 528.53 360.213 522.153 356.103C517.181 352.859 514.155 347.236 514.263 341.288L515.019 293.382L514.479 287.11L512.75 273.377Z" fill="#FFBE9D"/>
<path d="M640.829 326.041L665.796 383.138L685.576 424.339L700.275 429.314C700.275 429.314 711.84 432.666 711.84 435.045C711.84 437.424 708.814 436.884 708.814 436.884C708.273 440.452 703.302 438.398 699.843 436.776C696.384 435.153 688.602 434.829 688.602 434.829C690.764 436.451 690.007 439.046 688.818 439.912C687.629 440.777 685.468 439.695 683.955 438.181C682.549 436.667 678.767 435.91 674.659 434.396C670.552 432.883 669.796 427.367 669.796 427.367L619.861 343.127L640.829 326.041Z" fill="#FFBE9D"/>
<path d="M557.928 346.803L551.66 355.13L538.041 324.959C538.041 324.959 551.227 308.846 556.091 302.034C560.847 295.329 564.522 294.14 564.522 294.14C564.522 294.14 573.276 291.544 577.708 291.652L599.433 292.95L621.482 302.574C626.886 304.953 631.534 308.847 634.776 313.713L655.528 347.02L626.129 359.564L616.294 415.905C614.456 424.339 612.727 432.342 604.945 436.235L550.363 383.895L556.74 373.838L557.928 346.803Z" fill="#4285F4"/>
<path d="M610.025 336.53C609.917 336.638 613.267 341.829 617.483 348.209C621.698 354.59 625.265 359.672 625.481 359.564C625.589 359.456 622.238 354.265 618.023 347.885C613.7 341.505 610.133 336.422 610.025 336.53Z" fill="#263238"/>
<path d="M564.414 389.951C564.414 389.951 564.954 390.275 565.819 390.816C566.791 391.357 568.197 392.114 569.818 392.979C573.276 394.709 578.032 397.196 583.436 399.684C588.732 402.171 593.704 404.334 597.271 405.848C599 406.605 600.514 407.253 601.486 407.578C602.459 408.01 603.108 408.227 603.108 408.119C603.108 408.119 602.567 407.794 601.594 407.362C600.514 406.821 599.109 406.172 597.379 405.415C593.812 403.793 588.949 401.63 583.653 399.035C578.356 396.548 573.493 394.168 570.034 392.438C568.413 391.681 567.008 390.924 565.927 390.492C564.954 390.167 564.414 389.951 564.414 389.951Z" fill="#263238"/>
<path d="M611.754 324.31C611.862 324.31 612.511 323.445 613.7 321.931C614.889 320.417 616.402 318.363 618.564 316.416C620.725 314.47 622.995 313.28 624.833 312.739C626.67 312.199 627.859 312.199 627.751 312.091C627.751 312.091 627.427 311.982 626.886 311.982C626.346 311.982 625.589 312.091 624.616 312.307C622.779 312.739 620.293 313.929 618.131 315.984C615.97 317.93 614.456 320.093 613.376 321.715C612.295 323.229 611.646 324.31 611.754 324.31Z" fill="#263238"/>
<g opacity="0.3">
<path opacity="0.3" d="M622.13 381.408C622.239 380.867 615.105 344.208 615.105 344.208L625.805 360.213" fill="black"/>
</g>
<path d="M559.334 311.658C559.334 311.658 559.334 311.874 559.226 312.307C559.226 312.739 559.118 313.388 559.118 314.145C559.009 315.767 558.901 318.038 558.793 320.85C558.469 326.581 558.145 334.259 557.712 342.802C557.28 351.345 556.956 359.131 556.848 364.754C556.74 367.566 556.74 369.837 556.74 371.459C556.74 372.216 556.74 372.757 556.74 373.298C556.74 373.73 556.74 373.946 556.74 373.946C556.74 373.946 556.74 373.73 556.848 373.298C556.848 372.865 556.956 372.216 556.956 371.459C557.064 369.837 557.172 367.566 557.28 364.754C557.604 359.023 557.929 351.345 558.361 342.802C558.793 334.259 559.118 326.473 559.226 320.85C559.334 318.038 559.334 315.767 559.334 314.145C559.334 313.388 559.334 312.847 559.334 312.307C559.334 311.874 559.334 311.658 559.334 311.658Z" fill="#263238"/>
<g opacity="0.2">
<path opacity="0.2" d="M559.118 318.146L553.065 353.292L557.821 347.02L559.118 318.146Z" fill="black"/>
</g>
<path d="M481.189 421.636C481.189 421.636 485.729 442.182 495.132 449.536C504.535 456.998 508.318 450.077 508.318 450.077C508.318 450.077 510.048 432.342 494.592 412.12C479.136 391.898 481.189 421.636 481.189 421.636Z" fill="#4285F4"/>
<path d="M456.979 358.158C455.898 366.268 458.6 375.352 461.518 383.03L480.649 427.908L501.725 424.664C501.725 424.664 506.157 429.53 511.777 431.477C514.263 432.342 522.585 433.964 529.395 428.989C529.395 428.989 539.014 442.399 554.254 446.508C569.494 450.617 592.408 452.78 603.54 435.045L550.579 384.003C549.498 384.22 504.968 354.157 480.865 347.344C480.865 347.236 459.032 343.235 456.979 358.158Z" fill="#263238"/>
<path d="M503.346 424.448C503.346 424.448 503.238 424.34 503.022 424.231C502.806 424.123 502.482 424.015 502.158 423.799C501.401 423.366 500.32 422.826 498.807 422.069C497.402 421.312 495.672 420.23 493.727 418.933C491.89 417.635 489.836 415.905 487.999 413.634C486.161 411.363 484.864 408.443 484.324 405.091C483.783 401.738 483.999 398.062 484.756 394.277C485.621 390.6 487.35 386.707 490.593 384.112C493.835 381.516 498.158 380.219 502.482 379.894C504.643 379.678 506.913 379.786 509.075 380.002C511.237 380.219 513.29 380.651 515.344 381.084C519.451 382.057 523.234 383.463 526.693 384.977C533.718 388.113 539.879 391.357 545.283 393.736C550.687 396.115 555.227 397.521 558.361 398.17C559.118 398.386 559.874 398.494 560.523 398.602C561.171 398.71 561.712 398.819 562.144 398.819C562.576 398.819 562.901 398.927 563.117 398.927C563.333 398.927 563.441 398.927 563.441 398.927C563.441 398.927 563.333 398.927 563.117 398.819C562.901 398.819 562.576 398.71 562.144 398.71C561.712 398.602 561.171 398.602 560.631 398.494C559.982 398.386 559.334 398.278 558.469 398.062C555.335 397.305 550.795 395.899 545.499 393.52C540.203 391.141 534.042 387.788 527.017 384.652C523.45 383.138 519.667 381.624 515.56 380.651C513.506 380.11 511.345 379.786 509.183 379.57C507.021 379.354 504.752 379.354 502.59 379.462C498.158 379.786 493.727 381.192 490.376 383.787C488.755 385.085 487.35 386.815 486.377 388.654C485.405 390.492 484.756 392.438 484.324 394.277C483.459 398.062 483.351 401.847 483.891 405.307C484.432 408.767 485.837 411.795 487.782 414.066C489.62 416.337 491.673 418.067 493.619 419.365C495.564 420.663 497.294 421.636 498.699 422.393C500.104 423.15 501.293 423.691 502.049 424.123C502.374 424.34 502.698 424.448 502.914 424.556C503.238 424.448 503.346 424.448 503.346 424.448Z" fill="#455A64"/>
<path d="M490.052 365.512C489.944 365.62 491.89 368.864 494.484 372.757C497.078 376.65 499.239 379.786 499.347 379.678C499.455 379.57 497.51 376.326 494.916 372.433C492.43 368.54 490.268 365.403 490.052 365.512Z" fill="#455A64"/>
<path d="M505.292 420.879C505.292 420.987 506.805 421.312 509.183 421.852C511.561 422.393 514.803 423.366 518.37 424.556C521.937 425.745 524.963 427.151 527.233 428.124C529.503 429.098 530.8 429.855 530.8 429.746C530.8 429.746 530.476 429.53 529.935 429.206C529.395 428.881 528.422 428.341 527.341 427.8C525.179 426.719 522.045 425.313 518.478 424.015C514.911 422.826 511.669 421.96 509.291 421.42C508.102 421.203 507.129 420.987 506.481 420.879C505.724 420.879 505.292 420.879 505.292 420.879Z" fill="#455A64"/>
<path d="M480.973 424.88C481.081 424.88 481.297 423.907 482.27 422.609C483.135 421.312 484.756 419.689 487.134 418.932C489.404 418.176 491.673 418.5 493.187 419.041C494.7 419.581 495.456 420.23 495.564 420.122C495.564 420.122 495.456 419.906 495.024 419.581C494.7 419.257 494.051 418.933 493.295 418.608C491.782 417.959 489.404 417.527 486.918 418.284C484.432 419.041 482.811 420.879 481.946 422.285C481.514 423.042 481.297 423.583 481.189 424.123C480.973 424.664 480.973 424.88 480.973 424.88Z" fill="#455A64"/>
<path d="M536.204 244.503C536.204 244.503 529.178 242.341 519.775 231.851C510.372 221.362 506.589 208.06 505.4 208.06C504.211 208.06 498.915 205.141 487.026 226.769C475.136 248.396 478.703 253.912 480.757 254.02C482.81 254.128 496.969 251.316 505.616 252.938C514.263 254.56 525.071 259.967 525.071 259.967L536.204 244.503Z" fill="#455A64"/>
<path d="M539.555 262.346L535.447 272.403L532.961 271.971L518.046 286.353L512.858 277.918C512.858 277.918 522.045 273.052 523.45 269.592C524.963 266.023 522.802 265.482 522.802 265.482L526.801 260.075L539.555 262.346Z" fill="#263238"/>
<path d="M487.674 227.309C481.298 238.988 478.271 249.694 480.757 251.1C483.351 252.506 490.593 244.179 496.97 232.392C503.347 220.713 506.373 210.007 503.887 208.601C501.293 207.195 494.051 215.522 487.674 227.309Z" fill="#263238"/>
<path d="M548.742 263.103L544.634 261.481L547.661 256.723L550.579 258.886L548.742 263.103Z" fill="#455A64"/>
<path d="M550.255 258.345L547.336 263.103L548.093 263.428L550.579 258.67L550.255 258.345Z" fill="#455A64"/>
<path d="M499.023 225.363C499.023 225.363 493.078 221.037 488.971 229.256C484.972 237.474 491.349 239.313 491.349 239.313C494.484 235.312 496.97 230.77 499.023 225.363Z" fill="#455A64"/>
<path d="M506.481 215.847C506.481 215.847 506.373 216.387 506.157 217.469C505.832 218.442 505.508 219.956 504.968 221.794C504.644 222.659 504.319 223.633 503.887 224.714C503.671 225.255 503.455 225.795 503.238 226.336C503.13 226.661 503.022 226.877 502.914 227.201C502.806 227.526 502.698 227.742 502.482 228.066C501.941 229.148 501.401 230.337 500.752 231.635C500.644 231.959 500.428 232.284 500.32 232.608C500.212 232.933 499.996 233.257 499.78 233.473C499.455 234.122 499.023 234.663 498.699 235.312C498.375 235.961 497.942 236.501 497.618 237.15C497.402 237.474 497.294 237.799 497.078 238.015C496.861 238.34 496.645 238.556 496.537 238.88C495.781 239.962 495.024 241.043 494.267 242.124C494.051 242.341 493.943 242.665 493.727 242.881C493.511 243.098 493.295 243.314 493.187 243.53C492.862 243.963 492.43 244.395 492.106 244.828C491.349 245.693 490.701 246.45 490.16 247.207C488.863 248.613 487.782 249.586 487.026 250.343C486.269 251.1 485.837 251.424 485.837 251.424C485.837 251.424 486.161 250.992 486.918 250.127C487.674 249.37 488.647 248.18 489.944 246.883C490.485 246.126 491.133 245.369 491.89 244.504C492.214 244.071 492.538 243.638 492.97 243.206C493.187 242.99 493.295 242.773 493.511 242.557C493.727 242.341 493.835 242.016 494.051 241.8C494.7 240.827 495.456 239.745 496.213 238.556C496.429 238.231 496.645 238.015 496.753 237.691C496.97 237.366 497.078 237.15 497.294 236.826C497.618 236.177 498.05 235.636 498.375 234.987C498.699 234.338 499.131 233.798 499.455 233.149C499.672 232.824 499.78 232.608 499.996 232.284C500.104 231.959 500.32 231.635 500.428 231.419C500.969 230.229 501.617 229.04 502.158 227.958C502.266 227.634 502.482 227.417 502.59 227.093C502.698 226.769 502.806 226.552 502.914 226.228C503.13 225.687 503.346 225.147 503.563 224.606C503.995 223.633 504.319 222.659 504.752 221.794C505.292 220.064 505.832 218.55 506.157 217.577C506.265 216.387 506.373 215.847 506.481 215.847Z" fill="#263238"/>
<path d="M522.477 265.05C521.504 265.374 520.964 266.348 521.18 267.321C521.612 269.159 522.369 272.079 523.018 273.809C523.234 274.35 523.45 274.999 523.774 275.431C524.206 275.864 524.747 276.188 525.395 276.08C526.044 275.972 526.476 275.323 526.584 274.674C526.692 274.026 526.584 273.377 526.476 272.836C526.044 271.106 525.395 268.51 524.747 266.456C524.531 265.266 523.45 264.726 522.477 265.05Z" fill="#FFBE9D"/>
<path d="M519.559 268.078C518.586 268.402 518.045 269.376 518.262 270.349C518.694 272.187 519.451 275.107 520.099 276.837C520.315 277.378 520.531 278.027 520.856 278.459C521.288 278.892 521.828 279.216 522.477 279.108C523.125 279 523.558 278.351 523.666 277.702C523.774 277.054 523.666 276.405 523.558 275.864C523.125 274.134 522.477 271.538 521.828 269.484C521.612 268.294 520.531 267.754 519.559 268.078Z" fill="#FFBE9D"/>
<path d="M516.749 269.808C515.884 270.024 515.452 270.89 515.668 271.755C516.1 273.377 516.749 275.864 517.289 277.378C517.505 277.919 517.613 278.351 517.938 278.784C518.262 279.216 518.802 279.433 519.343 279.324C519.883 279.216 520.207 278.676 520.316 278.135C520.424 277.594 520.316 277.053 520.207 276.513C519.883 274.999 519.235 272.836 518.802 270.998C518.478 270.024 517.613 269.592 516.749 269.808Z" fill="#FFBE9D"/>
<path d="M513.506 270.133C512.641 270.349 512.209 271.214 512.425 272.079C512.858 273.701 513.506 276.188 514.046 277.702C514.263 278.243 514.371 278.676 514.803 279.108C515.235 279.541 515.668 279.757 516.208 279.649C516.749 279.541 517.073 279 517.181 278.459C517.289 277.919 517.181 277.378 517.073 276.837C516.749 275.323 516.1 273.052 515.56 271.322C515.343 270.457 514.371 269.916 513.506 270.133Z" fill="#FFBE9D"/>
<path d="M523.558 275.431C523.666 275.431 523.341 273.809 522.801 271.971C522.261 270.133 521.612 268.619 521.504 268.727C521.396 268.727 521.72 270.349 522.261 272.187C522.801 273.917 523.341 275.431 523.558 275.431Z" fill="#EB996E"/>
<path d="M517.397 277.81C517.505 277.702 517.073 276.188 516.533 274.35C515.992 272.512 515.56 270.998 515.344 270.998C515.236 270.998 515.344 272.62 515.992 274.566C516.641 276.405 517.289 277.919 517.397 277.81Z" fill="#EB996E"/>
<path d="M520.424 277.486C520.532 277.378 520.099 275.864 519.559 274.026C519.019 272.187 518.586 270.673 518.37 270.673C518.262 270.673 518.37 272.295 519.019 274.242C519.667 276.08 520.315 277.486 520.424 277.486Z" fill="#EB996E"/>
<path d="M611.43 257.264L604.081 299.006C602.784 306.251 595.974 311.117 588.624 310.144C580.951 309.063 575.654 302.034 576.951 294.572L578.14 287.435C578.14 287.435 567.872 284.623 568.953 274.35C569.494 269.376 571.331 259.21 573.168 250.019C575.222 239.745 585.166 232.933 595.65 234.663C606.566 236.393 613.7 246.666 611.43 257.264Z" fill="#FFBE9D"/>
<path d="M578.141 287.327C578.141 287.327 584.734 288.624 592.192 285.056C592.192 285.056 588.084 292.085 577.816 290.03L578.141 287.327Z" fill="#EB996E"/>
<path d="M575.006 258.129C574.898 258.886 575.438 259.643 576.303 259.751C577.168 259.859 577.924 259.319 578.032 258.562C578.14 257.805 577.6 257.048 576.735 256.939C575.871 256.831 575.114 257.372 575.006 258.129Z" fill="#263238"/>
<path d="M574.682 255.642C574.898 255.858 576.087 255.209 577.708 255.317C579.329 255.534 580.41 256.399 580.626 256.291C580.734 256.182 580.626 255.858 580.086 255.425C579.654 254.993 578.789 254.56 577.816 254.452C576.843 254.344 575.979 254.56 575.438 254.885C574.79 255.209 574.574 255.534 574.682 255.642Z" fill="#263238"/>
<path d="M590.03 259.967C589.922 260.724 590.462 261.481 591.327 261.589C592.191 261.698 592.948 261.265 593.056 260.4C593.164 259.643 592.624 258.886 591.759 258.778C591.003 258.67 590.246 259.21 590.03 259.967Z" fill="#263238"/>
<path d="M590.138 257.696C590.354 257.913 591.543 257.264 593.164 257.372C594.785 257.588 595.866 258.453 596.082 258.345C596.19 258.237 596.082 257.913 595.542 257.48C595.11 257.048 594.245 256.615 593.272 256.507C592.3 256.399 591.435 256.615 590.894 256.939C590.246 257.264 590.03 257.588 590.138 257.696Z" fill="#263238"/>
<path d="M583.977 271.538C583.977 271.43 583.004 271.214 581.383 270.781C580.951 270.673 580.627 270.565 580.518 270.241C580.41 269.916 580.627 269.484 580.951 269.051C581.491 268.078 581.924 267.105 582.572 266.131C584.734 261.914 586.355 258.453 586.247 258.345C586.031 258.237 584.193 261.59 581.924 265.807C581.383 266.888 580.843 267.862 580.41 268.727C580.194 269.159 579.87 269.7 579.978 270.241C580.086 270.565 580.302 270.781 580.627 270.889C580.843 270.998 581.059 270.998 581.275 271.106C582.896 271.43 583.977 271.646 583.977 271.538Z" fill="#263238"/>
<path d="M590.354 274.999C590.03 274.566 586.787 277.27 582.356 276.729C577.924 276.188 575.763 272.836 575.222 273.269C575.006 273.377 575.222 274.458 576.195 275.756C577.168 277.053 579.221 278.459 581.923 278.784C584.625 279.108 587.003 278.135 588.408 277.162C590.03 276.08 590.57 275.107 590.354 274.999Z" fill="#263238"/>
<path d="M610.673 261.806C610.673 261.806 601.811 257.372 602.351 247.315C602.351 247.315 572.736 251.533 567.548 238.988C567.548 238.988 565.062 235.528 565.062 231.202C565.062 231.202 566.791 237.366 570.899 237.583C570.899 237.583 568.629 235.96 568.629 234.122C568.629 233.798 568.737 233.473 568.845 233.257C569.926 230.986 568.737 233.581 568.737 233.581C568.737 233.581 575.87 240.719 574.898 238.34C573.925 235.96 571.871 230.013 571.871 230.013C571.871 230.013 574.681 236.177 576.411 235.203C578.14 234.122 596.623 219.199 609.809 236.177C609.809 236.177 626.886 233.365 613.808 266.023C600.838 298.465 610.673 261.806 610.673 261.806Z" fill="#263238"/>
<path d="M607.431 261.698C607.648 261.59 614.889 260.4 613.808 267.429C612.728 274.458 605.81 271.971 605.81 271.755C605.81 271.538 607.431 261.698 607.431 261.698Z" fill="#FFBE9D"/>
<path d="M608.404 269.376C608.404 269.376 608.512 269.484 608.728 269.592C608.944 269.7 609.268 269.808 609.701 269.7C610.457 269.484 611.322 268.402 611.538 267.213C611.646 266.564 611.646 265.915 611.43 265.374C611.322 264.834 610.998 264.401 610.674 264.293C610.349 264.185 610.025 264.293 609.917 264.509C609.809 264.726 609.809 264.834 609.809 264.834C609.809 264.834 609.701 264.726 609.809 264.401C609.809 264.293 609.917 264.077 610.133 263.969C610.349 263.86 610.565 263.86 610.89 263.86C611.43 263.969 611.863 264.509 611.971 265.158C612.187 265.807 612.187 266.456 612.079 267.213C611.862 268.619 610.89 269.808 609.809 270.024C609.268 270.133 608.944 269.916 608.728 269.7C608.404 269.592 608.296 269.376 608.404 269.376Z" fill="#EB996E"/>
<path d="M524.963 259.859L542.581 267.753L552.309 250.559L535.772 244.395" fill="#455A64"/>
<path d="M468.543 203.41L487.674 220.172L472.218 201.356L468.543 203.41Z" fill="#4285F4"/>
<path d="M456.546 217.144L454.493 220.605L480 225.795" fill="#4285F4"/>
<path d="M454.168 232.284L453.195 236.177L479.244 234.663" fill="#4285F4"/>
<path d="M184.522 157.062H185.992V152.782L188.122 156.662L190.242 152.782V157.062H191.722V150.192H190.242L188.122 154.072L185.992 150.192H184.522V157.062ZM195.534 155.892C194.924 155.892 194.474 155.512 194.304 154.952H198.034C198.034 153.002 197.084 151.772 195.464 151.772C193.954 151.772 192.804 152.902 192.804 154.462C192.804 156.052 194.004 157.183 195.544 157.183C196.304 157.183 197.194 156.862 197.654 156.382L196.724 155.432C196.444 155.702 195.944 155.892 195.534 155.892ZM195.524 153.062C196.114 153.062 196.494 153.392 196.634 153.902H194.324C194.514 153.382 194.974 153.062 195.524 153.062ZM200.481 152.852V151.892H199.021V157.062H200.481V154.592C200.481 153.622 201.171 153.002 202.251 153.002V151.772C201.461 151.772 200.821 152.182 200.481 152.852ZM205.624 157.183C206.484 157.183 207.184 156.832 207.694 156.272L206.724 155.452C206.454 155.752 206.034 155.952 205.634 155.952C204.864 155.952 204.224 155.272 204.224 154.462C204.224 153.672 204.864 153.002 205.624 153.002C206.024 153.002 206.434 153.192 206.694 153.482L207.664 152.652C207.164 152.112 206.474 151.772 205.634 151.772C204.104 151.772 202.804 153.002 202.804 154.472C202.804 155.942 204.094 157.183 205.624 157.183ZM212.002 151.892V154.982L211.992 154.952C211.992 155.512 211.522 155.952 210.912 155.952C210.332 155.952 209.932 155.512 209.932 154.872V151.892H208.522V155.182C208.522 156.352 209.322 157.183 210.442 157.183C211.112 157.183 211.692 156.882 212.002 156.412V157.062H213.462V151.892H212.002ZM216.175 152.852V151.892H214.715V157.062H216.175V154.592C216.175 153.622 216.865 153.002 217.945 153.002V151.772C217.155 151.772 216.515 152.182 216.175 152.852ZM219.967 158.863C220.777 158.863 221.437 158.333 221.827 157.323L223.947 151.892H222.457L221.167 155.522L219.807 151.892H218.297L220.447 157.113L220.267 157.493C220.157 157.683 219.937 157.773 219.657 157.773C219.487 157.773 219.227 157.683 218.977 157.543L218.667 158.543C219.017 158.733 219.537 158.863 219.967 158.863ZM184.522 167.062H185.992V162.782L188.122 166.662L190.242 162.782V167.062H191.722V160.192H190.242L188.122 164.072L185.992 160.192H184.522V167.062ZM195.404 161.772C194.684 161.772 193.974 161.972 193.244 162.342L193.734 163.312C194.144 163.102 194.594 162.942 195.074 162.942C195.924 162.942 196.264 163.422 196.264 163.972V164.072C195.824 163.902 195.364 163.812 194.944 163.812C193.744 163.812 192.794 164.512 192.794 165.532C192.794 166.522 193.644 167.183 194.744 167.183C195.304 167.183 195.894 166.962 196.264 166.542V167.062H197.674V163.972C197.674 162.622 196.754 161.772 195.404 161.772ZM195.074 166.172C194.574 166.172 194.204 165.912 194.204 165.492C194.204 165.072 194.624 164.762 195.154 164.762C195.554 164.762 195.934 164.832 196.264 164.952V165.432C196.164 165.912 195.634 166.172 195.074 166.172ZM199.634 161.183C200.064 161.183 200.414 160.822 200.414 160.382C200.414 159.972 200.064 159.602 199.634 159.602C199.184 159.602 198.834 159.972 198.834 160.382C198.834 160.822 199.184 161.183 199.634 161.183ZM198.894 167.062H200.354V161.892H198.894V167.062ZM201.629 167.062H203.089V160.072H201.629V167.062ZM206.803 165.892C206.193 165.892 205.743 165.512 205.573 164.952H209.303C209.303 163.002 208.353 161.772 206.733 161.772C205.223 161.772 204.073 162.902 204.073 164.462C204.073 166.052 205.273 167.183 206.813 167.183C207.573 167.183 208.463 166.862 208.923 166.382L207.993 165.432C207.713 165.702 207.213 165.892 206.803 165.892ZM206.793 163.062C207.383 163.062 207.763 163.392 207.903 163.902H205.593C205.783 163.382 206.243 163.062 206.793 163.062ZM211.751 162.852V161.892H210.291V167.062H211.751V164.592C211.751 163.622 212.441 163.002 213.521 163.002V161.772C212.731 161.772 212.091 162.182 211.751 162.852Z" fill="black"/>
</g>
<defs>
<clipPath id="clip0">
<rect width="722" height="465" fill="white"/>
</clipPath>
</defs>
</svg>
