<svg width="852" height="644" viewBox="0 0 852 644" fill="none" xmlns="http://www.w3.org/2000/svg">
<path d="M115.002 634.814C115.002 634.814 116.89 635.186 120.287 634.627C121.985 634.441 124.25 633.881 126.703 632.949C129.157 632.017 131.799 630.712 134.441 628.661C135.762 627.543 136.895 626.238 137.65 624.374C138.404 622.509 138.404 620.645 138.593 618.594C138.593 616.544 138.593 614.493 138.971 612.442C139.348 610.392 140.103 608.154 141.235 606.29C143.5 602.375 147.275 598.46 148.596 593.054C149.917 587.647 148.973 581.868 148.029 576.089C147.086 570.31 146.142 563.971 148.407 558.005C150.483 552.04 154.635 546.447 156.9 539.736C158.976 532.838 158.032 525.567 158.409 518.296C158.598 514.568 159.353 511.026 160.863 507.67C162.373 504.314 164.637 500.959 166.336 497.417C169.544 490.146 170.11 481.757 171.054 473.74C171.431 469.639 171.998 465.537 172.375 461.436C172.752 457.335 173.13 453.047 174.451 449.132C175.583 445.03 177.282 441.115 178.98 437.2C179.735 435.15 180.679 433.099 181.245 431.048C181.623 428.811 181.623 426.574 181.811 424.337C182 419.863 181.811 415.388 181.245 410.914C180.679 406.44 179.924 402.152 179.358 397.678C179.358 397.491 179.358 397.119 179.358 396.932L179.169 396L178.414 396.373C174.262 398.424 170.677 401.593 168.034 405.135C165.203 408.677 163.316 412.778 161.618 416.88C158.409 425.269 157.277 433.845 155.767 442.234C154.257 450.437 152.181 458.64 147.841 465.537C145.765 468.893 143.123 472.062 140.858 475.418C138.593 478.774 136.706 482.502 136.14 486.417C135.007 494.62 139.537 501.704 138.782 508.975C138.404 512.517 137.083 515.873 135.196 519.042C133.498 522.211 131.422 525.008 129.346 527.804C127.458 530.601 125.571 533.583 124.25 536.753C122.929 539.922 122.174 543.091 121.985 546.447C121.608 552.972 122.552 559.124 121.985 564.903C121.608 570.683 119.532 576.089 117.267 580.75C115.002 585.597 112.36 589.885 110.096 593.986C108.963 596.037 108.02 598.087 107.265 600.138C106.321 602.189 105.944 604.239 105.566 606.29C105 610.205 105 613.934 105.566 617.289C106.51 623.814 108.963 628.661 111.228 631.271C111.794 632.017 112.36 632.39 112.738 632.949C113.115 633.509 113.681 633.695 114.059 634.068C114.625 634.627 115.002 634.814 115.002 634.814C115.002 634.627 113.304 633.881 111.228 631.085C109.152 628.475 106.699 623.628 105.944 617.103C105.566 613.934 105.566 610.205 106.132 606.29C106.51 604.426 106.887 602.375 107.831 600.324C108.586 598.274 109.718 596.223 110.851 594.172C113.115 590.071 115.757 585.783 118.022 580.936C120.476 576.089 122.552 570.683 122.929 564.717C123.495 558.751 122.552 552.599 122.929 546.261C123.118 543.091 123.873 539.922 125.194 536.939C126.515 533.956 128.402 530.973 130.289 528.177C132.177 525.381 134.252 522.398 136.14 519.229C138.027 516.059 139.537 512.517 139.726 508.789C140.669 501.145 136.14 493.874 137.272 486.417C137.838 482.689 139.726 479.147 141.802 475.977C144.066 472.622 146.52 469.452 148.784 465.91C153.125 458.826 155.201 450.437 156.9 442.234C158.598 433.845 159.542 425.269 162.75 417.253C164.26 413.338 166.336 409.423 168.978 405.881C171.62 402.525 175.017 399.542 178.98 397.491L178.037 396.932C178.037 397.119 178.037 397.491 178.037 397.678C178.792 402.339 179.547 406.626 180.113 411.101C180.679 415.575 180.868 419.863 180.679 424.151C180.49 426.388 180.49 428.625 180.113 430.676C179.735 432.726 178.792 434.777 178.037 436.641C176.338 440.743 174.451 444.658 173.319 448.759C171.998 452.86 171.62 457.148 171.243 461.25C170.865 465.351 170.299 469.452 169.922 473.554C168.978 481.57 168.412 489.773 165.203 496.857C163.505 500.399 161.429 503.569 159.73 507.111C158.032 510.653 157.277 514.568 157.088 518.296C156.711 525.754 157.654 533.024 155.767 539.549C153.691 546.074 149.539 551.667 147.463 557.819C145.199 564.158 146.142 570.683 147.086 576.462C148.029 582.241 148.973 587.834 147.841 593.054C146.708 598.274 143.123 602.002 140.669 606.104C139.537 608.154 138.593 610.392 138.216 612.629C137.838 614.866 137.838 616.917 137.838 618.967C137.838 621.018 137.65 622.882 137.083 624.56C136.517 626.238 135.385 627.543 134.064 628.661C131.61 630.712 128.779 632.017 126.515 632.949C124.061 633.881 121.985 634.441 120.287 634.627C118.588 635 117.267 635 116.324 635C115.569 634.814 115.002 634.814 115.002 634.814Z" fill="#263238"/>
<path d="M175.395 407.559C175.395 407.559 175.395 407.745 175.206 408.118C175.206 408.491 175.017 409.05 174.828 409.796C174.451 411.287 174.074 413.711 173.319 416.507C172.564 419.303 170.677 422.659 169.355 426.574C167.846 430.489 166.147 435.15 164.826 440.183C163.316 445.403 161.995 450.996 160.674 457.148C159.353 463.3 157.843 469.825 154.446 475.977C152.936 479.147 151.049 482.316 149.728 485.858C148.218 489.4 147.463 493.129 146.897 496.857C145.953 504.501 144.632 512.331 142.745 520.161C138.971 536.007 135.196 551.108 131.988 564.717C128.591 578.326 125.571 590.63 122.929 601.07C120.476 611.324 118.4 619.713 116.89 625.679C116.135 628.475 115.757 630.712 115.38 632.39C115.191 633.136 115.191 633.695 115.002 634.068C115.002 634.441 114.814 634.627 115.002 634.627C115.002 634.627 115.002 634.441 115.191 634.068C115.38 633.695 115.569 633.136 115.757 632.39C116.135 630.712 116.701 628.475 117.645 625.679C119.154 619.713 121.419 611.51 124.061 601.257C126.703 590.817 129.912 578.512 133.309 564.903C136.706 551.108 140.292 536.193 144.255 520.347C146.142 512.331 147.463 504.501 148.407 496.857C148.973 493.129 149.728 489.4 151.049 486.044C152.37 482.689 154.069 479.52 155.767 476.35C159.164 470.012 160.485 463.3 161.806 457.148C163.127 450.996 164.26 445.403 165.77 440.183C167.091 434.963 168.601 430.489 170.11 426.574C171.431 422.659 173.13 419.303 173.885 416.321C174.451 413.711 174.828 411.473 175.017 409.982C175.206 409.236 175.206 408.677 175.395 408.118C175.395 407.745 175.395 407.559 175.395 407.559Z" fill="#263238"/>
<path d="M104.598 593.886C106.346 587.567 101.879 581.248 97.0231 576.787C92.1676 572.326 86.341 568.238 83.8161 562.104C79.7374 552.254 85.1756 539.616 77.9894 531.438C73.9108 526.605 66.5304 525.119 62.8402 519.915C60.898 517.313 60.3153 513.967 59.5384 510.808C55.654 494.638 47.1083 479.398 35.0665 467.503C34.2897 482 37.7856 496.497 44.7776 509.321C47.6909 514.525 51.1869 519.357 52.158 525.119C53.7118 534.412 48.2736 544.076 50.7985 553.183C53.5176 563.591 65.9477 570.654 66.5304 581.433C67.1131 590.541 58.7615 598.532 59.5384 607.639C59.7327 611.542 61.6749 615.074 63.8113 618.419C71.1917 630.128 82.0681 638.12 98.5769 637.748L118.582 638.306L104.598 593.886Z" fill="#E8505B"/>
<path d="M104.598 593.886C106.346 587.567 101.879 581.248 97.0231 576.787C92.1676 572.326 86.341 568.238 83.8161 562.104C79.7374 552.254 85.1756 539.616 77.9894 531.438C73.9108 526.605 66.5304 525.119 62.8402 519.915C60.898 517.313 60.3153 513.967 59.5384 510.808C55.654 494.638 47.1083 479.398 35.0665 467.503C34.2897 482 37.7856 496.497 44.7776 509.321C47.6909 514.525 51.1869 519.357 52.158 525.119C53.7118 534.412 48.2736 544.076 50.7985 553.183C53.5176 563.591 65.9477 570.654 66.5304 581.433C67.1131 590.541 58.7615 598.532 59.5384 607.639C59.7327 611.542 61.6749 615.074 63.8113 618.419C71.1917 630.128 82.0681 638.12 98.5769 637.748L118.582 638.306L104.598 593.886Z" fill="black"/>
<path d="M120.229 638.678C132.631 631.058 136.148 608.569 130.78 594.815C125.412 581.248 116.342 568.795 114.862 554.298C113.751 543.147 117.268 531.624 114.677 520.658C111.16 505.975 96.7222 494.638 96.7222 479.398C96.7222 470.848 101.535 462.856 101.165 454.307C100.609 443.899 92.6501 435.721 87.6525 426.614C80.0635 412.675 79.5082 395.948 76.7318 380.336C74.1404 364.538 68.0322 347.81 53.9649 340.19C51.9288 353.572 48.5971 362.679 49.7076 380.893C50.0778 387.398 57.6668 399.851 58.7774 413.976C59.5178 422.525 59.888 431.075 60.4433 439.624C60.9986 447.988 61.5538 456.351 64.5154 464.157C66.7365 470.105 70.4385 475.495 72.2894 481.628C75.4361 493.151 71.364 505.604 74.1404 517.313C76.3616 527.163 83.2102 535.713 84.6909 545.749C86.727 559.874 77.6572 574.557 82.4698 588.124C84.876 594.815 90.2438 600.205 91.9097 607.082C93.2054 612.472 91.9097 618.048 93.0203 623.437C94.8712 632.173 111.345 638.678 120.044 638.12" fill="#F0B501"/>
<path d="M60.5094 353.572C60.5094 353.572 60.5094 353.758 60.5094 354.315C60.5094 354.873 60.7036 355.616 60.8978 356.546C61.2863 358.404 61.4805 361.378 62.2574 364.909C63.0342 368.626 64.9765 372.715 66.7244 377.733C68.4724 382.752 70.2204 388.513 71.58 394.832C73.1337 401.337 74.4933 408.4 75.8528 416.02C77.2124 423.64 78.7662 432.004 82.6506 439.996C84.5928 444.085 86.535 447.988 88.0888 452.262C89.6425 456.537 90.4194 461.184 91.0021 465.83C91.779 475.309 93.1385 485.159 95.0807 495.01C99.1594 514.711 103.238 533.668 106.734 550.767C110.424 567.866 113.92 583.292 116.834 596.116C119.747 608.94 122.077 619.348 123.631 626.783C124.408 630.314 125.185 633.102 125.573 635.146C125.768 636.076 125.962 636.819 126.156 637.377C126.35 637.934 126.35 638.12 126.35 638.12C126.35 638.12 126.35 637.934 126.35 637.377C126.156 636.819 126.156 636.076 125.962 635.146C125.573 633.102 124.991 630.314 124.214 626.783C122.66 619.534 120.524 608.94 117.805 596.116C115.086 583.106 111.784 567.68 108.094 550.581C104.598 533.482 100.713 514.525 96.6345 494.824C94.6923 484.973 93.3328 475.123 92.5559 465.644C91.9732 460.998 91.1963 456.165 89.6425 451.891C88.0888 447.616 85.9523 443.527 84.0101 439.624C79.9315 431.818 78.5719 423.64 77.0182 416.02C75.6586 408.4 74.2991 401.152 72.7453 394.832C71.1915 388.327 69.4435 382.566 67.6956 377.733C65.9476 372.715 64.0053 368.626 63.0342 365.095C62.2574 361.564 61.8689 358.59 61.4805 356.732C61.2863 355.802 61.092 355.059 61.092 354.501C60.5094 353.944 60.5094 353.572 60.5094 353.572Z" fill="#263238"/>
<path d="M753.58 21.5595C753.58 21.5595 752.47 21.5595 750.804 22.4888C749.138 23.2322 746.732 24.9049 745.251 28.0645C744.511 29.5514 744.14 31.41 744.14 33.4544C744.14 35.4988 744.696 37.5433 745.991 39.5877C746.547 40.517 747.287 41.4463 748.213 42.1897C749.138 42.9331 750.064 43.6766 751.174 44.0483C753.395 45.1634 756.172 45.3493 758.578 44.7917C761.169 44.2341 763.391 42.7473 765.056 40.8887C765.797 39.9594 766.537 38.8443 766.907 37.915C767.463 36.7998 767.648 35.6847 767.833 34.5695C768.203 32.3392 767.648 30.109 766.907 28.2504C766.167 26.3918 764.871 24.9049 763.576 23.7898C760.984 21.5595 758.023 21.0019 756.172 21.0019C754.506 21.1878 753.58 21.5595 753.58 21.5595C753.58 21.5595 754.691 21.3736 756.542 21.3736C758.393 21.3736 761.169 22.1171 763.576 24.1615C764.871 25.2767 765.982 26.5777 766.722 28.4362C767.463 30.2948 767.833 32.3392 767.463 34.3837C767.278 35.4988 767.092 36.614 766.537 37.5433C766.167 38.6584 765.427 39.5877 764.686 40.517C763.205 42.3756 760.984 43.6766 758.578 44.2341C756.172 44.7917 753.58 44.42 751.544 43.4907C750.434 43.119 749.508 42.3756 748.583 41.6321C747.657 40.8887 746.917 40.1453 746.362 39.216C745.251 37.3574 744.696 35.313 744.511 33.4544C744.326 31.5958 744.881 29.7372 745.436 28.2504C746.732 25.2767 748.953 23.4181 750.619 22.6746C752.47 21.9312 753.58 21.7454 753.58 21.5595Z" fill="#E0E0E0"/>
<path d="M744.14 9.10703C744.14 9.10703 744.14 8.92117 744.14 8.73531C744.14 8.3636 744.14 7.99188 744.14 7.43431C744.14 6.31916 744.14 4.64644 744.14 2.41615V2.60201C746.917 2.04443 750.433 1.301 754.876 0.185858L754.691 0C755.616 1.85858 756.542 3.90301 757.467 5.94745V6.1333H757.652C759.873 6.31916 762.28 6.69088 764.686 7.43431H764.871C766.352 5.94745 767.833 4.46058 769.498 2.78787H769.128C772.09 4.64644 775.051 6.69088 778.383 8.73531L778.198 8.3636C777.458 10.2222 776.717 12.4525 775.977 14.6828V14.8686L776.162 15.0545C777.643 16.7272 779.123 18.5858 780.234 20.8161V21.0019H780.419C782.455 21.0019 784.676 21.0019 787.083 21.0019L786.712 20.8161C787.453 24.1615 788.193 27.8787 789.119 31.5958L789.304 31.2241C787.453 32.1534 785.417 33.0827 783.381 34.012H783.196V34.1978C783.196 36.4281 782.64 38.8443 781.9 41.0745V41.2604L782.085 41.4463C783.566 42.9331 785.047 44.6058 786.712 46.0927V45.721C784.861 48.6947 782.825 51.8543 780.789 55.0139L781.16 54.828C779.123 54.0846 777.087 53.3412 774.866 52.5977H774.681L774.496 52.7836C772.83 54.2704 770.979 55.7573 768.758 56.8725C768.758 57.0583 768.943 56.5007 768.573 57.2442V57.43V57.6159V57.9876V58.731V60.4037C768.573 61.5189 768.573 62.634 768.573 63.7492L768.758 63.3775C765.241 64.1209 761.539 65.0502 758.022 65.7936L758.393 65.9795C757.467 63.935 756.542 61.8906 755.616 60.032V59.8462H755.431C753.025 59.8462 750.804 59.2886 748.583 58.731H748.397L748.212 58.9169C746.546 60.5896 745.066 62.0765 743.585 63.5633H743.955C740.808 61.5189 737.662 59.6603 734.7 57.6159L734.885 57.9876C735.626 55.9432 736.366 53.7129 737.107 51.6684V51.4826L736.921 51.2967C735.256 49.4381 733.96 47.5796 732.849 45.5351V45.3493H732.664C730.443 45.3493 728.222 45.3493 726.001 45.3493L726.186 45.5351C725.26 41.818 724.52 38.2867 723.78 34.7554L723.594 35.1271C725.631 34.1978 727.667 33.2685 729.518 32.3392H729.703V32.1534C729.888 29.5514 730.258 27.3211 730.813 25.0908V24.9049L730.628 24.7191C728.962 23.0464 727.481 21.5595 726.001 20.0726V20.2585C728.222 16.7272 730.258 13.5676 731.739 10.9656H731.554C733.96 11.8949 736.181 12.6383 737.847 13.1959C739.513 11.5232 741.179 10.5939 742.104 9.85046C742.659 9.47874 743.03 9.29288 743.215 9.10703C743.955 9.10703 744.14 9.10703 744.14 9.10703C744.14 9.10703 743.955 9.10703 743.77 9.29288C743.585 9.47874 743.03 9.6646 742.659 9.85046C741.549 10.408 740.068 11.5232 738.402 13.01H738.587C736.921 12.4525 734.885 11.709 732.294 10.7797H732.109V10.9656C730.443 13.5676 728.592 16.5413 726.186 20.2585V20.4443L726.371 20.6302C727.852 22.1171 729.332 23.6039 730.998 25.2766V25.0908C730.258 27.3211 729.888 29.5514 729.703 32.1534L729.888 31.9675C728.037 32.8968 726.001 33.8261 723.965 34.7554H723.78V34.9412C724.52 38.2867 725.26 41.818 726.186 45.721V45.9068H726.371C728.592 45.9068 730.628 45.9068 733.034 45.9068L732.849 45.721C733.96 47.7654 735.256 49.8099 736.921 51.6684V51.2967C736.181 53.3412 735.441 55.3856 734.7 57.6159V57.8017L734.885 57.9876C737.847 59.8462 740.994 61.8906 744.14 63.935L744.325 64.1209L744.51 63.935C745.991 62.4482 747.657 60.7755 749.138 59.2886H748.768C750.989 60.032 753.395 60.4037 755.801 60.5896L755.431 60.4037C756.357 62.4482 757.282 64.3068 758.208 66.3512L758.393 66.5371H758.578C762.095 65.7936 765.611 64.8643 769.313 64.1209H769.498V63.935C769.498 62.8199 769.498 61.7048 769.498 60.5896V58.9169V58.1735V57.8017V57.6159V57.43C769.128 57.9876 769.313 57.6159 769.313 57.8017C771.534 56.6866 773.571 55.1997 775.236 53.7129H774.866C777.087 54.4563 779.123 55.1997 781.16 55.9432H781.345L781.53 55.7573C783.566 52.5977 785.602 49.4381 787.453 46.4644L787.638 46.2786L787.453 46.0927C785.787 44.42 784.306 42.9331 782.825 41.4463V41.818C783.566 39.4018 783.936 36.9857 784.121 34.7554L783.936 34.9412C785.972 34.012 788.008 32.8968 789.859 32.1534L790.044 31.9675V31.7817C789.119 28.0645 788.378 24.3474 787.638 21.0019V20.8161H787.453C785.232 20.8161 782.825 20.8161 780.789 20.8161L780.974 21.0019C779.864 18.7716 778.383 16.7272 776.902 15.0545V15.4262C777.643 13.1959 778.383 11.1515 779.123 9.10703V8.92117L778.938 8.73531C775.607 6.69088 772.645 4.64644 769.684 2.97372L769.498 2.78787L769.313 2.97372C767.647 4.64644 766.167 6.1333 764.686 7.62016H764.871C762.465 6.87673 760.059 6.50502 757.837 6.31916L758.022 6.50502C756.912 4.27473 755.986 2.41615 755.246 0.557573V0.371715H755.061C750.804 1.301 747.102 2.23029 744.325 2.78787C744.325 4.8323 744.325 6.50502 744.325 7.62016C744.325 8.17774 744.325 8.54945 744.325 8.92117C744.14 8.92117 744.14 9.10703 744.14 9.10703Z" fill="#E0E0E0"/>
<path d="M753.58 21.5595C753.58 21.5595 752.47 21.5595 750.804 22.4888C749.138 23.2322 746.732 24.9049 745.251 28.0645C744.511 29.5514 744.14 31.41 744.14 33.4544C744.14 35.4988 744.696 37.5433 745.991 39.5877C746.547 40.517 747.287 41.4463 748.213 42.1897C749.138 42.9331 750.064 43.6766 751.174 44.0483C753.395 45.1634 756.172 45.3493 758.578 44.7917C761.169 44.2341 763.391 42.7473 765.056 40.8887C765.797 39.9594 766.537 38.8443 766.907 37.915C767.463 36.7998 767.648 35.6847 767.833 34.5695C768.203 32.3392 767.648 30.109 766.907 28.2504C766.167 26.3918 764.871 24.9049 763.576 23.7898C760.984 21.5595 758.023 21.0019 756.172 21.0019C754.506 21.1878 753.58 21.5595 753.58 21.5595C753.58 21.5595 754.691 21.3736 756.542 21.3736C758.393 21.3736 761.169 22.1171 763.576 24.1615C764.871 25.2767 765.982 26.5777 766.722 28.4362C767.463 30.2948 767.833 32.3392 767.463 34.3837C767.278 35.4988 767.092 36.614 766.537 37.5433C766.167 38.6584 765.427 39.5877 764.686 40.517C763.205 42.3756 760.984 43.6766 758.578 44.2341C756.172 44.7917 753.58 44.42 751.544 43.4907C750.434 43.119 749.508 42.3756 748.583 41.6321C747.657 40.8887 746.917 40.1453 746.362 39.216C745.251 37.3574 744.696 35.313 744.511 33.4544C744.326 31.5958 744.881 29.7372 745.436 28.2504C746.732 25.2767 748.953 23.4181 750.619 22.6746C752.47 21.9312 753.58 21.7454 753.58 21.5595Z" fill="#E0E0E0"/>
<path d="M744.14 9.10703C744.14 9.10703 744.14 8.92117 744.14 8.73531C744.14 8.3636 744.14 7.99188 744.14 7.43431C744.14 6.31916 744.14 4.64644 744.14 2.41615V2.60201C746.917 2.04443 750.433 1.301 754.876 0.185858L754.691 0C755.616 1.85858 756.542 3.90301 757.467 5.94745V6.1333H757.652C759.873 6.31916 762.28 6.69088 764.686 7.43431H764.871C766.352 5.94745 767.833 4.46058 769.498 2.78787H769.128C772.09 4.64644 775.051 6.69088 778.383 8.73531L778.198 8.3636C777.458 10.2222 776.717 12.4525 775.977 14.6828V14.8686L776.162 15.0545C777.643 16.7272 779.123 18.5858 780.234 20.8161V21.0019H780.419C782.455 21.0019 784.676 21.0019 787.083 21.0019L786.712 20.8161C787.453 24.1615 788.193 27.8787 789.119 31.5958L789.304 31.2241C787.453 32.1534 785.417 33.0827 783.381 34.012H783.196V34.1978C783.196 36.4281 782.64 38.8443 781.9 41.0745V41.2604L782.085 41.4463C783.566 42.9331 785.047 44.6058 786.712 46.0927V45.721C784.861 48.6947 782.825 51.8543 780.789 55.0139L781.16 54.828C779.123 54.0846 777.087 53.3412 774.866 52.5977H774.681L774.496 52.7836C772.83 54.2704 770.979 55.7573 768.758 56.8725C768.758 57.0583 768.943 56.5007 768.573 57.2442V57.43V57.6159V57.9876V58.731V60.4037C768.573 61.5189 768.573 62.634 768.573 63.7492L768.758 63.3775C765.241 64.1209 761.539 65.0502 758.022 65.7936L758.393 65.9795C757.467 63.935 756.542 61.8906 755.616 60.032V59.8462H755.431C753.025 59.8462 750.804 59.2886 748.583 58.731H748.397L748.212 58.9169C746.546 60.5896 745.066 62.0765 743.585 63.5633H743.955C740.808 61.5189 737.662 59.6603 734.7 57.6159L734.885 57.9876C735.626 55.9432 736.366 53.7129 737.107 51.6684V51.4826L736.921 51.2967C735.256 49.4381 733.96 47.5796 732.849 45.5351V45.3493H732.664C730.443 45.3493 728.222 45.3493 726.001 45.3493L726.186 45.5351C725.26 41.818 724.52 38.2867 723.78 34.7554L723.594 35.1271C725.631 34.1978 727.667 33.2685 729.518 32.3392H729.703V32.1534C729.888 29.5514 730.258 27.3211 730.813 25.0908V24.9049L730.628 24.7191C728.962 23.0464 727.481 21.5595 726.001 20.0726V20.2585C728.222 16.7272 730.258 13.5676 731.739 10.9656H731.554C733.96 11.8949 736.181 12.6383 737.847 13.1959C739.513 11.5232 741.179 10.5939 742.104 9.85046C742.659 9.47874 743.03 9.29288 743.215 9.10703C743.955 9.10703 744.14 9.10703 744.14 9.10703C744.14 9.10703 743.955 9.10703 743.77 9.29288C743.585 9.47874 743.03 9.6646 742.659 9.85046C741.549 10.408 740.068 11.5232 738.402 13.01H738.587C736.921 12.4525 734.885 11.709 732.294 10.7797H732.109V10.9656C730.443 13.5676 728.592 16.5413 726.186 20.2585V20.4443L726.371 20.6302C727.852 22.1171 729.332 23.6039 730.998 25.2766V25.0908C730.258 27.3211 729.888 29.5514 729.703 32.1534L729.888 31.9675C728.037 32.8968 726.001 33.8261 723.965 34.7554H723.78V34.9412C724.52 38.2867 725.26 41.818 726.186 45.721V45.9068H726.371C728.592 45.9068 730.628 45.9068 733.034 45.9068L732.849 45.721C733.96 47.7654 735.256 49.8099 736.921 51.6684V51.2967C736.181 53.3412 735.441 55.3856 734.7 57.6159V57.8017L734.885 57.9876C737.847 59.8462 740.994 61.8906 744.14 63.935L744.325 64.1209L744.51 63.935C745.991 62.4482 747.657 60.7755 749.138 59.2886H748.768C750.989 60.032 753.395 60.4037 755.801 60.5896L755.431 60.4037C756.357 62.4482 757.282 64.3068 758.208 66.3512L758.393 66.5371H758.578C762.095 65.7936 765.611 64.8643 769.313 64.1209H769.498V63.935C769.498 62.8199 769.498 61.7048 769.498 60.5896V58.9169V58.1735V57.8017V57.6159V57.43C769.128 57.9876 769.313 57.6159 769.313 57.8017C771.534 56.6866 773.571 55.1997 775.236 53.7129H774.866C777.087 54.4563 779.123 55.1997 781.16 55.9432H781.345L781.53 55.7573C783.566 52.5977 785.602 49.4381 787.453 46.4644L787.638 46.2786L787.453 46.0927C785.787 44.42 784.306 42.9331 782.825 41.4463V41.818C783.566 39.4018 783.936 36.9857 784.121 34.7554L783.936 34.9412C785.972 34.012 788.008 32.8968 789.859 32.1534L790.044 31.9675V31.7817C789.119 28.0645 788.378 24.3474 787.638 21.0019V20.8161H787.453C785.232 20.8161 782.825 20.8161 780.789 20.8161L780.974 21.0019C779.864 18.7716 778.383 16.7272 776.902 15.0545V15.4262C777.643 13.1959 778.383 11.1515 779.123 9.10703V8.92117L778.938 8.73531C775.607 6.69088 772.645 4.64644 769.684 2.97372L769.498 2.78787L769.313 2.97372C767.647 4.64644 766.167 6.1333 764.686 7.62016H764.871C762.465 6.87673 760.059 6.50502 757.837 6.31916L758.022 6.50502C756.912 4.27473 755.986 2.41615 755.246 0.557573V0.371715H755.061C750.804 1.301 747.102 2.23029 744.325 2.78787C744.325 4.8323 744.325 6.50502 744.325 7.62016C744.325 8.17774 744.325 8.54945 744.325 8.92117C744.14 8.92117 744.14 9.10703 744.14 9.10703Z" fill="#E0E0E0"/>
<path d="M766.115 605.409C766.115 605.409 766.115 604.666 766.115 603.365C766.115 602.064 766.115 600.019 766.115 597.417C766.115 592.213 766.115 584.779 766.115 574.929C766.115 555.599 765.93 527.535 765.93 493.337L766.301 493.709C714.659 493.709 647.098 493.709 573.615 493.709L573.985 493.337C573.985 532.925 573.985 570.84 573.985 605.223L573.615 604.852C630.069 604.852 678.194 605.038 712.252 605.038C729.281 605.038 742.793 605.038 752.048 605.223C756.675 605.223 760.192 605.223 762.599 605.223C763.709 605.223 764.635 605.223 765.375 605.223C765.745 605.409 766.115 605.409 766.115 605.409C766.115 605.409 765.745 605.409 765.19 605.409C764.635 605.409 763.709 605.409 762.413 605.409C760.007 605.409 756.49 605.409 751.863 605.409C742.608 605.409 729.096 605.409 712.067 605.595C678.009 605.595 629.699 605.781 573.245 605.781H572.875V605.409C572.875 570.84 572.875 533.111 572.875 493.523V493.151H573.245C646.728 493.151 714.288 493.151 765.93 493.151H766.301V493.523C766.301 527.907 766.115 555.971 766.115 575.3C766.115 584.965 766.115 592.585 766.115 597.603C766.115 600.205 766.115 602.064 766.115 603.365C766.115 604.852 766.115 605.409 766.115 605.409Z" fill="#E0E0E0"/>
<path d="M766.115 507.09C766.115 507.276 722.988 507.462 669.865 507.462C616.742 507.462 573.615 507.276 573.615 507.09C573.615 506.905 616.742 506.719 669.865 506.719C722.988 506.719 766.115 506.905 766.115 507.09Z" fill="#E0E0E0"/>
<path d="M649.69 525.49H590.089V585.337H649.69V525.49Z" fill="#F5F5F5"/>
<path d="M752.048 535.341C752.048 535.341 751.678 535.341 751.123 535.341C750.382 535.341 749.642 535.341 748.531 535.341C746.31 535.341 743.163 535.341 739.276 535.527C731.317 535.527 720.582 535.527 708.735 535.713C696.889 535.713 686.154 535.713 678.195 535.527C674.307 535.527 671.161 535.341 668.94 535.341C667.829 535.341 667.089 535.341 666.348 535.341C665.793 535.341 665.423 535.341 665.423 535.341C665.423 535.341 665.793 535.341 666.348 535.341C667.089 535.341 667.829 535.341 668.94 535.341C671.161 535.341 674.307 535.341 678.195 535.155C686.154 535.155 696.889 535.155 708.735 534.969C720.582 534.969 731.317 534.969 739.276 535.155C743.163 535.155 746.31 535.341 748.531 535.341C749.642 535.341 750.382 535.341 751.123 535.341C751.863 535.341 752.048 535.341 752.048 535.341Z" fill="#E0E0E0"/>
<path d="M754.085 548.723C754.085 548.723 753.714 548.723 753.159 548.723C752.419 548.723 751.678 548.723 750.568 548.723C748.161 548.723 745.015 548.723 741.128 548.909C732.984 548.909 722.063 548.909 710.032 549.094C698 549.094 686.894 549.094 678.935 548.909C675.048 548.909 671.902 548.723 669.495 548.723C668.385 548.723 667.644 548.723 666.904 548.723C666.349 548.723 665.979 548.723 665.979 548.723C665.979 548.723 666.349 548.723 666.904 548.723C667.644 548.723 668.385 548.723 669.495 548.723C671.902 548.723 675.048 548.723 678.935 548.537C687.08 548.537 698 548.537 710.032 548.351C722.063 548.351 733.169 548.351 741.128 548.537C745.015 548.537 748.161 548.723 750.568 548.723C751.678 548.723 752.419 548.723 753.159 548.723C753.714 548.723 754.085 548.723 754.085 548.723Z" fill="#E0E0E0"/>
<path d="M754.085 562.104C754.085 562.104 753.714 562.104 753.159 562.104C752.419 562.104 751.678 562.104 750.568 562.104C748.161 562.104 745.015 562.104 741.128 562.29C732.984 562.29 722.063 562.29 710.032 562.476C698 562.476 686.894 562.476 678.935 562.29C675.048 562.29 671.902 562.104 669.495 562.104C668.385 562.104 667.644 562.104 666.904 562.104C666.349 562.104 665.979 562.104 665.979 562.104C665.979 562.104 666.349 562.104 666.904 562.104C667.644 562.104 668.385 562.104 669.495 562.104C671.902 562.104 675.048 562.104 678.935 561.919C687.08 561.919 698 561.919 710.032 561.733C722.063 561.733 733.169 561.733 741.128 561.919C745.015 561.919 748.161 562.104 750.568 562.104C751.678 562.104 752.419 562.104 753.159 562.104C753.714 562.104 754.085 562.104 754.085 562.104Z" fill="#E0E0E0"/>
<path d="M754.085 575.486C754.085 575.486 753.714 575.486 753.159 575.486C752.419 575.486 751.678 575.486 750.568 575.486C748.161 575.486 745.015 575.486 741.128 575.672C732.984 575.672 722.063 575.672 710.032 575.858C698 575.858 686.894 575.858 678.935 575.672C675.048 575.672 671.902 575.486 669.495 575.486C668.385 575.486 667.644 575.486 666.904 575.486C666.349 575.486 665.979 575.486 665.979 575.486C665.979 575.486 666.349 575.486 666.904 575.486C667.644 575.486 668.385 575.486 669.495 575.486C671.902 575.486 675.048 575.486 678.935 575.3C687.08 575.3 698 575.3 710.032 575.114C722.063 575.114 733.169 575.114 741.128 575.3C745.015 575.3 748.161 575.486 750.568 575.486C751.678 575.486 752.419 575.486 753.159 575.486C753.714 575.3 754.085 575.486 754.085 575.486Z" fill="#E0E0E0"/>
<g opacity="0.8">
<g opacity="0.8">
<g opacity="0.8">
<path opacity="0.8" fill-rule="evenodd" clip-rule="evenodd" d="M638.08 51.0282C633.822 53.2585 629.935 56.0464 626.604 59.2059L614.202 54.7453L602.541 73.1453L611.796 82.4381C610.315 86.8987 609.575 91.5452 609.39 96.3775L597.544 101.953L602.356 123.141H615.498C617.719 127.416 620.496 131.319 623.642 134.664L619.2 147.117L637.524 158.826L646.779 149.533C651.222 151.02 655.849 151.763 660.661 151.949L666.214 163.844L687.315 159.012V145.816C691.573 143.585 695.46 140.797 698.791 137.638L711.193 142.098L722.854 123.699L713.599 114.406C715.08 109.945 715.82 105.299 716.005 100.466L727.852 94.8906L723.039 73.7028H709.897C707.676 69.4281 704.9 65.5251 701.753 62.1797L706.195 49.7272L687.871 38.0182L678.616 47.311C674.174 45.8242 669.546 45.0808 664.734 44.8949L659.181 33L638.08 37.8323V51.0282ZM656.774 76.119C669.361 73.3311 681.762 81.1371 684.539 93.7755C687.315 106.414 679.541 118.866 666.955 121.654C654.368 124.442 641.967 116.636 639.19 103.998C636.414 91.3593 644.188 78.9068 656.774 76.119Z" fill="#EBEBEB"/>
</g>
</g>
</g>
<g opacity="0.8">
<g opacity="0.8">
<g opacity="0.8">
<path opacity="0.8" fill-rule="evenodd" clip-rule="evenodd" d="M638.08 51.0282C633.822 53.2585 629.935 56.0464 626.604 59.2059L614.202 54.7453L602.541 73.1453L611.796 82.4381C610.315 86.8987 609.575 91.5452 609.39 96.3775L597.544 101.953L602.356 123.141H615.498C617.719 127.416 620.496 131.319 623.642 134.664L619.2 147.117L637.524 158.826L646.779 149.533C651.222 151.02 655.849 151.763 660.661 151.949L666.214 163.844L687.315 159.012V145.816C691.573 143.585 695.46 140.797 698.791 137.638L711.193 142.098L722.854 123.699L713.599 114.406C715.08 109.945 715.82 105.299 716.005 100.466L727.852 94.8906L723.039 73.7028H709.897C707.676 69.4281 704.9 65.5251 701.753 62.1797L706.195 49.7272L687.871 38.0182L678.616 47.311C674.174 45.8242 669.546 45.0808 664.734 44.8949L659.181 33L638.08 37.8323V51.0282ZM656.774 76.119C669.361 73.3311 681.762 81.1371 684.539 93.7755C687.315 106.414 679.541 118.866 666.955 121.654C654.368 124.442 641.967 116.636 639.19 103.998C636.414 91.3593 644.188 78.9068 656.774 76.119Z" fill="#EBEBEB"/>
</g>
</g>
</g>
<path d="M852 638.12C852 638.306 661.35 638.678 426.093 638.678C190.65 638.678 0 638.492 0 638.12C0 637.934 190.65 637.563 426.093 637.563C661.165 637.748 852 637.934 852 638.12Z" fill="#263238"/>
<path d="M369.453 180.353H129.938V278.114H369.453V180.353Z" stroke="#F0B501" stroke-miterlimit="10"/>
<path d="M369.453 278.114C369.453 278.114 369.453 277.556 369.453 276.441C369.453 275.326 369.453 273.653 369.453 271.423C369.453 266.962 369.453 260.457 369.453 251.908C369.453 234.995 369.453 210.647 369.268 180.538L369.453 180.724C308.556 180.724 223.597 180.724 129.938 180.91L130.308 180.538C130.308 214.736 130.308 247.819 130.308 278.3L129.938 277.742C199.349 277.742 259.135 277.928 301.708 277.928C322.994 277.928 339.837 277.928 351.499 278.114C357.237 278.114 361.864 278.114 364.826 278.114C366.306 278.114 367.417 278.114 368.342 278.114C369.083 278.114 369.453 278.114 369.453 278.114ZM369.453 278.114C369.453 278.114 369.083 278.114 368.342 278.114C367.602 278.114 366.491 278.114 365.011 278.114C362.049 278.114 357.607 278.114 351.684 278.114C340.023 278.114 323.179 278.114 301.893 278.3C259.32 278.3 199.349 278.485 129.938 278.485H129.568V278.114C129.568 247.633 129.568 214.55 129.568 180.353V179.981H129.938C223.782 179.981 308.556 179.981 369.453 180.167H369.638V180.353C369.638 210.647 369.453 234.995 369.453 251.908C369.453 260.271 369.453 266.776 369.453 271.237C369.453 273.467 369.453 275.14 369.453 276.255C369.453 277.556 369.453 278.114 369.453 278.114Z" stroke="#F0B501" stroke-miterlimit="10"/>
<path d="M130.123 193.549C130.123 193.363 183.616 193.177 249.695 193.177C315.775 193.177 369.268 193.363 369.268 193.549C369.268 193.734 315.775 193.92 249.695 193.92C183.616 193.92 130.123 193.734 130.123 193.549Z" stroke="#F0B501" stroke-miterlimit="10"/>
<g opacity="0.3">
<path opacity="0.3" d="M140.118 187.787C140.118 188.716 139.378 189.46 138.452 189.46C137.527 189.46 136.786 188.716 136.786 187.787C136.786 186.858 137.527 186.114 138.452 186.114C139.378 185.928 140.118 186.672 140.118 187.787Z" stroke="#F0B501" stroke-miterlimit="10"/>
</g>
<g opacity="0.3">
<path opacity="0.3" d="M146.227 187.787C146.227 188.716 145.486 189.46 144.561 189.46C143.635 189.46 142.895 188.716 142.895 187.787C142.895 186.858 143.635 186.114 144.561 186.114C145.301 185.928 146.227 186.672 146.227 187.787Z" stroke="#F0B501" stroke-miterlimit="10"/>
</g>
<g opacity="0.3">
<path opacity="0.3" d="M151.964 187.787C151.964 188.716 151.224 189.46 150.299 189.46C149.373 189.46 148.633 188.716 148.633 187.787C148.633 186.858 149.373 186.114 150.299 186.114C151.224 185.928 151.964 186.672 151.964 187.787Z" stroke="#F0B501" stroke-miterlimit="10"/>
</g>
<g opacity="0.3">
<g opacity="0.3">
<path opacity="0.3" d="M208.234 209.532H150.298V267.706H208.234V209.532Z" stroke="#F0B501" stroke-miterlimit="10"/>
</g>
</g>
<path d="M352.979 225.144C352.979 225.33 323.179 225.516 286.529 225.516C249.88 225.516 220.08 225.33 220.08 225.144C220.08 224.958 249.88 224.773 286.529 224.773C323.179 224.587 352.979 224.773 352.979 225.144Z" stroke="#F0B501" stroke-miterlimit="10"/>
<path d="M352.979 236.853C352.979 237.039 323.179 237.225 286.529 237.225C249.88 237.225 220.08 237.039 220.08 236.853C220.08 236.667 249.88 236.482 286.529 236.482C323.179 236.482 352.979 236.667 352.979 236.853Z" stroke="#F0B501" stroke-miterlimit="10"/>
<path d="M305.594 248.748C305.594 248.748 305.224 248.748 304.669 248.748C303.929 248.748 303.188 248.748 302.263 248.748C300.042 248.748 296.895 248.748 293.008 248.934C285.234 248.934 274.498 248.934 262.652 249.12C250.806 249.12 240.255 249.12 232.296 248.934C228.409 248.934 225.448 248.934 223.041 248.748C222.116 248.748 221.19 248.748 220.635 248.748C220.08 248.748 219.71 248.748 219.71 248.748C219.71 248.748 220.08 248.748 220.635 248.748C221.375 248.748 222.116 248.748 223.041 248.748C225.263 248.748 228.409 248.748 232.296 248.562C240.07 248.562 250.806 248.562 262.652 248.377C274.498 248.377 285.049 248.377 293.008 248.562C296.895 248.562 299.856 248.562 302.263 248.748C303.188 248.748 304.114 248.748 304.669 248.748C305.224 248.748 305.594 248.748 305.594 248.748Z" stroke="#F0B501" stroke-miterlimit="10"/>
<path d="M703.418 252.023C703.418 252.023 702.307 252.023 700.642 252.952C698.976 253.696 696.569 255.369 695.089 258.528C694.348 260.015 693.978 261.874 693.978 263.918C693.978 265.962 694.533 268.007 695.829 270.051C696.384 270.981 697.125 271.91 698.05 272.653C698.976 273.397 699.901 274.14 701.012 274.512C703.233 275.627 706.009 275.813 708.416 275.255C711.007 274.698 713.228 273.211 714.894 271.352C715.634 270.423 716.375 269.308 716.745 268.379C717.3 267.263 717.485 266.148 717.67 265.033C718.041 262.803 717.485 260.573 716.745 258.714C716.005 256.855 714.709 255.368 713.413 254.253C710.822 252.023 707.86 251.465 706.009 251.465C704.529 251.651 703.418 252.023 703.418 252.023C703.418 252.023 704.529 251.837 706.38 251.837C708.231 251.837 711.007 252.581 713.413 254.625C714.709 255.74 715.82 257.041 716.56 258.9C717.3 260.758 717.67 262.803 717.3 264.847C717.115 265.962 716.93 267.078 716.375 268.007C716.005 269.122 715.264 270.051 714.524 270.981C713.043 272.839 710.822 274.14 708.416 274.698C706.009 275.255 703.418 274.884 701.382 273.954C700.271 273.583 699.346 272.839 698.42 272.096C697.495 271.352 696.755 270.609 696.199 269.68C695.089 267.821 694.533 265.777 694.348 263.918C694.163 262.059 694.718 260.201 695.274 258.714C696.569 255.74 698.791 253.882 700.457 253.138C702.493 252.395 703.418 252.209 703.418 252.023Z" fill="#263238"/>
<path d="M693.978 239.385C693.978 239.385 693.978 239.199 693.978 239.013C693.978 238.641 693.978 238.27 693.978 237.712C693.978 236.597 693.978 234.924 693.978 232.694V232.88C696.755 232.322 700.272 231.579 704.714 230.464L704.529 230.278C705.454 232.136 706.38 234.181 707.305 236.225V236.411H707.49C709.712 236.597 712.118 236.969 714.524 237.712H714.709L714.894 237.526C716.375 236.039 717.856 234.552 719.522 232.88H719.152C722.113 234.738 725.075 236.783 728.406 238.827L728.221 238.455C727.481 240.314 726.741 242.544 726 244.775V244.96L726.185 245.146C727.666 246.819 729.147 248.678 730.257 250.908V251.094H730.442C732.478 251.094 734.7 251.094 737.106 251.094L736.736 250.908C737.476 254.253 738.217 257.97 739.142 261.688L739.327 261.316C737.476 262.245 735.44 263.175 733.404 264.104H733.219V264.29C733.219 266.52 732.664 268.936 731.923 271.166V271.352L732.108 271.538C733.589 273.025 735.07 274.698 736.736 276.185V275.813C734.885 278.787 732.849 281.946 730.813 285.106L731.183 284.92C729.147 284.176 727.111 283.433 724.89 282.69H724.704L724.519 282.875C722.854 284.362 721.003 285.849 718.781 286.964C718.781 287.15 718.966 286.593 718.596 287.336V287.522V287.708V288.079V288.823V290.496C718.596 291.611 718.596 292.726 718.596 293.841L718.781 293.469C715.265 294.213 711.563 295.142 708.046 295.885L708.416 296.071C707.49 294.027 706.565 291.982 705.639 290.124V289.938H705.454C703.048 289.938 700.827 289.38 698.606 288.823H698.421L698.236 289.009C696.57 290.681 695.089 292.168 693.608 293.655H693.978C690.832 291.611 687.685 289.752 684.724 287.708L684.909 288.079C685.649 286.035 686.389 283.805 687.13 281.76V281.574L686.945 281.389C685.279 279.53 683.983 277.671 682.873 275.627V275.441H682.688C680.466 275.441 678.245 275.441 676.024 275.441L676.209 275.627C675.284 271.91 674.543 268.379 673.803 264.847L673.618 265.219C675.654 264.29 677.69 263.36 679.541 262.431H679.726V262.245C679.911 259.643 680.281 257.413 680.837 255.183V254.997L680.651 254.811C678.986 253.138 677.505 251.651 676.024 250.164V250.35C678.245 246.819 680.281 243.659 681.762 241.057H681.577C683.983 241.987 686.204 242.73 687.87 243.288C689.536 241.615 691.202 240.686 692.127 239.942C692.683 239.571 693.053 239.385 693.238 239.199C693.978 239.571 693.978 239.385 693.978 239.385C693.978 239.385 693.793 239.385 693.608 239.571C693.423 239.756 692.868 239.942 692.498 240.128C691.387 240.686 689.906 241.801 688.24 243.288H688.426C686.76 242.73 684.724 241.987 682.132 241.057H681.947V241.243C680.281 243.845 678.245 246.819 676.024 250.536V250.722C677.505 252.209 678.986 253.696 680.651 255.369V255.183C679.911 257.413 679.541 259.643 679.356 262.245L679.541 262.059C677.69 262.989 675.654 263.918 673.618 264.847H673.433V265.033C674.173 268.379 674.913 271.91 675.839 275.813V275.999H676.024C678.245 275.999 680.281 275.999 682.688 275.999L682.502 275.813C683.613 277.857 684.909 279.902 686.575 281.76V281.389C685.834 283.433 685.094 285.477 684.353 287.708V287.894L684.538 288.079C687.5 289.938 690.647 291.982 693.793 294.027L693.978 294.213L694.163 294.027C695.644 292.54 697.31 290.867 698.791 289.38H698.421C700.642 290.124 703.048 290.496 705.454 290.681L705.084 290.496C706.01 292.54 706.935 294.399 707.861 296.443L708.046 296.629H708.231C711.748 295.885 715.265 294.956 718.966 294.213H719.152V294.027C719.152 292.912 719.152 291.797 719.152 290.681V289.009V288.265V287.894V287.708V287.522C718.781 288.079 718.966 287.708 718.966 287.894C721.188 286.778 723.224 285.292 724.89 283.805H724.519C726.741 284.548 728.777 285.292 730.813 286.035H730.998L731.183 285.849C733.219 282.69 735.255 279.53 737.106 276.556L737.291 276.37L737.106 276.185C735.44 274.512 733.959 273.025 732.479 271.538V271.91C733.219 269.494 733.589 267.078 733.774 264.847L733.589 265.033C735.625 264.104 737.661 262.989 739.512 262.245L739.697 262.059V261.874C738.772 258.156 738.031 254.439 737.291 251.094V250.908H737.106C734.885 250.908 732.478 250.908 730.442 250.908L730.628 251.094C729.517 248.863 728.036 246.819 726.555 245.146V245.518C727.296 243.288 728.036 241.243 728.777 239.199V239.013L728.591 238.827C725.26 236.783 722.298 234.738 719.337 233.066L719.152 232.88L718.966 233.066C717.301 234.738 715.82 236.225 714.339 237.712H714.524C712.118 236.969 709.712 236.597 707.49 236.411L707.676 236.597C706.565 234.367 705.639 232.508 704.899 230.649V230.464H704.714C700.457 231.393 696.755 232.322 693.978 232.88C693.978 234.924 693.978 236.597 693.978 237.712C693.978 238.27 693.978 238.641 693.978 239.013C693.978 239.385 693.978 239.385 693.978 239.385Z" fill="#263238"/>
<path d="M703.418 252.023C703.418 252.023 702.307 252.023 700.642 252.952C698.976 253.696 696.569 255.369 695.089 258.528C694.348 260.015 693.978 261.874 693.978 263.918C693.978 265.962 694.533 268.007 695.829 270.051C696.384 270.981 697.125 271.91 698.05 272.653C698.976 273.397 699.901 274.14 701.012 274.512C703.233 275.627 706.009 275.813 708.416 275.255C711.007 274.698 713.228 273.211 714.894 271.352C715.634 270.423 716.375 269.308 716.745 268.379C717.3 267.263 717.485 266.148 717.67 265.033C718.041 262.803 717.485 260.573 716.745 258.714C716.005 256.855 714.709 255.368 713.413 254.253C710.822 252.023 707.86 251.465 706.009 251.465C704.529 251.651 703.418 252.023 703.418 252.023C703.418 252.023 704.529 251.837 706.38 251.837C708.231 251.837 711.007 252.581 713.413 254.625C714.709 255.74 715.82 257.041 716.56 258.9C717.3 260.758 717.67 262.803 717.3 264.847C717.115 265.962 716.93 267.078 716.375 268.007C716.005 269.122 715.264 270.051 714.524 270.981C713.043 272.839 710.822 274.14 708.416 274.698C706.009 275.255 703.418 274.884 701.382 273.954C700.271 273.583 699.346 272.839 698.42 272.096C697.495 271.352 696.755 270.609 696.199 269.68C695.089 267.821 694.533 265.777 694.348 263.918C694.163 262.059 694.718 260.201 695.274 258.714C696.569 255.74 698.791 253.882 700.457 253.138C702.493 252.395 703.418 252.209 703.418 252.023Z" fill="#263238"/>
<path d="M693.978 239.385C693.978 239.385 693.978 239.199 693.978 239.013C693.978 238.641 693.978 238.27 693.978 237.712C693.978 236.597 693.978 234.924 693.978 232.694V232.88C696.755 232.322 700.272 231.579 704.714 230.464L704.529 230.278C705.454 232.136 706.38 234.181 707.305 236.225V236.411H707.49C709.712 236.597 712.118 236.969 714.524 237.712H714.709L714.894 237.526C716.375 236.039 717.856 234.552 719.522 232.88H719.152C722.113 234.738 725.075 236.783 728.406 238.827L728.221 238.455C727.481 240.314 726.741 242.544 726 244.775V244.96L726.185 245.146C727.666 246.819 729.147 248.678 730.257 250.908V251.094H730.442C732.478 251.094 734.7 251.094 737.106 251.094L736.736 250.908C737.476 254.253 738.217 257.97 739.142 261.688L739.327 261.316C737.476 262.245 735.44 263.175 733.404 264.104H733.219V264.29C733.219 266.52 732.664 268.936 731.923 271.166V271.352L732.108 271.538C733.589 273.025 735.07 274.698 736.736 276.185V275.813C734.885 278.787 732.849 281.946 730.813 285.106L731.183 284.92C729.147 284.176 727.111 283.433 724.89 282.69H724.704L724.519 282.875C722.854 284.362 721.003 285.849 718.781 286.964C718.781 287.15 718.966 286.593 718.596 287.336V287.522V287.708V288.079V288.823V290.496C718.596 291.611 718.596 292.726 718.596 293.841L718.781 293.469C715.265 294.213 711.563 295.142 708.046 295.885L708.416 296.071C707.49 294.027 706.565 291.982 705.639 290.124V289.938H705.454C703.048 289.938 700.827 289.38 698.606 288.823H698.421L698.236 289.009C696.57 290.681 695.089 292.168 693.608 293.655H693.978C690.832 291.611 687.685 289.752 684.724 287.708L684.909 288.079C685.649 286.035 686.389 283.805 687.13 281.76V281.574L686.945 281.389C685.279 279.53 683.983 277.671 682.873 275.627V275.441H682.688C680.466 275.441 678.245 275.441 676.024 275.441L676.209 275.627C675.284 271.91 674.543 268.379 673.803 264.847L673.618 265.219C675.654 264.29 677.69 263.36 679.541 262.431H679.726V262.245C679.911 259.643 680.281 257.413 680.837 255.183V254.997L680.651 254.811C678.986 253.138 677.505 251.651 676.024 250.164V250.35C678.245 246.819 680.281 243.659 681.762 241.057H681.577C683.983 241.987 686.204 242.73 687.87 243.288C689.536 241.615 691.202 240.686 692.127 239.942C692.683 239.571 693.053 239.385 693.238 239.199C693.978 239.571 693.978 239.385 693.978 239.385C693.978 239.385 693.793 239.385 693.608 239.571C693.423 239.756 692.868 239.942 692.498 240.128C691.387 240.686 689.906 241.801 688.24 243.288H688.426C686.76 242.73 684.724 241.987 682.132 241.057H681.947V241.243C680.281 243.845 678.245 246.819 676.024 250.536V250.722C677.505 252.209 678.986 253.696 680.651 255.369V255.183C679.911 257.413 679.541 259.643 679.356 262.245L679.541 262.059C677.69 262.989 675.654 263.918 673.618 264.847H673.433V265.033C674.173 268.379 674.913 271.91 675.839 275.813V275.999H676.024C678.245 275.999 680.281 275.999 682.688 275.999L682.502 275.813C683.613 277.857 684.909 279.902 686.575 281.76V281.389C685.834 283.433 685.094 285.477 684.353 287.708V287.894L684.538 288.079C687.5 289.938 690.647 291.982 693.793 294.027L693.978 294.213L694.163 294.027C695.644 292.54 697.31 290.867 698.791 289.38H698.421C700.642 290.124 703.048 290.496 705.454 290.681L705.084 290.496C706.01 292.54 706.935 294.399 707.861 296.443L708.046 296.629H708.231C711.748 295.885 715.265 294.956 718.966 294.213H719.152V294.027C719.152 292.912 719.152 291.797 719.152 290.681V289.009V288.265V287.894V287.708V287.522C718.781 288.079 718.966 287.708 718.966 287.894C721.188 286.778 723.224 285.292 724.89 283.805H724.519C726.741 284.548 728.777 285.292 730.813 286.035H730.998L731.183 285.849C733.219 282.69 735.255 279.53 737.106 276.556L737.291 276.37L737.106 276.185C735.44 274.512 733.959 273.025 732.479 271.538V271.91C733.219 269.494 733.589 267.078 733.774 264.847L733.589 265.033C735.625 264.104 737.661 262.989 739.512 262.245L739.697 262.059V261.874C738.772 258.156 738.031 254.439 737.291 251.094V250.908H737.106C734.885 250.908 732.478 250.908 730.442 250.908L730.628 251.094C729.517 248.863 728.036 246.819 726.555 245.146V245.518C727.296 243.288 728.036 241.243 728.777 239.199V239.013L728.591 238.827C725.26 236.783 722.298 234.738 719.337 233.066L719.152 232.88L718.966 233.066C717.301 234.738 715.82 236.225 714.339 237.712H714.524C712.118 236.969 709.712 236.597 707.49 236.411L707.676 236.597C706.565 234.367 705.639 232.508 704.899 230.649V230.464H704.714C700.457 231.393 696.755 232.322 693.978 232.88C693.978 234.924 693.978 236.597 693.978 237.712C693.978 238.27 693.978 238.641 693.978 239.013C693.978 239.385 693.978 239.385 693.978 239.385Z" fill="#263238"/>
<path fill-rule="evenodd" clip-rule="evenodd" d="M714.154 156.12C711.748 157.421 709.712 158.908 707.676 160.767L700.827 158.351L694.349 168.573L699.532 173.777C698.791 176.193 698.236 178.981 698.236 181.583L691.572 184.742L694.164 196.637H701.383C702.678 199.053 704.159 201.098 706.01 203.142L703.604 210.019L713.784 216.524L718.967 211.32C721.373 212.064 724.149 212.621 726.741 212.621L729.887 219.312L741.734 216.71V209.462C744.14 208.161 746.176 206.674 748.212 204.815L755.061 207.231L761.539 197.009L756.356 191.805C757.097 189.389 757.652 186.601 757.652 183.999L764.315 180.839L761.724 168.945H754.505C753.21 166.528 751.729 164.484 749.878 162.44L752.284 155.563L742.104 149.058L736.921 154.262C734.515 153.518 731.738 152.961 729.147 152.961L726 146.27L714.154 148.872V156.12ZM724.52 170.06C731.553 168.573 738.402 172.848 740.068 179.91C741.549 186.973 737.291 193.849 730.258 195.522C723.224 197.009 716.375 192.734 714.709 185.672C713.229 178.609 717.671 171.547 724.52 170.06Z" fill="#F0B501"/>
<path fill-rule="evenodd" clip-rule="evenodd" d="M714.154 156.12C711.748 157.421 709.712 158.908 707.676 160.767L700.827 158.351L694.349 168.573L699.532 173.777C698.791 176.193 698.236 178.981 698.236 181.583L691.572 184.742L694.164 196.637H701.383C702.678 199.053 704.159 201.098 706.01 203.142L703.604 210.019L713.784 216.524L718.967 211.32C721.373 212.064 724.149 212.621 726.741 212.621L729.887 219.312L741.734 216.71V209.462C744.14 208.161 746.176 206.674 748.212 204.815L755.061 207.231L761.539 197.009L756.356 191.805C757.097 189.389 757.652 186.601 757.652 183.999L764.315 180.839L761.724 168.945H754.505C753.21 166.528 751.729 164.484 749.878 162.44L752.284 155.563L742.104 149.058L736.921 154.262C734.515 153.518 731.738 152.961 729.147 152.961L726 146.27L714.154 148.872V156.12ZM724.52 170.06C731.553 168.573 738.402 172.848 740.068 179.91C741.549 186.973 737.291 193.849 730.258 195.522C723.224 197.009 716.375 192.734 714.709 185.672C713.229 178.609 717.671 171.547 724.52 170.06Z" fill="#F0B501"/>
<g opacity="0.8">
<g opacity="0.8">
<g opacity="0.8">
<path opacity="0.8" fill-rule="evenodd" clip-rule="evenodd" d="M714.154 156.12C711.748 157.421 709.712 158.908 707.676 160.767L700.827 158.351L694.349 168.573L699.532 173.777C698.791 176.193 698.236 178.981 698.236 181.583L691.572 184.742L694.164 196.637H701.383C702.678 199.053 704.159 201.098 706.01 203.142L703.604 210.019L713.784 216.524L718.967 211.32C721.373 212.064 724.149 212.621 726.741 212.621L729.887 219.312L741.734 216.71V209.462C744.14 208.161 746.176 206.674 748.212 204.815L755.061 207.231L761.539 197.009L756.356 191.805C757.097 189.389 757.652 186.601 757.652 183.999L764.315 180.839L761.724 168.945H754.505C753.21 166.528 751.729 164.484 749.878 162.44L752.284 155.563L742.104 149.058L736.921 154.262C734.515 153.518 731.738 152.961 729.147 152.961L726 146.27L714.154 148.872V156.12ZM724.52 170.06C731.553 168.573 738.402 172.848 740.068 179.91C741.549 186.973 737.291 193.849 730.258 195.522C723.224 197.009 716.375 192.734 714.709 185.672C713.229 178.609 717.671 171.547 724.52 170.06Z" fill="white"/>
</g>
</g>
</g>
<g opacity="0.8">
<g opacity="0.8">
<g opacity="0.8">
<path opacity="0.8" fill-rule="evenodd" clip-rule="evenodd" d="M714.154 156.12C711.748 157.421 709.712 158.908 707.676 160.767L700.827 158.351L694.349 168.573L699.532 173.777C698.791 176.193 698.236 178.981 698.236 181.583L691.572 184.742L694.164 196.637H701.383C702.678 199.053 704.159 201.098 706.01 203.142L703.604 210.019L713.784 216.524L718.967 211.32C721.373 212.064 724.149 212.621 726.741 212.621L729.887 219.312L741.734 216.71V209.462C744.14 208.161 746.176 206.674 748.212 204.815L755.061 207.231L761.539 197.009L756.356 191.805C757.097 189.389 757.652 186.601 757.652 183.999L764.315 180.839L761.724 168.945H754.505C753.21 166.528 751.729 164.484 749.878 162.44L752.284 155.563L742.104 149.058L736.921 154.262C734.515 153.518 731.738 152.961 729.147 152.961L726 146.27L714.154 148.872V156.12ZM724.52 170.06C731.553 168.573 738.402 172.848 740.068 179.91C741.549 186.973 737.291 193.849 730.258 195.522C723.224 197.009 716.375 192.734 714.709 185.672C713.229 178.609 717.671 171.547 724.52 170.06Z" fill="white"/>
</g>
</g>
</g>
<g opacity="0.8">
<g opacity="0.8">
<g opacity="0.8">
<path opacity="0.8" fill-rule="evenodd" clip-rule="evenodd" d="M797.952 558.759C800.358 560.06 802.395 561.547 804.431 563.405L811.279 560.989L817.758 571.211L812.575 576.415C813.315 578.832 813.871 581.619 813.871 584.221L820.534 587.381L817.943 599.276H810.724C809.428 601.692 807.947 603.736 806.096 605.781L808.503 612.658L798.322 619.163L793.14 613.959C790.733 614.702 787.957 615.26 785.366 615.26L782.219 621.951L770.373 619.349V612.1C767.967 610.799 765.931 609.312 763.894 607.454L757.046 609.87L750.567 599.648L755.75 594.444C755.01 592.027 754.455 589.24 754.455 586.638L747.791 583.478L750.382 571.583H757.601C758.897 569.167 760.378 567.123 762.229 565.078L759.822 558.201L770.003 551.696L775.185 556.9C777.592 556.157 780.368 555.599 782.959 555.599L786.106 548.908L797.952 551.51V558.759ZM787.587 572.698C780.553 571.211 773.705 575.486 772.039 582.549C770.558 589.611 774.815 596.488 781.849 598.161C788.882 599.648 795.731 595.373 797.397 588.31C799.063 581.248 794.62 574.371 787.587 572.698Z" fill="white"/>
</g>
</g>
</g>
<path fill-rule="evenodd" clip-rule="evenodd" d="M642.707 192.363C641.226 193.106 639.746 194.221 638.45 195.337L633.823 193.664L629.565 200.541L633.082 204.072C632.527 205.745 632.342 207.417 632.157 209.276L627.714 211.32L629.565 219.126H634.378C635.118 220.799 636.229 222.1 637.339 223.401L635.674 228.047L642.522 232.322L646.039 228.791C647.705 229.348 649.371 229.534 651.222 229.72L653.258 234.181L661.032 232.508V227.676C662.698 226.932 663.993 225.817 665.289 224.702L669.916 226.375L674.174 219.498L670.657 215.967C671.212 214.294 671.397 212.621 671.582 210.763L676.025 208.718L674.174 200.912H669.361C668.621 199.24 667.51 197.939 666.4 196.638L668.066 191.991L661.217 187.716L657.7 191.248C656.034 190.69 654.368 190.504 652.517 190.318L650.481 185.858L642.707 187.531V192.363ZM649.556 201.656C654.183 200.541 658.811 203.514 659.921 208.161C661.032 212.807 658.07 217.454 653.443 218.569C648.815 219.684 644.188 216.71 643.077 212.064C642.152 207.417 644.928 202.771 649.556 201.656Z" fill="#F0B501"/>
<path fill-rule="evenodd" clip-rule="evenodd" d="M642.707 192.363C641.226 193.106 639.746 194.221 638.45 195.337L633.823 193.664L629.565 200.541L633.082 204.072C632.527 205.745 632.342 207.417 632.157 209.276L627.714 211.32L629.565 219.126H634.378C635.118 220.799 636.229 222.1 637.339 223.401L635.674 228.047L642.522 232.322L646.039 228.791C647.705 229.348 649.371 229.534 651.222 229.72L653.258 234.181L661.032 232.508V227.676C662.698 226.932 663.993 225.817 665.289 224.702L669.916 226.375L674.174 219.498L670.657 215.967C671.212 214.294 671.397 212.621 671.582 210.763L676.025 208.718L674.174 200.912H669.361C668.621 199.24 667.51 197.939 666.4 196.638L668.066 191.991L661.217 187.716L657.7 191.248C656.034 190.69 654.368 190.504 652.517 190.318L650.481 185.858L642.707 187.531V192.363ZM649.556 201.656C654.183 200.541 658.811 203.514 659.921 208.161C661.032 212.807 658.07 217.454 653.443 218.569C648.815 219.684 644.188 216.71 643.077 212.064C642.152 207.417 644.928 202.771 649.556 201.656Z" fill="#F0B501"/>
<g opacity="0.8">
<g opacity="0.8">
<g opacity="0.8">
<path opacity="0.8" fill-rule="evenodd" clip-rule="evenodd" d="M642.707 192.363C641.226 193.106 639.746 194.221 638.45 195.337L633.823 193.664L629.565 200.541L633.082 204.072C632.527 205.745 632.342 207.417 632.157 209.276L627.714 211.32L629.565 219.126H634.378C635.118 220.799 636.229 222.1 637.339 223.401L635.674 228.047L642.522 232.322L646.039 228.791C647.705 229.348 649.371 229.534 651.222 229.72L653.258 234.181L661.032 232.508V227.676C662.698 226.932 663.993 225.817 665.289 224.702L669.916 226.375L674.174 219.498L670.657 215.967C671.212 214.294 671.397 212.621 671.582 210.763L676.025 208.718L674.174 200.912H669.361C668.621 199.24 667.51 197.939 666.4 196.638L668.066 191.991L661.217 187.716L657.7 191.248C656.034 190.69 654.368 190.504 652.517 190.318L650.481 185.858L642.707 187.531V192.363ZM649.556 201.656C654.183 200.541 658.811 203.514 659.921 208.161C661.032 212.807 658.07 217.454 653.443 218.569C648.815 219.684 644.188 216.71 643.077 212.064C642.152 207.417 644.928 202.771 649.556 201.656Z" fill="white"/>
</g>
</g>
</g>
<g opacity="0.8">
<g opacity="0.8">
<g opacity="0.8">
<path opacity="0.8" fill-rule="evenodd" clip-rule="evenodd" d="M642.707 192.363C641.226 193.106 639.746 194.221 638.45 195.337L633.823 193.664L629.565 200.541L633.082 204.072C632.527 205.745 632.342 207.417 632.157 209.276L627.714 211.32L629.565 219.126H634.378C635.118 220.799 636.229 222.1 637.339 223.401L635.674 228.047L642.522 232.322L646.039 228.791C647.705 229.348 649.371 229.534 651.222 229.72L653.258 234.181L661.032 232.508V227.676C662.698 226.932 663.993 225.817 665.289 224.702L669.916 226.375L674.174 219.498L670.657 215.967C671.212 214.294 671.397 212.621 671.582 210.763L676.025 208.718L674.174 200.912H669.361C668.621 199.24 667.51 197.939 666.4 196.638L668.066 191.991L661.217 187.716L657.7 191.248C656.034 190.69 654.368 190.504 652.517 190.318L650.481 185.858L642.707 187.531V192.363ZM649.556 201.656C654.183 200.541 658.811 203.514 659.921 208.161C661.032 212.807 658.07 217.454 653.443 218.569C648.815 219.684 644.188 216.71 643.077 212.064C642.152 207.417 644.928 202.771 649.556 201.656Z" fill="white"/>
</g>
</g>
</g>
<path d="M371.488 454.322L416.016 450.237C416.016 450.237 443.432 377.639 477.104 360L499 398.434L452.264 487H361L371.488 454.322Z" fill="#F0B501"/>
<path opacity="0.3" d="M371.488 454.322L416.016 450.237C416.016 450.237 443.432 377.639 477.104 360L499 398.434L452.264 487H361L371.488 454.322Z" fill="black"/>
<path d="M389.629 474.751C389.444 474.565 391.11 471.406 393.331 467.503C395.552 463.6 397.773 460.626 397.958 460.812C398.143 460.998 396.477 464.157 394.256 468.06C392.035 471.777 389.999 474.937 389.629 474.751Z" fill="#FAFAFA"/>
<path d="M411.1 483.115C410.915 483.301 409.064 482.371 406.842 480.885C404.621 479.398 402.955 478.097 403.141 477.911C403.326 477.725 405.177 478.654 407.398 480.141C409.619 481.628 411.285 482.929 411.1 483.115Z" fill="#FAFAFA"/>
<path d="M521 480.924L544.27 387.978C548.365 371.717 564.375 361.554 580.757 364.51C597.697 367.467 609.239 383.543 606.633 400.543L592.485 491.456C588.948 510.489 573.683 525.272 554.508 528.228L536.079 531L521 480.924Z" fill="#F0B501"/>
<path d="M594.53 358.033C594.345 358.219 591.939 355.245 586.386 353.944C583.61 353.386 580.093 353.2 576.391 353.944C572.689 354.873 568.987 356.732 565.655 359.52C558.807 365.281 555.29 372.53 552.699 377.734C551.403 380.336 550.477 382.566 549.922 384.053C549.182 385.54 548.812 386.283 548.812 386.283C548.812 386.283 548.997 385.354 549.552 383.867C550.107 382.38 551.033 380.15 552.143 377.362C553.254 374.76 554.735 371.6 556.956 368.255C558.992 364.909 561.768 361.564 565.1 358.59C568.617 355.617 572.504 353.758 576.391 352.829C580.278 351.899 583.795 352.271 586.756 353.015C589.533 353.758 591.754 355.059 593.05 355.988C593.605 356.546 594.16 356.918 594.53 357.289C594.345 357.847 594.53 358.033 594.53 358.033Z" fill="#263238"/>
<path d="M463.852 379.035C463.852 379.035 463.667 379.406 463.297 379.964C462.742 380.521 462.187 381.451 461.261 382.38C459.595 384.424 457.189 387.398 454.412 391.301C448.86 399.107 442.011 410.63 438.679 424.941C435.533 439.252 435.347 452.634 434.792 462.113C434.607 466.945 434.422 470.848 434.052 473.45C433.867 474.751 433.867 475.681 433.867 476.61C433.867 477.353 433.682 477.725 433.682 477.725C433.682 477.725 433.682 477.353 433.682 476.61C433.682 475.866 433.682 474.751 433.682 473.45C433.682 470.662 433.867 466.759 434.052 462.113C434.422 452.634 434.422 439.067 437.754 424.756C441.086 410.259 448.119 398.735 453.857 390.929C456.634 387.026 459.225 384.053 461.076 382.194C462.001 381.265 462.742 380.521 463.112 379.964C463.482 379.22 463.852 379.035 463.852 379.035Z" fill="#263238"/>
<path d="M612.484 379.291C609.882 362.581 600.774 358.496 591.109 353.298C587.949 351.627 572.893 347.728 560.997 344.757C559.882 337.516 557.837 324.52 557.279 321.921C556.722 318.022 496.313 327.676 495.569 329.161C495.011 330.09 493.71 345.129 492.781 355.154L478.283 360.167L459.695 384.118L449.844 398.043C444.082 406.026 439.807 415.124 437.762 424.778C435.346 435.361 434.974 445.758 434.974 457.084L432 518.353L558.023 554L567.874 491.803L600.402 447.615C603.376 429.605 615.644 399.714 612.484 379.291Z" fill="#F0B501"/>
<path d="M504.388 356.546C504.203 356.546 504.018 354.873 503.463 352.271C503.093 349.669 502.537 345.952 502.167 341.863C501.982 339.818 501.797 337.96 501.612 336.101C501.427 334.429 501.242 332.756 501.242 331.455C501.242 330.154 501.612 329.039 502.167 328.295C502.722 327.738 503.093 327.552 503.093 327.552C503.093 327.552 502.908 327.924 502.537 328.481C502.167 329.039 501.982 330.154 501.982 331.455C501.982 332.756 502.352 334.243 502.537 336.101C502.722 337.96 502.908 339.818 503.278 341.863C503.833 345.952 504.203 349.669 504.388 352.271C504.573 354.873 504.573 356.546 504.388 356.546Z" fill="#263238"/>
<path d="M520.492 352.829C520.307 352.829 519.751 351.342 519.196 348.926C518.456 346.509 517.901 342.978 517.53 339.075C517.16 335.172 517.16 331.641 517.345 329.039C517.53 326.437 517.9 324.95 517.9 324.95C518.271 324.95 517.715 331.269 518.456 338.889C519.011 346.695 520.677 352.643 520.492 352.829Z" fill="#263238"/>
<path d="M550.293 348.368C549.923 348.368 551.219 342.049 549.923 334.429C548.627 326.809 545.296 321.419 545.666 321.233C545.851 321.233 546.776 322.348 547.887 324.764C548.997 326.994 550.293 330.34 551.034 334.243C551.774 338.146 551.589 341.677 551.404 344.279C550.848 346.881 550.293 348.368 550.293 348.368Z" fill="#263238"/>
<path d="M514.569 347.81C514.383 347.996 512.347 346.51 509.941 344.279C507.535 342.049 505.869 340.19 506.054 340.004C506.239 339.819 508.275 341.305 510.681 343.536C512.903 345.766 514.754 347.625 514.569 347.81Z" fill="#FAFAFA"/>
<path d="M597.492 337.96C597.492 338.146 594.715 339.075 591.199 339.819C587.682 340.562 584.905 340.934 584.72 340.748C584.72 340.562 587.497 339.633 591.013 338.889C594.715 337.96 597.492 337.588 597.492 337.96Z" fill="#FAFAFA"/>
<path d="M451.451 493.523C451.266 493.709 448.489 491.478 445.343 488.691C442.196 485.717 439.79 483.301 439.975 483.115C440.16 482.929 442.936 485.159 446.083 487.947C449.23 490.735 451.636 493.337 451.451 493.523Z" fill="#FAFAFA"/>
<path d="M489.211 479.584C489.211 479.769 484.954 481.07 480.141 483.301C475.143 485.531 471.441 487.761 471.256 487.575C471.071 487.39 474.773 484.602 479.771 482.371C484.768 480.141 489.211 479.212 489.211 479.584Z" fill="#FAFAFA"/>
<path d="M632.846 382.194C632.661 382.008 634.141 378.663 636.177 374.574C638.214 370.485 640.064 367.14 640.25 367.325C640.435 367.511 638.954 370.857 636.918 374.946C634.882 379.034 633.031 382.38 632.846 382.194Z" fill="#FAFAFA"/>
<path d="M730.258 234.924C730.443 234.924 731.553 231.207 733.034 226.561C734.515 221.914 735.811 218.197 735.44 218.011C735.255 217.825 733.589 221.542 732.109 226.189C730.813 230.835 730.073 234.924 730.258 234.924Z" fill="#FAFAFA"/>
<path d="M730.258 234.924C730.443 234.924 731.553 231.207 733.034 226.561C734.515 221.914 735.811 218.197 735.44 218.011C735.255 217.825 733.589 221.542 732.109 226.189C730.813 230.835 730.073 234.924 730.258 234.924Z" fill="#FAFAFA"/>
<path d="M726.926 252.952C726.926 253.138 730.443 254.811 735.071 255.926C739.698 257.041 743.585 257.413 743.585 257.227C743.585 257.041 739.883 256.112 735.256 254.997C730.628 253.882 726.926 252.581 726.926 252.952Z" fill="#FAFAFA"/>
<path d="M726.926 252.952C726.926 253.138 730.443 254.811 735.071 255.926C739.698 257.041 743.585 257.413 743.585 257.227C743.585 257.041 739.883 256.112 735.256 254.997C730.628 253.882 726.926 252.581 726.926 252.952Z" fill="#FAFAFA"/>
<path d="M650.615 453.563C650.8 453.749 647.283 455.422 642.841 457.281C638.398 459.139 634.882 460.44 634.696 460.069C634.511 459.883 638.028 458.21 642.471 456.351C646.913 454.679 650.615 453.378 650.615 453.563Z" fill="#FAFAFA"/>
<path d="M637.288 496.125C637.103 496.125 636.917 491.479 636.917 485.903C636.917 480.327 637.288 475.681 637.473 475.681C637.658 475.681 637.843 480.327 637.843 485.903C637.843 491.479 637.658 496.125 637.288 496.125Z" fill="#FAFAFA"/>
<path d="M552.7 500.957C552.7 501.329 548.072 501.701 542.519 502.63C536.966 503.559 532.339 504.674 532.339 504.303C532.339 504.117 536.781 502.63 542.334 501.701C548.072 500.586 552.7 500.586 552.7 500.957Z" fill="#FAFAFA"/>
<path d="M521.047 493.709C520.862 493.523 523.268 490.735 526.6 487.39C529.747 484.044 532.523 481.442 532.708 481.628C532.893 481.814 530.487 484.602 527.155 487.947C524.009 491.293 521.232 493.895 521.047 493.709Z" fill="#FAFAFA"/>
<path d="M500.316 513.781C500.131 513.781 499.206 510.436 497.725 506.533C496.244 502.63 494.948 499.47 495.133 499.284C495.319 499.099 497.169 502.072 498.65 506.161C500.316 510.25 500.686 513.781 500.316 513.781Z" fill="#FAFAFA"/>
<path d="M533.634 525.305C533.449 525.49 529.377 524.004 524.379 521.773C519.382 519.543 515.309 517.499 515.495 517.313C515.68 517.127 519.752 518.614 524.749 520.844C529.747 523.074 533.634 525.119 533.634 525.305Z" fill="#FAFAFA"/>
<path d="M475.699 521.959C475.513 521.959 476.254 518.8 477.364 515.082C478.66 511.365 479.771 508.577 479.956 508.577C480.141 508.577 479.4 511.737 478.29 515.454C477.179 519.171 476.069 521.959 475.699 521.959Z" fill="#FAFAFA"/>
<path d="M513.829 528.464C513.829 528.836 508.461 527.907 501.982 527.535C495.504 527.163 490.136 527.535 490.136 527.163C490.136 526.977 495.504 526.234 502.168 526.606C508.646 526.977 514.014 528.278 513.829 528.464Z" fill="#FAFAFA"/>
<path d="M521.787 473.636C521.787 473.636 521.787 473.45 521.787 472.893C521.787 472.335 521.787 471.778 522.158 470.848C522.343 469.919 522.898 468.804 524.194 468.06C525.304 467.317 526.97 466.945 528.636 467.317L528.266 467.503C530.302 460.44 533.448 450.032 536.78 438.323C539.742 427.358 541.778 417.321 543.259 410.073C543.999 406.542 544.554 403.568 544.924 401.523C545.295 399.479 545.665 398.364 545.665 398.364C545.665 398.364 545.665 399.479 545.295 401.523C544.924 403.568 544.554 406.542 543.814 410.259C542.518 417.507 540.667 427.729 537.521 438.695C534.189 450.404 530.857 460.812 528.636 467.875V468.06H528.266C526.785 467.689 525.119 468.06 524.194 468.618C523.083 469.176 522.528 470.291 522.343 471.034C521.787 472.521 521.972 473.636 521.787 473.636Z" fill="#263238"/>
<path d="M563.249 499.47C563.064 499.47 561.953 497.054 559.547 493.337C557.141 489.62 553.439 484.602 548.441 480.141C543.444 475.681 538.261 472.335 534.374 470.291C530.487 468.246 527.896 467.317 527.896 467.317C527.896 467.317 528.636 467.503 529.746 467.875C530.857 468.246 532.708 468.804 534.744 469.733C538.816 471.592 544.184 474.751 549.182 479.398C554.179 484.044 557.881 489.062 560.102 492.965C561.213 494.824 561.953 496.497 562.509 497.612C563.064 498.727 563.434 499.47 563.249 499.47Z" fill="#263238"/>
<g opacity="0.2">
<path opacity="0.2" d="M529.007 465.83C536.04 466.388 541.963 466.945 548.442 469.361C555.105 471.778 561.213 476.61 563.62 483.301C564.175 484.973 564.545 487.018 563.249 488.133C562.324 489.062 560.843 489.062 559.733 488.691C558.622 488.319 557.511 487.39 556.586 486.646C552.514 482.929 548.257 479.584 543.999 475.866C539.742 472.149 533.634 468.432 528.081 467.503" fill="black"/>
</g>
<path d="M535.114 351.342C534.744 351.342 535.114 345.023 534.374 337.217C533.634 329.411 532.153 323.277 532.338 323.091C532.523 323.091 533.078 324.578 533.634 326.994C534.189 329.596 534.929 332.942 535.299 337.031C535.67 340.934 535.67 344.465 535.484 347.067C535.484 349.855 535.299 351.342 535.114 351.342Z" fill="#263238"/>
<path d="M316.407 599C316.407 599 296.085 603.432 278 600.734C261.034 598.037 223 600.734 223 623.856C223 649.676 273.712 643.317 293.475 639.078C313.237 635.032 333 631.371 333 631.371L316.407 599Z" fill="#F0B501"/>
<path opacity="0.4" d="M310 600.173L322.82 634L333 632.045L313.582 599L310 600.173Z" fill="black"/>
<path d="M476 512.425C473.965 513.169 342.237 475.951 288.954 460.877C274.893 456.969 259.907 459.202 247.696 467.204L247.141 467.577C229.195 479.3 220.5 500.887 225.31 521.915C228.455 535.128 236.596 546.666 248.066 553.737C283.218 575.324 357.593 620.916 359.813 619.986C362.773 618.869 455.649 616.45 455.649 616.45L343.902 535.686L397 570.299L476 512.425Z" fill="#263238"/>
<path d="M364.339 472.535L392.415 458L419.933 475.331L523.125 478.685L538 529L388.51 494.339C388.51 494.339 361.364 496.761 359.319 490.612C357.46 484.462 364.339 472.535 364.339 472.535Z" fill="#FFBE9D"/>
<path d="M449.914 553.448L436 599.053L437.67 612.957C462.9 638.355 503.157 641.136 531.727 619.261C548.98 605.913 559.183 585.335 558.998 563.644L558.812 516L449.914 553.448Z" fill="#263238"/>
<path d="M367.417 553.927C367.232 554.113 351.128 542.403 331.508 527.721C311.888 513.038 295.969 500.957 296.154 500.585C296.34 500.4 312.443 512.109 332.063 526.791C351.683 541.474 367.602 553.555 367.417 553.927Z" fill="#455A64"/>
<path d="M391.665 467.503C391.665 467.689 385.556 469.919 377.967 472.335C370.379 474.751 364.085 476.61 363.9 476.238C363.9 476.052 370.008 473.822 377.597 471.406C385.371 469.175 391.665 467.317 391.665 467.503Z" fill="#EB996E"/>
<path d="M393.701 476.238C393.701 476.424 391.85 476.61 388.888 477.167C385.927 477.725 381.855 478.468 377.412 479.398C372.97 480.513 369.083 481.628 366.121 482.371C363.345 483.301 361.494 483.858 361.494 483.672C361.494 483.486 363.16 482.743 365.936 481.814C368.713 480.699 372.785 479.583 377.227 478.468C381.669 477.353 385.742 476.796 388.888 476.424C391.85 476.052 393.701 476.052 393.701 476.238Z" fill="#EB996E"/>
<path d="M391.479 484.044C391.479 484.23 384.631 485.903 376.116 487.575C367.602 489.248 360.568 490.363 360.568 490.177C360.568 489.991 367.417 488.319 375.931 486.646C384.446 484.973 391.294 483.672 391.479 484.044Z" fill="#EB996E"/>
<path d="M355.015 405.612L380.929 490.921C381.299 491.85 382.039 492.594 383.15 492.594L453.487 497.983C454.782 498.169 455.708 499.099 455.708 500.4V504.86C455.708 506.161 454.597 507.276 453.117 507.276L260.616 503.559C259.691 503.559 258.765 503.002 258.395 501.886L224.522 412.861C223.967 411.374 225.077 409.515 226.743 409.515L352.424 403.568C353.72 403.754 354.83 404.497 355.015 405.612Z" fill="#455A64"/>
<path d="M332.304 631L312 597.547L461.14 480.553C470.369 472.976 481.813 468.355 493.626 467.246C530.726 463.919 561.92 494.785 558.782 531.934L556.383 560.397L457.448 592.187L332.304 631Z" fill="#263238"/>
<path d="M523.824 551.51C523.824 551.51 523.639 551.696 523.453 551.882C523.083 552.068 522.713 552.44 522.158 552.811C521.047 553.741 519.381 555.042 517.345 556.714C516.235 557.458 515.124 558.387 513.828 559.502C512.533 560.432 511.052 561.361 509.571 562.476C508.09 563.591 506.425 564.706 504.574 565.821C503.648 566.379 502.723 567.122 501.797 567.68C500.872 568.238 499.761 568.795 498.836 569.539C494.764 571.955 490.321 574.743 485.324 577.345C482.917 578.646 480.326 580.133 477.735 581.434C475.143 582.735 472.367 584.036 469.405 585.337C457.929 590.541 445.343 595.745 431.646 600.391C404.251 609.87 379.078 616.561 360.939 622.136C356.311 623.437 352.239 624.738 348.722 625.854C345.205 626.969 342.059 627.898 339.467 628.827C337.061 629.571 335.025 630.314 333.729 630.686C333.174 630.872 332.619 631.058 332.249 631.243C331.878 631.429 331.693 631.429 331.693 631.429C331.693 631.429 331.878 631.429 332.249 631.243C332.619 631.058 333.174 630.872 333.729 630.686C335.025 630.128 337.061 629.571 339.467 628.641C341.874 627.712 345.02 626.783 348.537 625.482C352.054 624.367 356.126 623.066 360.754 621.579C378.893 615.817 404.066 608.94 431.275 599.648C444.973 595.001 457.744 589.797 469.035 584.593C471.812 583.292 474.588 581.991 477.364 580.69C479.956 579.389 482.547 577.902 484.953 576.787C489.951 574.371 494.393 571.583 498.465 569.167C499.391 568.609 500.502 568.052 501.427 567.494C502.352 566.937 503.278 566.193 504.203 565.636C506.054 564.52 507.72 563.405 509.201 562.29C510.682 561.175 512.163 560.246 513.458 559.316C514.754 558.387 515.865 557.458 516.975 556.714C519.011 555.228 520.677 553.927 521.788 552.997C522.343 552.626 522.713 552.254 523.083 552.068C523.639 551.696 523.824 551.51 523.824 551.51Z" fill="#455A64"/>
<path d="M527.525 567.308C527.525 567.308 526.97 567.68 526.044 568.052C525.119 568.424 523.638 569.167 521.787 569.725C518.085 571.026 512.902 572.698 507.164 573.999C501.241 575.3 495.873 575.858 491.986 576.23C489.95 576.415 488.47 576.415 487.359 576.415C486.248 576.415 485.693 576.415 485.693 576.23C485.693 576.044 488.099 575.858 491.986 575.486C495.873 575.114 501.241 574.371 506.979 573.07C512.717 571.769 517.9 570.282 521.602 569.167C525.119 568.052 527.34 567.123 527.525 567.308Z" fill="#455A64"/>
<path d="M455.338 485.717C455.523 485.903 423.501 511.179 383.89 542.032C344.28 573.07 311.888 597.975 311.888 597.603C311.703 597.417 343.724 572.141 383.335 541.102C422.761 510.436 455.153 485.531 455.338 485.717Z" fill="#455A64"/>
<path d="M447.6 610.847C440.396 606.941 432.453 609.359 425.619 611.591C421.001 613.079 416.383 615.497 411.765 614.195C408.44 613.265 405.854 610.475 403.453 608.057C393.109 598.385 378.885 593.176 364.847 594.106C360.783 594.292 356.904 595.966 354.318 598.943C347.299 606.569 352.656 616.613 358.936 623.123C370.019 634.47 385.166 641.91 400.867 643.584C413.982 644.886 431.899 643.212 445.199 637.446C453.326 633.911 457.575 624.239 453.326 616.241C451.848 614.009 450.001 612.149 447.6 610.847Z" fill="#F0B501"/>
<g opacity="0.4">
<path opacity="0.4" d="M446.639 616.747C439.42 612.844 431.461 615.26 424.612 617.49C419.985 618.977 415.357 621.393 410.73 620.092C407.398 619.163 404.807 616.375 402.4 613.959C392.035 604.294 377.783 599.09 363.715 600.019C359.643 600.205 355.756 601.878 353.165 604.852C351.684 606.524 350.758 608.383 350.203 610.242C351.314 614.888 354.275 619.349 357.792 622.88C368.898 634.217 384.076 641.652 399.809 643.324C412.951 644.625 430.905 642.952 444.232 637.191C449.23 635.146 452.562 630.686 453.672 625.854C453.302 624.553 452.932 623.437 452.376 622.136C450.896 619.906 449.045 618.048 446.639 616.747Z" fill="black"/>
</g>
<path d="M453.487 625.854C453.302 625.854 453.302 624.181 451.821 621.579C450.895 620.278 449.785 618.977 447.934 617.862C446.268 616.747 443.862 615.631 441.27 615.26C435.903 614.702 429.794 616.932 422.946 618.791C419.614 619.72 415.912 621.021 411.84 620.65C409.804 620.464 407.953 619.72 406.102 618.605C404.251 617.49 402.77 616.189 401.104 614.888C395.181 609.126 388.148 605.409 381.484 603.179C378.152 602.064 374.821 601.32 371.674 600.949C368.527 600.577 365.566 600.577 362.974 600.949C360.383 601.32 358.162 602.25 356.311 603.365C354.46 604.48 353.164 605.781 352.239 606.896C350.388 609.126 349.647 610.799 349.647 610.799C349.647 610.799 350.203 609.126 352.054 606.71C352.979 605.595 354.275 604.108 356.126 602.993C357.977 601.878 360.383 600.949 362.974 600.391C365.751 599.834 368.712 600.019 371.859 600.391C375.006 600.763 378.337 601.506 381.854 602.621C385.186 603.737 388.703 605.223 392.22 607.268C393.886 608.197 395.551 609.312 397.217 610.613C398.883 611.914 400.364 613.215 401.845 614.516C403.326 615.817 404.991 617.118 406.657 618.233C408.323 619.163 410.174 619.906 412.025 620.092C415.727 620.65 419.429 619.349 422.761 618.419C429.609 616.561 435.903 614.33 441.455 615.074C447.008 616.003 450.525 619.349 452.191 621.765C452.931 623.066 453.302 624.181 453.487 625.11C453.487 625.482 453.487 625.854 453.487 625.854Z" fill="#263238"/>
<path d="M453.487 625.854C453.302 625.854 453.302 624.181 451.821 621.579C450.895 620.278 449.785 618.977 447.934 617.862C446.268 616.747 443.862 615.631 441.27 615.26C435.903 614.702 429.794 616.932 422.946 618.791C419.614 619.72 415.912 621.021 411.84 620.65C409.804 620.464 407.953 619.72 406.102 618.605C404.251 617.49 402.77 616.189 401.104 614.888C395.181 609.126 388.148 605.409 381.484 603.179C378.152 602.064 374.821 601.32 371.674 600.949C368.527 600.577 365.566 600.577 362.974 600.949C360.383 601.32 358.162 602.25 356.311 603.365C354.46 604.48 353.164 605.781 352.239 606.896C350.388 609.126 349.647 610.799 349.647 610.799C349.647 610.799 350.203 609.126 352.054 606.71C352.979 605.595 354.275 604.108 356.126 602.993C357.977 601.878 360.383 600.949 362.974 600.391C365.751 599.834 368.712 600.019 371.859 600.391C375.006 600.763 378.337 601.506 381.854 602.621C385.186 603.737 388.703 605.223 392.22 607.268C393.886 608.197 395.551 609.312 397.217 610.613C398.883 611.914 400.364 613.215 401.845 614.516C403.326 615.817 404.991 617.118 406.657 618.233C408.323 619.163 410.174 619.906 412.025 620.092C415.727 620.65 419.429 619.349 422.761 618.419C429.609 616.561 435.903 614.33 441.455 615.074C447.008 616.003 450.525 619.349 452.191 621.765C452.931 623.066 453.302 624.181 453.487 625.11C453.487 625.482 453.487 625.854 453.487 625.854Z" fill="#263238"/>
<path d="M483.127 192C483.127 192 417.731 270.188 458.232 337.312L514.339 339L524 213.187L483.127 192Z" fill="#263238"/>
<path d="M550.107 217.71C554.735 218.268 558.067 222.171 558.067 226.817L552.699 347.067C552.514 361.192 531.783 369.184 516.605 368.812C501.242 368.441 500.872 361.006 500.687 347.439C500.316 324.95 500.316 316.4 500.316 316.586C500.316 316.586 481.066 313.241 476.994 287.964C474.958 275.326 475.698 254.696 476.809 237.969C477.735 222.728 487.915 204.142 502.908 205.815L550.107 217.71Z" fill="#FFBE9D"/>
<path d="M500.502 316.4C500.502 316.4 517.531 317.516 534.19 307.479C534.19 307.479 525.675 325.322 500.502 322.905V316.4Z" fill="#EB996E"/>
<path d="M524 214.145L536.413 272H565.071H577.302C577.302 272 582.778 227.956 563.063 216.758C543.349 205.56 524 214.145 524 214.145Z" fill="#263238"/>
<path d="M482 192.763C482 192.763 499.983 231.157 550.936 237.649C602.077 244.326 548.314 239.874 548.314 239.874C548.314 239.874 553.559 319.073 535.95 343L582.22 341.145C582.22 341.145 594.396 215.206 555.058 200.368C515.719 185.529 482 192.763 482 192.763Z" fill="#263238"/>
</svg>
