<svg width="763" height="731" viewBox="0 0 763 731" fill="none" xmlns="http://www.w3.org/2000/svg">
<path d="M0 693L763 693.102" stroke="#1A2E35" stroke-width="3"/>
<g clip-path="url(#clip0)">
<path d="M426.584 288.642C426.584 288.642 447.003 220.416 392.915 232.361C392.915 232.361 370.107 199.159 334.917 237.22C334.917 237.22 306.027 247.747 302.551 260.704C298.859 273.661 302.551 273.458 302.551 273.458C302.551 273.458 298.859 270.422 305.81 264.146C305.81 264.146 299.728 273.458 304.506 277.912C309.285 282.366 324.925 285.808 324.925 285.808L325.359 277.305C325.359 277.305 348.602 229.122 393.784 251.999C393.784 251.999 396.608 287.428 411.813 294.513C411.813 294.311 425.498 292.691 426.584 288.642Z" fill="#1B2E36"/>
<path d="M395.738 249.165C395.738 249.165 394.652 287.226 410.074 292.49C410.074 292.49 425.714 274.269 433.969 292.49C442.223 310.71 421.37 309.496 421.37 309.496L426.366 367.397C426.366 367.397 402.689 438.255 365.544 373.673L363.589 358.287C363.589 358.287 319.494 365.777 322.318 273.054C322.318 273.054 365.544 227.3 394 249.165" fill="#EEC6AC"/>
<path d="M426.801 359.299C426.801 359.299 405.079 433.396 365.328 370.434C365.328 370.434 324.925 359.906 209.364 497.573C93.8029 635.24 324.925 472.469 324.925 472.469L321.884 538.064L320.363 564.585L466.552 627.547L475.458 562.56C475.458 562.56 515.861 559.726 501.742 394.12C501.959 394.323 498.049 367.802 426.801 359.299Z" fill="#2BA24C"/>
<path d="M444.178 441.089L436.141 521.057L324.707 560.738V448.58" stroke="black" stroke-miterlimit="10"/>
<path d="M183.731 680.59C183.731 680.59 102.49 689.498 122.04 708.325C141.59 727.153 210.449 712.577 210.449 712.577L235.212 676.136L183.731 680.59Z" fill="#2BA24C"/>
<path d="M427.235 603.455C427.235 603.455 273.66 520.855 181.342 544.339C89.0235 567.824 258.455 680.387 258.455 680.387L377.057 671.074L427.235 603.455Z" fill="#1A2E35" stroke="#4D4D4D" stroke-miterlimit="10"/>
<path d="M320.363 644.755C320.363 644.755 236.516 572.885 216.966 572.278" stroke="#4D4D4D" stroke-miterlimit="10"/>
<path d="M233.257 578.959C233.257 578.959 236.081 568.836 227.609 566.002" stroke="#4D4D4D" stroke-miterlimit="10"/>
<path d="M302.333 656.903C302.333 656.903 372.278 721.687 353.597 730.19C334.916 738.693 270.619 677.755 270.619 677.755L302.333 656.903Z" fill="#2BA24C"/>
<path d="M309.937 460.727L342.737 561.143H407.903L384.66 576.124L205.888 571.873L157.014 457.083L309.937 460.727Z" fill="#B0BDC2"/>
<path d="M503.914 488.868C503.914 488.868 498.701 558.106 475.676 562.763C452.65 567.419 421.588 569.646 421.588 569.646" stroke="black" stroke-miterlimit="10"/>
<path d="M461.991 693.951C461.991 693.951 523.464 634.431 432.666 567.217C432.666 567.217 382.488 516.806 176.998 678.97L197.851 717.841L328.835 676.136C328.835 676.136 342.954 708.933 461.991 693.951Z" fill="#1A2E35" stroke="#4D4D4D" stroke-miterlimit="10"/>
<path d="M328.835 676.136L407.903 644.756" stroke="#4D4D4D" stroke-miterlimit="10"/>
<path opacity="0.3" d="M440.92 473.481C440.92 473.481 429.19 523.689 400.083 534.014C370.976 544.34 436.359 521.058 436.359 521.058L440.92 473.481Z" fill="black"/>
<path d="M278.767 456.258C278.767 456.258 278.767 455.515 278.767 454.214C278.767 452.913 278.767 450.868 278.767 448.266C278.767 443.062 278.767 435.628 278.767 425.777C278.767 406.448 278.573 378.384 278.573 344.186L278.961 344.558C224.773 344.558 153.883 344.558 76.7769 344.558L77.1653 344.186C77.1653 383.774 77.1653 421.689 77.1653 456.072L76.7769 455.701C136.014 455.701 186.512 455.886 222.249 455.886C240.117 455.886 254.295 455.886 264.006 456.072C268.862 456.072 272.552 456.072 275.077 456.072C276.242 456.072 277.213 456.072 277.99 456.072C278.378 456.258 278.767 456.258 278.767 456.258C278.767 456.258 278.378 456.258 277.796 456.258C277.213 456.258 276.242 456.258 274.882 456.258C272.358 456.258 268.667 456.258 263.812 456.258C254.101 456.258 239.923 456.258 222.054 456.444C186.318 456.444 135.626 456.63 76.3885 456.63H76V456.258C76 421.689 76 383.959 76 344.372V344H76.3885C153.494 344 224.385 344 278.573 344H278.961V344.372C278.961 378.755 278.767 406.82 278.767 426.149C278.767 435.814 278.767 443.434 278.767 448.452C278.767 451.054 278.767 452.913 278.767 454.214C278.767 455.7 278.767 456.258 278.767 456.258Z" fill="#E0E0E0"/>
<path d="M278.766 357.939C278.766 358.125 233.513 358.311 177.771 358.311C122.03 358.311 76.7764 358.125 76.7764 357.939C76.7764 357.753 122.03 357.568 177.771 357.568C233.513 357.568 278.766 357.753 278.766 357.939Z" fill="#E0E0E0"/>
<path d="M156.602 376.339H94.0625V436.186H156.602V376.339Z" fill="#F5F5F5"/>
<path d="M264.006 386.19C264.006 386.19 263.617 386.19 263.035 386.19C262.258 386.19 261.481 386.19 260.316 386.19C257.985 386.19 254.683 386.19 250.605 386.375C242.253 386.375 230.988 386.375 218.558 386.561C206.128 386.561 194.863 386.561 186.512 386.375C182.433 386.375 179.131 386.19 176.801 386.19C175.635 386.19 174.858 386.19 174.081 386.19C173.499 386.19 173.11 386.19 173.11 386.19C173.11 386.19 173.499 386.19 174.081 386.19C174.858 386.19 175.635 386.19 176.801 386.19C179.131 386.19 182.433 386.19 186.512 386.004C194.863 386.004 206.128 386.004 218.558 385.818C230.988 385.818 242.253 385.818 250.605 386.004C254.683 386.004 257.985 386.19 260.316 386.19C261.481 386.19 262.258 386.19 263.035 386.19C263.812 386.19 264.006 386.19 264.006 386.19Z" fill="#E0E0E0"/>
<path d="M266.143 399.571C266.143 399.571 265.754 399.571 265.172 399.571C264.395 399.571 263.618 399.571 262.452 399.571C259.928 399.571 256.626 399.571 252.547 399.757C244.001 399.757 232.542 399.757 219.918 399.943C207.294 399.943 195.64 399.943 187.289 399.757C183.21 399.757 179.908 399.571 177.384 399.571C176.218 399.571 175.441 399.571 174.664 399.571C174.082 399.571 173.693 399.571 173.693 399.571C173.693 399.571 174.082 399.571 174.664 399.571C175.441 399.571 176.218 399.571 177.384 399.571C179.908 399.571 183.21 399.571 187.289 399.386C195.835 399.386 207.294 399.386 219.918 399.2C232.542 399.2 244.196 399.2 252.547 399.386C256.626 399.386 259.928 399.571 262.452 399.571C263.618 399.571 264.395 399.571 265.172 399.571C265.754 399.571 266.143 399.571 266.143 399.571Z" fill="#E0E0E0"/>
<path d="M266.143 412.953C266.143 412.953 265.754 412.953 265.172 412.953C264.395 412.953 263.618 412.953 262.452 412.953C259.928 412.953 256.626 412.953 252.547 413.139C244.001 413.139 232.542 413.139 219.918 413.325C207.294 413.325 195.64 413.325 187.289 413.139C183.21 413.139 179.908 412.953 177.384 412.953C176.218 412.953 175.441 412.953 174.664 412.953C174.082 412.953 173.693 412.953 173.693 412.953C173.693 412.953 174.082 412.953 174.664 412.953C175.441 412.953 176.218 412.953 177.384 412.953C179.908 412.953 183.21 412.953 187.289 412.767C195.835 412.767 207.294 412.767 219.918 412.582C232.542 412.582 244.196 412.582 252.547 412.767C256.626 412.767 259.928 412.953 262.452 412.953C263.618 412.953 264.395 412.953 265.172 412.953C265.754 412.953 266.143 412.953 266.143 412.953Z" fill="#E0E0E0"/>
<path d="M266.143 426.335C266.143 426.335 265.754 426.335 265.172 426.335C264.395 426.335 263.618 426.335 262.452 426.335C259.928 426.335 256.626 426.335 252.547 426.521C244.001 426.521 232.542 426.521 219.918 426.707C207.294 426.707 195.64 426.707 187.289 426.521C183.21 426.521 179.908 426.335 177.384 426.335C176.218 426.335 175.441 426.335 174.664 426.335C174.082 426.335 173.693 426.335 173.693 426.335C173.693 426.335 174.082 426.335 174.664 426.335C175.441 426.335 176.218 426.335 177.384 426.335C179.908 426.335 183.21 426.335 187.289 426.149C195.835 426.149 207.294 426.149 219.918 425.963C232.542 425.963 244.196 425.963 252.547 426.149C256.626 426.149 259.928 426.335 262.452 426.335C263.618 426.335 264.395 426.335 265.172 426.335C265.754 426.149 266.143 426.335 266.143 426.335Z" fill="#E0E0E0"/>
</g>
<g clip-path="url(#clip1)">
<path d="M606.791 643.367C606.791 643.367 588.018 614.567 622.067 584.609C656.116 554.651 669.736 517.411 669.736 517.411C669.736 517.411 675.257 491.094 704.337 476.363C733.417 461.632 714.644 396.254 714.644 396.254" stroke="black" stroke-miterlimit="10"/>
<path d="M601.638 650.649L604.214 609.271C604.214 609.271 634.951 563.92 634.214 541.907C633.478 519.893 617.834 477.687 617.834 477.687C617.834 477.687 606.239 456.833 629.429 424.557C652.619 392.282 634.214 361.497 634.214 361.497" stroke="black" stroke-miterlimit="10"/>
<path d="M601.638 622.512C601.638 622.512 613.233 587.092 592.803 574.182C572.374 561.272 589.491 474.542 589.491 474.542C589.491 474.542 605.871 444.584 590.227 407.344" stroke="black" stroke-miterlimit="10"/>
<path d="M638.448 568.554C638.448 568.554 647.467 548.031 683.724 547.038C683.908 546.872 652.988 572.03 638.448 568.554Z" fill="#2BA24C"/>
<path d="M700.657 514.928C700.657 514.928 687.221 541.907 655.013 543.562C655.013 543.562 688.878 510.294 700.657 514.928Z" fill="#2BA24C"/>
<path d="M658.326 541.907C658.326 541.907 640.289 524.859 652.436 497.549C652.436 497.549 667.344 533.134 658.326 541.907Z" fill="#2BA24C"/>
<path d="M673.233 504.17C673.233 504.17 662.558 486.791 684.828 460.805C684.828 460.97 685.38 496.059 673.233 504.17Z" fill="#2BA24C"/>
<path d="M725.687 494.073C725.687 494.073 711.147 511.618 675.441 504.004C675.441 504.169 712.619 487.287 725.687 494.073Z" fill="#2BA24C"/>
<path d="M705.809 476.86C705.809 476.86 692.558 464.446 708.018 431.178C708.018 431.178 715.38 464.446 705.809 476.86Z" fill="#2BA24C"/>
<path d="M759 470.239C759 470.239 745.749 485.797 705.626 476.694C705.626 476.694 743.724 463.122 759 470.239Z" fill="#2BA24C"/>
<path d="M720.166 434.654C720.166 434.654 703.97 431.012 692.19 399.399C692.19 399.399 718.141 421.247 720.166 434.654Z" fill="#2BA24C"/>
<path d="M583.233 541.741C583.233 541.741 565.748 543.396 549 513.438C549 513.273 579.184 528.004 583.233 541.741Z" fill="#2BA24C"/>
<path d="M609.552 501.687C609.552 501.687 613.785 519.728 583.049 541.576C583.049 541.741 594.828 507.976 609.552 501.687Z" fill="#2BA24C"/>
<path d="M592.436 572.361C592.436 572.361 606.24 566.403 608.08 536.279C608.08 536.279 590.411 560.113 592.436 572.361Z" fill="#2BA24C"/>
<path d="M558.019 552.665C558.019 552.665 561.331 568.389 592.62 572.361C592.62 572.196 571.27 551.341 558.019 552.665Z" fill="#2BA24C"/>
<path d="M587.466 509.631C587.466 509.631 574.031 514.266 551.761 495.397C551.945 495.397 580.288 500.197 587.466 509.631Z" fill="#2BA24C"/>
<path d="M596.668 474.874C596.668 474.874 605.503 487.453 587.466 509.631C587.282 509.631 586.73 482.322 596.668 474.874Z" fill="#2BA24C"/>
<path d="M590.227 476.198C590.227 476.198 577.528 479.011 560.779 459.481C560.779 459.646 585.258 466.929 590.227 476.198Z" fill="#2BA24C"/>
<path d="M604.031 445.412C604.031 445.412 609.736 457.826 590.043 476.363C590.043 476.363 594.092 451.205 604.031 445.412Z" fill="#2BA24C"/>
<path d="M597.957 433.66C597.957 433.66 585.626 438.46 565.933 419.592C565.933 419.592 591.515 424.226 597.957 433.66Z" fill="#2BA24C"/>
<path d="M606.792 398.406C606.792 398.406 614.522 410.985 597.773 433.661C597.773 433.661 597.773 406.02 606.792 398.406Z" fill="#2BA24C"/>
<path d="M631.638 561.603C631.638 561.603 619.307 557.962 616.362 532.307C616.546 532.307 632.743 550.844 631.638 561.603Z" fill="#2BA24C"/>
<path d="M660.533 540.748C660.533 540.748 658.325 554.651 631.638 561.603C631.638 561.603 648.938 541.079 660.533 540.748Z" fill="#2BA24C"/>
<path d="M634.583 526.514C634.583 526.514 619.307 528.169 602.559 504.501C602.559 504.335 630.166 515.425 634.583 526.514Z" fill="#2BA24C"/>
<path d="M655.196 493.742C655.196 493.742 660.165 508.307 634.398 526.514C634.398 526.514 642.681 499.039 655.196 493.742Z" fill="#2BA24C"/>
<path d="M628.325 503.176C628.325 503.176 615.442 507.811 593.908 490.928C593.908 491.094 621.332 494.901 628.325 503.176Z" fill="#2BA24C"/>
<path d="M636.975 471.232C636.975 471.232 645.441 482.487 628.141 503.342C628.141 503.342 627.589 478.349 636.975 471.232Z" fill="#2BA24C"/>
<path d="M615.442 477.356C615.442 477.356 600.902 473.053 597.957 444.253C597.957 444.253 616.914 465.439 615.442 477.356Z" fill="#2BA24C"/>
<path d="M650.411 454.681C650.411 454.681 647.467 470.074 615.258 477.191C615.074 477.356 636.424 454.846 650.411 454.681Z" fill="#2BA24C"/>
<path d="M638.816 409.496C638.816 409.496 622.435 401.054 625.748 365.303C625.748 365.303 643.601 395.261 638.816 409.496Z" fill="#2BA24C"/>
<path d="M685.932 389.303C685.932 389.303 678.755 407.675 638.632 409.33C638.632 409.496 669.368 386.489 685.932 389.303Z" fill="#2BA24C"/>
<path d="M624.46 434.985C624.46 434.985 612.313 431.343 609.736 406.185C609.736 406.185 625.749 424.557 624.46 434.985Z" fill="#2BA24C"/>
<path d="M653.356 414.958C653.356 414.958 650.963 428.53 624.276 434.819C624.276 434.819 641.945 415.123 653.356 414.958Z" fill="#2BA24C"/>
<path d="M573.847 636.581H639.736L630.166 696H585.994L573.847 636.581Z" fill="#1A2E35"/>
</g>
<path d="M183.729 21.5595C183.729 21.5595 182.564 21.5595 180.816 22.4888C179.068 23.2322 176.543 24.905 174.989 28.0645C174.212 29.5514 173.824 31.41 173.824 33.4544C173.824 35.4989 174.406 37.5433 175.766 39.5877C176.349 40.517 177.125 41.4463 178.097 42.1897C179.068 42.9332 180.039 43.6766 181.204 44.0483C183.535 45.1635 186.448 45.3493 188.973 44.7917C191.692 44.2342 194.023 42.7473 195.771 40.8887C196.548 39.9594 197.324 38.8443 197.713 37.915C198.296 36.7999 198.49 35.6847 198.684 34.5696C199.072 32.3393 198.49 30.109 197.713 28.2504C196.936 26.3918 195.576 24.905 194.217 23.7898C191.498 21.5595 188.39 21.002 186.448 21.002C184.7 21.1878 183.729 21.5595 183.729 21.5595C183.729 21.5595 184.894 21.3737 186.836 21.3737C188.779 21.3737 191.692 22.1171 194.217 24.1615C195.576 25.2767 196.742 26.5777 197.519 28.4363C198.296 30.2948 198.684 32.3393 198.296 34.3837C198.101 35.4989 197.907 36.614 197.324 37.5433C196.936 38.6584 196.159 39.5877 195.382 40.517C193.828 42.3756 191.498 43.6766 188.973 44.2342C186.448 44.7917 183.729 44.42 181.592 43.4907C180.427 43.119 179.456 42.3756 178.485 41.6322C177.514 40.8887 176.737 40.1453 176.154 39.216C174.989 37.3574 174.406 35.313 174.212 33.4544C174.018 31.5958 174.601 29.7373 175.183 28.2504C176.543 25.2767 178.873 23.4181 180.621 22.6747C182.564 21.9312 183.729 21.7454 183.729 21.5595Z" fill="#E0E0E0"/>
<path d="M173.823 9.10703C173.823 9.10703 173.823 8.92117 173.823 8.73531C173.823 8.3636 173.823 7.99188 173.823 7.43431C173.823 6.31916 173.823 4.64644 173.823 2.41615V2.60201C176.737 2.04443 180.427 1.301 185.088 0.185858L184.894 0C185.865 1.85858 186.836 3.90301 187.807 5.94745V6.1333H188.002C190.332 6.31916 192.857 6.69088 195.382 7.43431H195.576C197.13 5.94745 198.684 4.46058 200.432 2.78787H200.043C203.151 4.64644 206.258 6.69088 209.754 8.73531L209.56 8.3636C208.783 10.2222 208.006 12.4525 207.229 14.6828V14.8686L207.424 15.0545C208.977 16.7272 210.531 18.5858 211.696 20.8161V21.0019H211.891C214.027 21.0019 216.358 21.0019 218.883 21.0019L218.494 20.8161C219.271 24.1615 220.048 27.8787 221.019 31.5958L221.213 31.2241C219.271 32.1534 217.135 33.0827 214.998 34.012H214.804V34.1978C214.804 36.4281 214.221 38.8443 213.445 41.0745V41.2604L213.639 41.4463C215.192 42.9331 216.746 44.6058 218.494 46.0927V45.721C216.552 48.6947 214.416 51.8543 212.279 55.0139L212.668 54.828C210.531 54.0846 208.395 53.3412 206.064 52.5977H205.87L205.676 52.7836C203.928 54.2704 201.985 55.7573 199.655 56.8725C199.655 57.0583 199.849 56.5007 199.461 57.2442V57.43V57.6159V57.9876V58.731V60.4037C199.461 61.5189 199.461 62.634 199.461 63.7492L199.655 63.3775C195.965 64.1209 192.08 65.0502 188.39 65.7936L188.778 65.9795C187.807 63.935 186.836 61.8906 185.865 60.032V59.8462H185.671C183.146 59.8462 180.815 59.2886 178.485 58.731H178.29L178.096 58.9169C176.348 60.5896 174.794 62.0765 173.241 63.5633H173.629C170.327 61.5189 167.026 59.6603 163.918 57.6159L164.112 57.9876C164.889 55.9432 165.666 53.7129 166.443 51.6684V51.4826L166.249 51.2967C164.501 49.4381 163.141 47.5796 161.976 45.5351V45.3493H161.782C159.451 45.3493 157.12 45.3493 154.79 45.3493L154.984 45.5351C154.013 41.818 153.236 38.2867 152.459 34.7554L152.265 35.1271C154.401 34.1978 156.538 33.2685 158.48 32.3392H158.674V32.1534C158.868 29.5514 159.257 27.3211 159.839 25.0908V24.9049L159.645 24.7191C157.897 23.0464 156.343 21.5595 154.79 20.0726V20.2585C157.12 16.7272 159.257 13.5676 160.811 10.9656H160.616C163.141 11.8949 165.472 12.6383 167.22 13.1959C168.968 11.5232 170.716 10.5939 171.687 9.85046C172.27 9.47874 172.658 9.29288 172.852 9.10703C173.629 9.10703 173.823 9.10703 173.823 9.10703C173.823 9.10703 173.629 9.10703 173.435 9.29288C173.241 9.47874 172.658 9.6646 172.27 9.85046C171.104 10.408 169.551 11.5232 167.803 13.01H167.997C166.249 12.4525 164.112 11.709 161.393 10.7797H161.199V10.9656C159.451 13.5676 157.509 16.5413 154.984 20.2585V20.4443L155.178 20.6302C156.732 22.1171 158.286 23.6039 160.034 25.2766V25.0908C159.257 27.3211 158.868 29.5514 158.674 32.1534L158.868 31.9675C156.926 32.8968 154.79 33.8261 152.653 34.7554H152.459V34.9412C153.236 38.2867 154.013 41.818 154.984 45.721V45.9068H155.178C157.509 45.9068 159.645 45.9068 162.17 45.9068L161.976 45.721C163.141 47.7654 164.501 49.8099 166.249 51.6684V51.2967C165.472 53.3412 164.695 55.3856 163.918 57.6159V57.8017L164.112 57.9876C167.22 59.8462 170.522 61.8906 173.823 63.935L174.018 64.1209L174.212 63.935C175.766 62.4482 177.514 60.7755 179.067 59.2886H178.679C181.01 60.032 183.534 60.4037 186.059 60.5896L185.671 60.4037C186.642 62.4482 187.613 64.3068 188.584 66.3512L188.778 66.5371H188.973C192.663 65.7936 196.353 64.8643 200.237 64.1209H200.432V63.935C200.432 62.8199 200.432 61.7048 200.432 60.5896V58.9169V58.1735V57.8017V57.6159V57.43C200.043 57.9876 200.237 57.6159 200.237 57.8017C202.568 56.6866 204.705 55.1997 206.453 53.7129H206.064C208.395 54.4563 210.531 55.1997 212.668 55.9432H212.862L213.056 55.7573C215.192 52.5977 217.329 49.4381 219.271 46.4644L219.465 46.2786L219.271 46.0927C217.523 44.42 215.969 42.9331 214.416 41.4463V41.818C215.193 39.4018 215.581 36.9857 215.775 34.7554L215.581 34.9412C217.717 34.012 219.854 32.8968 221.796 32.1534L221.99 31.9675V31.7817C221.019 28.0645 220.242 24.3474 219.465 21.0019V20.8161H219.271C216.94 20.8161 214.416 20.8161 212.279 20.8161L212.473 21.0019C211.308 18.7716 209.754 16.7272 208.201 15.0545V15.4262C208.977 13.1959 209.754 11.1515 210.531 9.10703V8.92117L210.337 8.73531C206.841 6.69088 203.733 4.64644 200.626 2.97372L200.432 2.78787L200.237 2.97372C198.489 4.64644 196.936 6.1333 195.382 7.62016H195.576C193.051 6.87673 190.526 6.50502 188.196 6.31916L188.39 6.50502C187.225 4.27473 186.254 2.41615 185.477 0.557573V0.371715H185.282C180.815 1.301 176.931 2.23029 174.018 2.78787C174.018 4.8323 174.018 6.50502 174.018 7.62016C174.018 8.17774 174.018 8.54945 174.018 8.92117C173.823 8.92117 173.823 9.10703 173.823 9.10703Z" fill="#E0E0E0"/>
<path d="M183.729 21.5595C183.729 21.5595 182.564 21.5595 180.816 22.4888C179.068 23.2322 176.543 24.905 174.989 28.0645C174.212 29.5514 173.824 31.41 173.824 33.4544C173.824 35.4989 174.406 37.5433 175.766 39.5877C176.349 40.517 177.125 41.4463 178.097 42.1897C179.068 42.9332 180.039 43.6766 181.204 44.0483C183.535 45.1635 186.448 45.3493 188.973 44.7917C191.692 44.2342 194.023 42.7473 195.771 40.8887C196.548 39.9594 197.324 38.8443 197.713 37.915C198.296 36.7999 198.49 35.6847 198.684 34.5696C199.072 32.3393 198.49 30.109 197.713 28.2504C196.936 26.3918 195.576 24.905 194.217 23.7898C191.498 21.5595 188.39 21.002 186.448 21.002C184.7 21.1878 183.729 21.5595 183.729 21.5595C183.729 21.5595 184.894 21.3737 186.836 21.3737C188.779 21.3737 191.692 22.1171 194.217 24.1615C195.576 25.2767 196.742 26.5777 197.519 28.4363C198.296 30.2948 198.684 32.3393 198.296 34.3837C198.101 35.4989 197.907 36.614 197.324 37.5433C196.936 38.6584 196.159 39.5877 195.382 40.517C193.828 42.3756 191.498 43.6766 188.973 44.2342C186.448 44.7917 183.729 44.42 181.592 43.4907C180.427 43.119 179.456 42.3756 178.485 41.6322C177.514 40.8887 176.737 40.1453 176.154 39.216C174.989 37.3574 174.406 35.313 174.212 33.4544C174.018 31.5958 174.601 29.7373 175.183 28.2504C176.543 25.2767 178.873 23.4181 180.621 22.6747C182.564 21.9312 183.729 21.7454 183.729 21.5595Z" fill="#E0E0E0"/>
<path d="M173.823 9.10703C173.823 9.10703 173.823 8.92117 173.823 8.73531C173.823 8.3636 173.823 7.99188 173.823 7.43431C173.823 6.31916 173.823 4.64644 173.823 2.41615V2.60201C176.737 2.04443 180.427 1.301 185.088 0.185858L184.894 0C185.865 1.85858 186.836 3.90301 187.807 5.94745V6.1333H188.002C190.332 6.31916 192.857 6.69088 195.382 7.43431H195.576C197.13 5.94745 198.684 4.46058 200.432 2.78787H200.043C203.151 4.64644 206.258 6.69088 209.754 8.73531L209.56 8.3636C208.783 10.2222 208.006 12.4525 207.229 14.6828V14.8686L207.424 15.0545C208.977 16.7272 210.531 18.5858 211.696 20.8161V21.0019H211.891C214.027 21.0019 216.358 21.0019 218.883 21.0019L218.494 20.8161C219.271 24.1615 220.048 27.8787 221.019 31.5958L221.213 31.2241C219.271 32.1534 217.135 33.0827 214.998 34.012H214.804V34.1978C214.804 36.4281 214.221 38.8443 213.445 41.0745V41.2604L213.639 41.4463C215.192 42.9331 216.746 44.6058 218.494 46.0927V45.721C216.552 48.6947 214.416 51.8543 212.279 55.0139L212.668 54.828C210.531 54.0846 208.395 53.3412 206.064 52.5977H205.87L205.676 52.7836C203.928 54.2704 201.985 55.7573 199.655 56.8725C199.655 57.0583 199.849 56.5007 199.461 57.2442V57.43V57.6159V57.9876V58.731V60.4037C199.461 61.5189 199.461 62.634 199.461 63.7492L199.655 63.3775C195.965 64.1209 192.08 65.0502 188.39 65.7936L188.778 65.9795C187.807 63.935 186.836 61.8906 185.865 60.032V59.8462H185.671C183.146 59.8462 180.815 59.2886 178.485 58.731H178.29L178.096 58.9169C176.348 60.5896 174.794 62.0765 173.241 63.5633H173.629C170.327 61.5189 167.026 59.6603 163.918 57.6159L164.112 57.9876C164.889 55.9432 165.666 53.7129 166.443 51.6684V51.4826L166.249 51.2967C164.501 49.4381 163.141 47.5796 161.976 45.5351V45.3493H161.782C159.451 45.3493 157.12 45.3493 154.79 45.3493L154.984 45.5351C154.013 41.818 153.236 38.2867 152.459 34.7554L152.265 35.1271C154.401 34.1978 156.538 33.2685 158.48 32.3392H158.674V32.1534C158.868 29.5514 159.257 27.3211 159.839 25.0908V24.9049L159.645 24.7191C157.897 23.0464 156.343 21.5595 154.79 20.0726V20.2585C157.12 16.7272 159.257 13.5676 160.811 10.9656H160.616C163.141 11.8949 165.472 12.6383 167.22 13.1959C168.968 11.5232 170.716 10.5939 171.687 9.85046C172.27 9.47874 172.658 9.29288 172.852 9.10703C173.629 9.10703 173.823 9.10703 173.823 9.10703C173.823 9.10703 173.629 9.10703 173.435 9.29288C173.241 9.47874 172.658 9.6646 172.27 9.85046C171.104 10.408 169.551 11.5232 167.803 13.01H167.997C166.249 12.4525 164.112 11.709 161.393 10.7797H161.199V10.9656C159.451 13.5676 157.509 16.5413 154.984 20.2585V20.4443L155.178 20.6302C156.732 22.1171 158.286 23.6039 160.034 25.2766V25.0908C159.257 27.3211 158.868 29.5514 158.674 32.1534L158.868 31.9675C156.926 32.8968 154.79 33.8261 152.653 34.7554H152.459V34.9412C153.236 38.2867 154.013 41.818 154.984 45.721V45.9068H155.178C157.509 45.9068 159.645 45.9068 162.17 45.9068L161.976 45.721C163.141 47.7654 164.501 49.8099 166.249 51.6684V51.2967C165.472 53.3412 164.695 55.3856 163.918 57.6159V57.8017L164.112 57.9876C167.22 59.8462 170.522 61.8906 173.823 63.935L174.018 64.1209L174.212 63.935C175.766 62.4482 177.514 60.7755 179.067 59.2886H178.679C181.01 60.032 183.534 60.4037 186.059 60.5896L185.671 60.4037C186.642 62.4482 187.613 64.3068 188.584 66.3512L188.778 66.5371H188.973C192.663 65.7936 196.353 64.8643 200.237 64.1209H200.432V63.935C200.432 62.8199 200.432 61.7048 200.432 60.5896V58.9169V58.1735V57.8017V57.6159V57.43C200.043 57.9876 200.237 57.6159 200.237 57.8017C202.568 56.6866 204.705 55.1997 206.453 53.7129H206.064C208.395 54.4563 210.531 55.1997 212.668 55.9432H212.862L213.056 55.7573C215.192 52.5977 217.329 49.4381 219.271 46.4644L219.465 46.2786L219.271 46.0927C217.523 44.42 215.969 42.9331 214.416 41.4463V41.818C215.193 39.4018 215.581 36.9857 215.775 34.7554L215.581 34.9412C217.717 34.012 219.854 32.8968 221.796 32.1534L221.99 31.9675V31.7817C221.019 28.0645 220.242 24.3474 219.465 21.0019V20.8161H219.271C216.94 20.8161 214.416 20.8161 212.279 20.8161L212.473 21.0019C211.308 18.7716 209.754 16.7272 208.201 15.0545V15.4262C208.977 13.1959 209.754 11.1515 210.531 9.10703V8.92117L210.337 8.73531C206.841 6.69088 203.733 4.64644 200.626 2.97372L200.432 2.78787L200.237 2.97372C198.489 4.64644 196.936 6.1333 195.382 7.62016H195.576C193.051 6.87673 190.526 6.50502 188.196 6.31916L188.39 6.50502C187.225 4.27473 186.254 2.41615 185.477 0.557573V0.371715H185.282C180.815 1.301 176.931 2.23029 174.018 2.78787C174.018 4.8323 174.018 6.50502 174.018 7.62016C174.018 8.17774 174.018 8.54945 174.018 8.92117C173.823 8.92117 173.823 9.10703 173.823 9.10703Z" fill="#E0E0E0"/>
<g opacity="0.8">
<g opacity="0.8">
<g opacity="0.8">
<path opacity="0.8" fill-rule="evenodd" clip-rule="evenodd" d="M62.5342 51.0282C58.0671 53.2585 53.9884 56.0464 50.4924 59.2059L37.4797 54.7453L25.2437 73.1453L34.9548 82.4381C33.401 86.8987 32.6241 91.5452 32.4299 96.3775L19.9998 101.953L25.0495 123.141H38.8392C41.1698 127.416 44.0832 131.319 47.385 134.664L42.7236 147.117L61.9515 158.826L71.6626 149.533C76.3239 151.02 81.1794 151.763 86.2292 151.949L92.0558 163.844L114.197 159.012V145.816C118.664 143.585 122.743 140.797 126.239 137.638L139.252 142.098L151.487 123.699L141.776 114.406C143.33 109.945 144.107 105.299 144.301 100.466L156.731 94.8906L151.682 73.7028H137.892C135.561 69.4281 132.648 65.5251 129.346 62.1797L134.008 49.7272L114.78 38.0182L105.069 47.311C100.407 45.8242 95.5518 45.0808 90.502 44.8949L84.6754 33L62.5342 37.8323V51.0282ZM82.1505 76.119C95.3576 73.3311 108.37 81.1371 111.284 93.7755C114.197 106.414 106.04 118.866 92.8327 121.654C79.6257 124.442 66.6128 116.636 63.6995 103.998C60.7862 91.3593 68.9435 78.9068 82.1505 76.119Z" fill="#EBEBEB"/>
</g>
</g>
</g>
<g opacity="0.8">
<g opacity="0.8">
<g opacity="0.8">
<path opacity="0.8" fill-rule="evenodd" clip-rule="evenodd" d="M62.5342 51.0282C58.0671 53.2585 53.9884 56.0464 50.4924 59.2059L37.4797 54.7453L25.2437 73.1453L34.9548 82.4381C33.401 86.8987 32.6241 91.5452 32.4299 96.3775L19.9998 101.953L25.0495 123.141H38.8392C41.1698 127.416 44.0832 131.319 47.385 134.664L42.7236 147.117L61.9515 158.826L71.6626 149.533C76.3239 151.02 81.1794 151.763 86.2292 151.949L92.0558 163.844L114.197 159.012V145.816C118.664 143.585 122.743 140.797 126.239 137.638L139.252 142.098L151.487 123.699L141.776 114.406C143.33 109.945 144.107 105.299 144.301 100.466L156.731 94.8906L151.682 73.7028H137.892C135.561 69.4281 132.648 65.5251 129.346 62.1797L134.008 49.7272L114.78 38.0182L105.069 47.311C100.407 45.8242 95.5518 45.0808 90.502 44.8949L84.6754 33L62.5342 37.8323V51.0282ZM82.1505 76.119C95.3576 73.3311 108.37 81.1371 111.284 93.7755C114.197 106.414 106.04 118.866 92.8327 121.654C79.6257 124.442 66.6128 116.636 63.6995 103.998C60.7862 91.3593 68.9435 78.9068 82.1505 76.119Z" fill="#EBEBEB"/>
</g>
</g>
</g>
<path d="M131.094 252.023C131.094 252.023 129.928 252.023 128.18 252.952C126.432 253.696 123.907 255.369 122.354 258.528C121.577 260.015 121.188 261.874 121.188 263.918C121.188 265.962 121.771 268.007 123.131 270.051C123.713 270.981 124.49 271.91 125.461 272.653C126.432 273.397 127.403 274.14 128.569 274.512C130.899 275.627 133.813 275.813 136.338 275.255C139.057 274.698 141.387 273.211 143.135 271.352C143.912 270.423 144.689 269.308 145.078 268.379C145.66 267.263 145.855 266.148 146.049 265.033C146.437 262.803 145.855 260.573 145.078 258.714C144.301 256.855 142.941 255.369 141.582 254.253C138.863 252.023 135.755 251.466 133.813 251.466C132.259 251.651 131.094 252.023 131.094 252.023C131.094 252.023 132.259 251.837 134.201 251.837C136.143 251.837 139.057 252.581 141.582 254.625C142.941 255.74 144.106 257.041 144.883 258.9C145.66 260.758 146.049 262.803 145.66 264.847C145.466 265.962 145.272 267.078 144.689 268.007C144.301 269.122 143.524 270.051 142.747 270.981C141.193 272.839 138.863 274.14 136.338 274.698C133.813 275.255 131.094 274.884 128.957 273.954C127.792 273.583 126.821 272.839 125.85 272.096C124.879 271.352 124.102 270.609 123.519 269.68C122.354 267.821 121.771 265.777 121.577 263.918C121.383 262.059 121.965 260.201 122.548 258.714C123.907 255.74 126.238 253.882 127.986 253.138C130.123 252.395 131.094 252.209 131.094 252.023Z" fill="#263238"/>
<path d="M121.189 239.385C121.189 239.385 121.189 239.199 121.189 239.013C121.189 238.641 121.189 238.27 121.189 237.712C121.189 236.597 121.189 234.924 121.189 232.694V232.88C124.102 232.322 127.792 231.579 132.453 230.464L132.259 230.278C133.23 232.136 134.201 234.181 135.172 236.225V236.411H135.367C137.697 236.597 140.222 236.969 142.747 237.712H142.941L143.136 237.526C144.689 236.039 146.243 234.553 147.991 232.88H147.603C150.71 234.738 153.818 236.783 157.314 238.827L157.119 238.456C156.343 240.314 155.566 242.544 154.789 244.775V244.961L154.983 245.146C156.537 246.819 158.091 248.678 159.256 250.908V251.094H159.45C161.587 251.094 163.917 251.094 166.442 251.094L166.054 250.908C166.83 254.253 167.607 257.971 168.578 261.688L168.773 261.316C166.831 262.245 164.694 263.175 162.558 264.104H162.363V264.29C162.363 266.52 161.781 268.936 161.004 271.167V271.352L161.198 271.538C162.752 273.025 164.306 274.698 166.054 276.185V275.813C164.111 278.787 161.975 281.946 159.839 285.106L160.227 284.92C158.091 284.177 155.954 283.433 153.623 282.69H153.429L153.235 282.876C151.487 284.362 149.545 285.849 147.214 286.964C147.214 287.15 147.408 286.593 147.02 287.336V287.522V287.708V288.08V288.823V290.496C147.02 291.611 147.02 292.726 147.02 293.841L147.214 293.469C143.524 294.213 139.64 295.142 135.949 295.886L136.338 296.071C135.367 294.027 134.396 291.983 133.424 290.124V289.938H133.23C130.705 289.938 128.375 289.381 126.044 288.823H125.85L125.656 289.009C123.908 290.682 122.354 292.168 120.8 293.655H121.189C117.887 291.611 114.585 289.752 111.477 287.708L111.672 288.08C112.449 286.035 113.225 283.805 114.002 281.76V281.575L113.808 281.389C112.06 279.53 110.701 277.672 109.535 275.627V275.441H109.341C107.01 275.441 104.68 275.441 102.349 275.441L102.543 275.627C101.572 271.91 100.795 268.379 100.018 264.847L99.8242 265.219C101.961 264.29 104.097 263.361 106.039 262.431H106.233V262.245C106.428 259.643 106.816 257.413 107.399 255.183V254.997L107.205 254.811C105.457 253.138 103.903 251.651 102.349 250.165V250.35C104.68 246.819 106.816 243.66 108.37 241.058H108.176C110.701 241.987 113.031 242.73 114.779 243.288C116.527 241.615 118.275 240.686 119.246 239.942C119.829 239.571 120.217 239.385 120.412 239.199C121.188 239.571 121.189 239.385 121.189 239.385C121.189 239.385 120.994 239.385 120.8 239.571C120.606 239.757 120.023 239.942 119.635 240.128C118.469 240.686 116.916 241.801 115.168 243.288H115.362C113.614 242.73 111.477 241.987 108.758 241.058H108.564V241.243C106.816 243.845 104.68 246.819 102.349 250.536V250.722C103.903 252.209 105.457 253.696 107.205 255.369V255.183C106.428 257.413 106.039 259.643 105.845 262.245L106.039 262.06C104.097 262.989 101.961 263.918 99.8242 264.847H99.63V265.033C100.407 268.379 101.184 271.91 102.155 275.813V275.999H102.349C104.68 275.999 106.816 275.999 109.341 275.999L109.147 275.813C110.312 277.857 111.672 279.902 113.42 281.76V281.389C112.643 283.433 111.866 285.478 111.089 287.708V287.894L111.283 288.08C114.391 289.938 117.693 291.983 120.994 294.027L121.189 294.213L121.383 294.027C122.936 292.54 124.684 290.867 126.238 289.381H125.85C128.18 290.124 130.705 290.496 133.23 290.682L132.842 290.496C133.813 292.54 134.784 294.399 135.755 296.443L135.949 296.629H136.144C139.834 295.886 143.524 294.956 147.408 294.213H147.603V294.027C147.603 292.912 147.603 291.797 147.603 290.682V289.009V288.265V287.894V287.708V287.522C147.214 288.08 147.408 287.708 147.408 287.894C149.739 286.779 151.875 285.292 153.623 283.805H153.235C155.566 284.548 157.702 285.292 159.839 286.035H160.033L160.227 285.849C162.363 282.69 164.5 279.53 166.442 276.556L166.636 276.371L166.442 276.185C164.694 274.512 163.14 273.025 161.587 271.538V271.91C162.363 269.494 162.752 267.078 162.946 264.847L162.752 265.033C164.888 264.104 167.025 262.989 168.967 262.245L169.161 262.06V261.874C168.19 258.156 167.413 254.439 166.636 251.094V250.908H166.442C164.111 250.908 161.587 250.908 159.45 250.908L159.644 251.094C158.479 248.864 156.925 246.819 155.371 245.146V245.518C156.148 243.288 156.925 241.243 157.702 239.199V239.013L157.508 238.827C154.012 236.783 150.904 234.738 147.797 233.066L147.603 232.88L147.408 233.066C145.66 234.738 144.107 236.225 142.553 237.712H142.747C140.222 236.969 137.697 236.597 135.367 236.411L135.561 236.597C134.396 234.367 133.424 232.508 132.648 230.65V230.464H132.453C127.986 231.393 124.102 232.322 121.189 232.88C121.189 234.924 121.189 236.597 121.189 237.712C121.189 238.27 121.189 238.641 121.189 239.013C121.189 239.385 121.189 239.385 121.189 239.385Z" fill="#263238"/>
<path d="M131.094 252.023C131.094 252.023 129.928 252.023 128.18 252.952C126.432 253.696 123.907 255.369 122.354 258.528C121.577 260.015 121.188 261.874 121.188 263.918C121.188 265.962 121.771 268.007 123.131 270.051C123.713 270.981 124.49 271.91 125.461 272.653C126.432 273.397 127.403 274.14 128.569 274.512C130.899 275.627 133.813 275.813 136.338 275.255C139.057 274.698 141.387 273.211 143.135 271.352C143.912 270.423 144.689 269.308 145.078 268.379C145.66 267.263 145.855 266.148 146.049 265.033C146.437 262.803 145.855 260.573 145.078 258.714C144.301 256.855 142.941 255.369 141.582 254.253C138.863 252.023 135.755 251.466 133.813 251.466C132.259 251.651 131.094 252.023 131.094 252.023C131.094 252.023 132.259 251.837 134.201 251.837C136.143 251.837 139.057 252.581 141.582 254.625C142.941 255.74 144.106 257.041 144.883 258.9C145.66 260.758 146.049 262.803 145.66 264.847C145.466 265.962 145.272 267.078 144.689 268.007C144.301 269.122 143.524 270.051 142.747 270.981C141.193 272.839 138.863 274.14 136.338 274.698C133.813 275.255 131.094 274.884 128.957 273.954C127.792 273.583 126.821 272.839 125.85 272.096C124.879 271.352 124.102 270.609 123.519 269.68C122.354 267.821 121.771 265.777 121.577 263.918C121.383 262.059 121.965 260.201 122.548 258.714C123.907 255.74 126.238 253.882 127.986 253.138C130.123 252.395 131.094 252.209 131.094 252.023Z" fill="#263238"/>
<path d="M121.189 239.385C121.189 239.385 121.189 239.199 121.189 239.013C121.189 238.641 121.189 238.27 121.189 237.712C121.189 236.597 121.189 234.924 121.189 232.694V232.88C124.102 232.322 127.792 231.579 132.453 230.464L132.259 230.278C133.23 232.136 134.201 234.181 135.172 236.225V236.411H135.367C137.697 236.597 140.222 236.969 142.747 237.712H142.941L143.136 237.526C144.689 236.039 146.243 234.553 147.991 232.88H147.603C150.71 234.738 153.818 236.783 157.314 238.827L157.119 238.456C156.343 240.314 155.566 242.544 154.789 244.775V244.961L154.983 245.146C156.537 246.819 158.091 248.678 159.256 250.908V251.094H159.45C161.587 251.094 163.917 251.094 166.442 251.094L166.054 250.908C166.83 254.253 167.607 257.971 168.578 261.688L168.773 261.316C166.831 262.245 164.694 263.175 162.558 264.104H162.363V264.29C162.363 266.52 161.781 268.936 161.004 271.167V271.352L161.198 271.538C162.752 273.025 164.306 274.698 166.054 276.185V275.813C164.111 278.787 161.975 281.946 159.839 285.106L160.227 284.92C158.091 284.177 155.954 283.433 153.623 282.69H153.429L153.235 282.876C151.487 284.362 149.545 285.849 147.214 286.964C147.214 287.15 147.408 286.593 147.02 287.336V287.522V287.708V288.08V288.823V290.496C147.02 291.611 147.02 292.726 147.02 293.841L147.214 293.469C143.524 294.213 139.64 295.142 135.949 295.886L136.338 296.071C135.367 294.027 134.396 291.983 133.424 290.124V289.938H133.23C130.705 289.938 128.375 289.381 126.044 288.823H125.85L125.656 289.009C123.908 290.682 122.354 292.168 120.8 293.655H121.189C117.887 291.611 114.585 289.752 111.477 287.708L111.672 288.08C112.449 286.035 113.225 283.805 114.002 281.76V281.575L113.808 281.389C112.06 279.53 110.701 277.672 109.535 275.627V275.441H109.341C107.01 275.441 104.68 275.441 102.349 275.441L102.543 275.627C101.572 271.91 100.795 268.379 100.018 264.847L99.8242 265.219C101.961 264.29 104.097 263.361 106.039 262.431H106.233V262.245C106.428 259.643 106.816 257.413 107.399 255.183V254.997L107.205 254.811C105.457 253.138 103.903 251.651 102.349 250.165V250.35C104.68 246.819 106.816 243.66 108.37 241.058H108.176C110.701 241.987 113.031 242.73 114.779 243.288C116.527 241.615 118.275 240.686 119.246 239.942C119.829 239.571 120.217 239.385 120.412 239.199C121.188 239.571 121.189 239.385 121.189 239.385C121.189 239.385 120.994 239.385 120.8 239.571C120.606 239.757 120.023 239.942 119.635 240.128C118.469 240.686 116.916 241.801 115.168 243.288H115.362C113.614 242.73 111.477 241.987 108.758 241.058H108.564V241.243C106.816 243.845 104.68 246.819 102.349 250.536V250.722C103.903 252.209 105.457 253.696 107.205 255.369V255.183C106.428 257.413 106.039 259.643 105.845 262.245L106.039 262.06C104.097 262.989 101.961 263.918 99.8242 264.847H99.63V265.033C100.407 268.379 101.184 271.91 102.155 275.813V275.999H102.349C104.68 275.999 106.816 275.999 109.341 275.999L109.147 275.813C110.312 277.857 111.672 279.902 113.42 281.76V281.389C112.643 283.433 111.866 285.478 111.089 287.708V287.894L111.283 288.08C114.391 289.938 117.693 291.983 120.994 294.027L121.189 294.213L121.383 294.027C122.936 292.54 124.684 290.867 126.238 289.381H125.85C128.18 290.124 130.705 290.496 133.23 290.682L132.842 290.496C133.813 292.54 134.784 294.399 135.755 296.443L135.949 296.629H136.144C139.834 295.886 143.524 294.956 147.408 294.213H147.603V294.027C147.603 292.912 147.603 291.797 147.603 290.682V289.009V288.265V287.894V287.708V287.522C147.214 288.08 147.408 287.708 147.408 287.894C149.739 286.779 151.875 285.292 153.623 283.805H153.235C155.566 284.548 157.702 285.292 159.839 286.035H160.033L160.227 285.849C162.363 282.69 164.5 279.53 166.442 276.556L166.636 276.371L166.442 276.185C164.694 274.512 163.14 273.025 161.587 271.538V271.91C162.363 269.494 162.752 267.078 162.946 264.847L162.752 265.033C164.888 264.104 167.025 262.989 168.967 262.245L169.161 262.06V261.874C168.19 258.156 167.413 254.439 166.636 251.094V250.908H166.442C164.111 250.908 161.587 250.908 159.45 250.908L159.644 251.094C158.479 248.864 156.925 246.819 155.371 245.146V245.518C156.148 243.288 156.925 241.243 157.702 239.199V239.013L157.508 238.827C154.012 236.783 150.904 234.738 147.797 233.066L147.603 232.88L147.408 233.066C145.66 234.738 144.107 236.225 142.553 237.712H142.747C140.222 236.969 137.697 236.597 135.367 236.411L135.561 236.597C134.396 234.367 133.424 232.508 132.648 230.65V230.464H132.453C127.986 231.393 124.102 232.322 121.189 232.88C121.189 234.924 121.189 236.597 121.189 237.712C121.189 238.27 121.189 238.641 121.189 239.013C121.189 239.385 121.189 239.385 121.189 239.385Z" fill="#263238"/>
<path fill-rule="evenodd" clip-rule="evenodd" d="M142.359 156.12C139.834 157.421 137.698 158.908 135.561 160.767L128.375 158.351L121.578 168.573L127.016 173.777C126.239 176.193 125.656 178.981 125.656 181.583L118.664 184.743L121.383 196.637H128.958C130.318 199.054 131.871 201.098 133.814 203.142L131.289 210.019L141.971 216.524L147.409 211.32C149.934 212.064 152.847 212.621 155.566 212.621L158.868 219.312L171.298 216.71V209.462C173.823 208.161 175.959 206.674 178.096 204.815L185.282 207.231L192.08 197.009L186.642 191.805C187.419 189.389 188.001 186.601 188.001 183.999L194.993 180.84L192.274 168.945H184.699C183.34 166.529 181.786 164.484 179.844 162.44L182.369 155.563L171.687 149.058L166.248 154.262C163.724 153.518 160.81 152.961 158.091 152.961L154.789 146.27L142.359 148.872V156.12ZM153.236 170.06C160.616 168.573 167.802 172.848 169.55 179.91C171.104 186.973 166.637 193.85 159.256 195.522C151.876 197.009 144.69 192.734 142.942 185.672C141.388 178.609 146.049 171.547 153.236 170.06Z" fill="#F0B501"/>
<path fill-rule="evenodd" clip-rule="evenodd" d="M142.359 156.12C139.834 157.421 137.698 158.908 135.561 160.767L128.375 158.351L121.578 168.573L127.016 173.777C126.239 176.193 125.656 178.981 125.656 181.583L118.664 184.743L121.383 196.637H128.958C130.318 199.054 131.871 201.098 133.814 203.142L131.289 210.019L141.971 216.524L147.409 211.32C149.934 212.064 152.847 212.621 155.566 212.621L158.868 219.312L171.298 216.71V209.462C173.823 208.161 175.959 206.674 178.096 204.815L185.282 207.231L192.08 197.009L186.642 191.805C187.419 189.389 188.001 186.601 188.001 183.999L194.993 180.84L192.274 168.945H184.699C183.34 166.529 181.786 164.484 179.844 162.44L182.369 155.563L171.687 149.058L166.248 154.262C163.724 153.518 160.81 152.961 158.091 152.961L154.789 146.27L142.359 148.872V156.12ZM153.236 170.06C160.616 168.573 167.802 172.848 169.55 179.91C171.104 186.973 166.637 193.85 159.256 195.522C151.876 197.009 144.69 192.734 142.942 185.672C141.388 178.609 146.049 171.547 153.236 170.06Z" fill="#F0B501"/>
<g opacity="0.8">
<g opacity="0.8">
<g opacity="0.8">
<path opacity="0.8" fill-rule="evenodd" clip-rule="evenodd" d="M142.359 156.12C139.834 157.421 137.698 158.908 135.561 160.767L128.375 158.351L121.578 168.573L127.016 173.777C126.239 176.193 125.656 178.981 125.656 181.583L118.664 184.743L121.383 196.637H128.958C130.318 199.054 131.871 201.098 133.814 203.142L131.289 210.019L141.971 216.524L147.409 211.32C149.934 212.064 152.847 212.621 155.566 212.621L158.868 219.312L171.298 216.71V209.462C173.823 208.161 175.959 206.674 178.096 204.815L185.282 207.231L192.08 197.009L186.642 191.805C187.419 189.389 188.001 186.601 188.001 183.999L194.993 180.84L192.274 168.945H184.699C183.34 166.529 181.786 164.484 179.844 162.44L182.369 155.563L171.687 149.058L166.248 154.262C163.724 153.518 160.81 152.961 158.091 152.961L154.789 146.27L142.359 148.872V156.12ZM153.236 170.06C160.616 168.573 167.802 172.848 169.55 179.91C171.104 186.973 166.637 193.85 159.256 195.522C151.876 197.009 144.69 192.734 142.942 185.672C141.388 178.609 146.049 171.547 153.236 170.06Z" fill="#2BA24C"/>
</g>
</g>
</g>
<g opacity="0.8">
<g opacity="0.8">
<g opacity="0.8">
<path opacity="0.8" fill-rule="evenodd" clip-rule="evenodd" d="M142.695 154.85C140.17 156.151 138.034 157.638 135.897 159.497L128.711 157.081L121.913 167.303L127.352 172.507C126.575 174.923 125.992 177.711 125.992 180.313L119 183.473L121.719 195.367H129.294C130.653 197.784 132.207 199.828 134.149 201.872L131.625 208.749L142.307 215.254L147.745 210.05C150.27 210.794 153.183 211.351 155.902 211.351L159.204 218.042L171.634 215.44V208.192C174.159 206.891 176.295 205.404 178.432 203.545L185.618 205.961L192.416 195.739L186.978 190.535C187.754 188.119 188.337 185.331 188.337 182.729L195.329 179.57L192.61 167.675H185.035C183.676 165.258 182.122 163.214 180.18 161.17L182.705 154.293L172.023 147.788L166.584 152.992C164.059 152.248 161.146 151.691 158.427 151.691L155.125 145L142.695 147.602V154.85ZM153.572 168.79C160.952 167.303 168.138 171.578 169.886 178.64C171.44 185.703 166.973 192.58 159.592 194.252C152.212 195.739 145.026 191.464 143.278 184.402C141.724 177.339 146.385 170.277 153.572 168.79Z" fill="white"/>
</g>
</g>
</g>
<path fill-rule="evenodd" clip-rule="evenodd" d="M67.3898 192.363C65.836 193.106 64.2823 194.222 62.9227 195.337L58.0672 193.664L53.6001 200.541L57.2903 204.072C56.7076 205.745 56.5134 207.417 56.3192 209.276L51.6579 211.32L53.6001 219.126H58.6498C59.4267 220.799 60.5921 222.1 61.7574 223.401L60.0094 228.048L67.1956 232.322L70.8858 228.791C72.6337 229.349 74.3818 229.534 76.324 229.72L78.4604 234.181L86.6177 232.508V227.676C88.3657 226.932 89.7253 225.817 91.0848 224.702L95.9403 226.375L100.407 219.498L96.7172 215.967C97.2999 214.294 97.4941 212.621 97.6883 210.763L102.35 208.718L100.407 200.912H95.3576C94.5808 199.24 93.4154 197.939 92.2501 196.638L93.9981 191.991L86.8119 187.716L83.1217 191.248C81.3737 190.69 79.6257 190.504 77.6835 190.318L75.5471 185.858L67.3898 187.531V192.363ZM74.576 201.656C79.4315 200.541 84.287 203.514 85.4523 208.161C86.6177 212.807 83.5101 217.454 78.6546 218.569C73.7991 219.684 68.9436 216.71 67.7783 212.064C66.8072 207.417 69.7205 202.771 74.576 201.656Z" fill="#F0B501"/>
<path fill-rule="evenodd" clip-rule="evenodd" d="M67.3898 192.363C65.836 193.106 64.2823 194.222 62.9227 195.337L58.0672 193.664L53.6001 200.541L57.2903 204.072C56.7076 205.745 56.5134 207.417 56.3192 209.276L51.6579 211.32L53.6001 219.126H58.6498C59.4267 220.799 60.5921 222.1 61.7574 223.401L60.0094 228.048L67.1956 232.322L70.8858 228.791C72.6337 229.349 74.3818 229.534 76.324 229.72L78.4604 234.181L86.6177 232.508V227.676C88.3657 226.932 89.7253 225.817 91.0848 224.702L95.9403 226.375L100.407 219.498L96.7172 215.967C97.2999 214.294 97.4941 212.621 97.6883 210.763L102.35 208.718L100.407 200.912H95.3576C94.5808 199.24 93.4154 197.939 92.2501 196.638L93.9981 191.991L86.8119 187.716L83.1217 191.248C81.3737 190.69 79.6257 190.504 77.6835 190.318L75.5471 185.858L67.3898 187.531V192.363ZM74.576 201.656C79.4315 200.541 84.287 203.514 85.4523 208.161C86.6177 212.807 83.5101 217.454 78.6546 218.569C73.7991 219.684 68.9436 216.71 67.7783 212.064C66.8072 207.417 69.7205 202.771 74.576 201.656Z" fill="#F0B501"/>
<g opacity="0.8">
<g opacity="0.8">
<g opacity="0.8">
<path opacity="0.8" fill-rule="evenodd" clip-rule="evenodd" d="M67.3898 192.363C65.836 193.106 64.2823 194.222 62.9227 195.337L58.0672 193.664L53.6001 200.541L57.2903 204.072C56.7076 205.745 56.5134 207.417 56.3192 209.276L51.6579 211.32L53.6001 219.126H58.6498C59.4267 220.799 60.5921 222.1 61.7574 223.401L60.0094 228.048L67.1956 232.322L70.8858 228.791C72.6337 229.349 74.3818 229.534 76.324 229.72L78.4604 234.181L86.6177 232.508V227.676C88.3657 226.932 89.7253 225.817 91.0848 224.702L95.9403 226.375L100.407 219.498L96.7172 215.967C97.2999 214.294 97.4941 212.621 97.6883 210.763L102.35 208.718L100.407 200.912H95.3576C94.5808 199.24 93.4154 197.939 92.2501 196.638L93.9981 191.991L86.8119 187.716L83.1217 191.248C81.3737 190.69 79.6257 190.504 77.6835 190.318L75.5471 185.858L67.3898 187.531V192.363ZM74.576 201.656C79.4315 200.541 84.287 203.514 85.4523 208.161C86.6177 212.807 83.5101 217.454 78.6546 218.569C73.7991 219.684 68.9436 216.71 67.7783 212.064C66.8072 207.417 69.7205 202.771 74.576 201.656Z" fill="#2BA24C"/>
</g>
</g>
</g>
<g opacity="0.8">
<g opacity="0.8">
<g opacity="0.8">
<path opacity="0.8" fill-rule="evenodd" clip-rule="evenodd" d="M67.7316 192.505C66.1778 193.248 64.6241 194.364 63.2645 195.479L58.409 193.806L53.9419 200.683L57.6321 204.214C57.0494 205.887 56.8552 207.559 56.661 209.418L51.9997 211.463L53.9419 219.269H58.9916C59.7685 220.941 60.9339 222.242 62.0992 223.543L60.3512 228.19L67.5374 232.464L71.2276 228.933C72.9755 229.491 74.7236 229.677 76.6658 229.862L78.8022 234.323L86.9595 232.65V227.818C88.7075 227.075 90.0671 225.959 91.4266 224.844L96.2821 226.517L100.749 219.64L97.059 216.109C97.6417 214.436 97.8359 212.764 98.0301 210.905L102.691 208.861L100.749 201.054H95.6994C94.9225 199.382 93.7572 198.081 92.5919 196.78L94.3399 192.133L87.1537 187.859L83.4635 191.39C81.7155 190.832 79.9675 190.646 78.0253 190.461L75.8889 186L67.7316 187.673V192.505ZM74.9178 201.798C79.7733 200.683 84.6288 203.656 85.7941 208.303C86.9595 212.949 83.8519 217.596 78.9964 218.711C74.1409 219.826 69.2854 216.852 68.1201 212.206C67.149 207.559 70.0623 202.913 74.9178 201.798Z" fill="white"/>
</g>
</g>
</g>
<path d="M159.256 234.924C159.451 234.924 160.616 231.207 162.17 226.561C163.724 221.914 165.083 218.197 164.695 218.011C164.5 217.825 162.752 221.542 161.199 226.189C159.839 230.835 159.062 234.924 159.256 234.924Z" fill="#FAFAFA"/>
<path d="M159.256 234.924C159.451 234.924 160.616 231.207 162.17 226.561C163.724 221.914 165.083 218.197 164.695 218.011C164.5 217.825 162.752 221.542 161.199 226.189C159.839 230.835 159.062 234.924 159.256 234.924Z" fill="#FAFAFA"/>
<defs>
<clipPath id="clip0">
<rect width="386" height="512" fill="white" transform="translate(119 219)"/>
</clipPath>
<clipPath id="clip1">
<rect width="210" height="335" fill="white" transform="translate(549 361)"/>
</clipPath>
</defs>
</svg>
